<?xml version="1.0" encoding="utf-8"?>
<!-- Generator: Adobe Illustrator 25.4.1, SVG Export Plug-In . SVG Version: 6.00 Build 0)  -->
<svg version="1.1" id="Layer_1" xmlns="http://www.w3.org/2000/svg" xmlns:xlink="http://www.w3.org/1999/xlink" x="0px" y="0px"
	 viewBox="0 0 168 31" style="enable-background:new 0 0 168 31;" xml:space="preserve">
<style type="text/css">
	.st0{fill:#F6F8FA;}
	.st1{enable-background:new    ;}
	.st2{fill:#333333;}
	.st3{fill:#FF7979;}
</style>
<g>
	<path id="Rectangle_10" class="st0" d="M6,0h156c3.3,0,6,2.7,6,6v19c0,3.3-2.7,6-6,6H6c-3.3,0-6-2.7-6-6V6C0,2.7,2.7,0,6,0z"/>
	<g class="st1">
		<path class="st2" d="M31.9,11.6c-1.2,0-2,0.6-2,1.4c0,0.9,1,1.3,1.9,1.5l1,0.3c1.6,0.4,3.2,1.3,3.2,3.1c0,1.9-1.5,3.2-4.1,3.2
			c-2.5,0-4.2-1.2-4.2-3.4h1.9c0.1,1.1,1,1.7,2.3,1.7c1.3,0,2.2-0.6,2.2-1.6c0-0.8-0.8-1.2-2-1.5l-1.2-0.3c-1.8-0.5-2.9-1.4-2.9-2.9
			c0-1.9,1.7-3.2,4-3.2c2.3,0,3.9,1.3,3.9,3.1H34C33.9,12.2,33.1,11.6,31.9,11.6z"/>
		<path class="st2" d="M37.1,17c0-2.5,1.5-4.2,3.9-4.2c2,0,3.7,1.3,3.7,4.1v0.6H39c0,1.4,0.8,2.2,2.1,2.2c0.8,0,1.5-0.4,1.7-1.1
			l1.8,0.2c-0.3,1.4-1.7,2.4-3.6,2.4C38.6,21.2,37.1,19.5,37.1,17z M42.9,16.1c0-1.1-0.8-1.9-1.9-1.9c-1.2,0-1.9,0.9-2,1.9H42.9z"/>
		<path class="st2" d="M45.7,16.9c0-2.5,1.5-4.2,3.9-4.2s3.9,1.7,3.9,4.2c0,2.5-1.5,4.2-3.9,4.2S45.7,19.5,45.7,16.9z M51.6,16.9
			c0-1.5-0.6-2.7-2-2.7c-1.3,0-2,1.2-2,2.7c0,1.5,0.6,2.7,2,2.7C50.9,19.6,51.6,18.4,51.6,16.9z"/>
		<path class="st2" d="M60.1,12.8H62V21h-1.9v-1.5h-0.1c-0.4,0.9-1.2,1.6-2.5,1.6c-1.6,0-2.7-1.1-2.7-3.1v-5.2h1.9v4.9
			c0,1,0.6,1.7,1.5,1.7c0.9,0,1.7-0.6,1.7-1.9V12.8z"/>
		<path class="st2" d="M65.7,21h-1.9V10.1h1.9V21z"/>
		<path class="st2" d="M69.5,20.1c-0.1,1.3-0.7,2.9-1,3.6h-1.3c0.2-0.6,0.5-2.1,0.6-3.6l0-0.6h1.7L69.5,20.1z"/>
		<path class="st2" d="M78.5,11.6c-1.2,0-2,0.6-2,1.4c0,0.9,1,1.3,1.9,1.5l1,0.3c1.6,0.4,3.2,1.3,3.2,3.1c0,1.9-1.5,3.2-4.1,3.2
			c-2.5,0-4.2-1.2-4.2-3.4h1.9c0.1,1.1,1,1.7,2.3,1.7c1.3,0,2.2-0.6,2.2-1.6c0-0.8-0.8-1.2-2-1.5l-1.2-0.3c-1.8-0.5-2.9-1.4-2.9-2.9
			c0-1.9,1.7-3.2,4-3.2c2.3,0,3.9,1.3,3.9,3.1h-1.9C80.5,12.2,79.7,11.6,78.5,11.6z"/>
		<path class="st2" d="M83.7,16.9c0-2.5,1.5-4.2,3.9-4.2s3.9,1.7,3.9,4.2c0,2.5-1.5,4.2-3.9,4.2S83.7,19.5,83.7,16.9z M89.6,16.9
			c0-1.5-0.6-2.7-2-2.7c-1.3,0-2,1.2-2,2.7c0,1.5,0.6,2.7,2,2.7C88.9,19.6,89.6,18.4,89.6,16.9z"/>
		<path class="st2" d="M98.1,12.8h1.9V21h-1.9v-1.5h-0.1c-0.4,0.9-1.2,1.6-2.5,1.6c-1.6,0-2.7-1.1-2.7-3.1v-5.2h1.9v4.9
			c0,1,0.6,1.7,1.5,1.7c0.9,0,1.7-0.6,1.7-1.9V12.8z"/>
		<path class="st2" d="M105.8,14.3h-1.6v4.2c0,0.8,0.4,0.9,0.9,0.9c0.2,0,0.5,0,0.6-0.1l0.3,1.5c-0.2,0.1-0.6,0.2-1.1,0.2
			c-1.4,0-2.6-0.7-2.6-2.3v-4.5h-1.2v-1.5h1.2v-2h1.9v2h1.6V14.3z"/>
		<path class="st2" d="M109.2,21h-1.9V10.1h1.9v4.1h0.1c0.4-0.9,1.2-1.5,2.4-1.5c1.7,0,2.8,1.1,2.8,3.1V21h-1.9v-4.9
			c0-1.1-0.6-1.7-1.6-1.7c-1,0-1.8,0.7-1.8,1.9V21z"/>
		<path class="st2" d="M119.7,10.1h2v5h0.1l4.3-5h2.4l-4.2,4.9l4.3,6h-2.4l-3.3-4.7l-1.2,1.4V21h-2V10.1z"/>
		<path class="st2" d="M128.6,16.9c0-2.5,1.5-4.2,3.9-4.2s3.9,1.7,3.9,4.2c0,2.5-1.5,4.2-3.9,4.2S128.6,19.5,128.6,16.9z
			 M134.4,16.9c0-1.5-0.6-2.7-2-2.7c-1.3,0-2,1.2-2,2.7c0,1.5,0.6,2.7,2,2.7C133.8,19.6,134.4,18.4,134.4,16.9z"/>
		<path class="st2" d="M137.7,12.8h1.9v1.4h0.1c0.3-0.9,1.1-1.5,2-1.5c0.2,0,0.5,0,0.7,0.1v1.8c-0.2-0.1-0.6-0.1-0.9-0.1
			c-1.1,0-1.8,0.7-1.8,1.8V21h-1.9V12.8z"/>
		<path class="st2" d="M142.7,17c0-2.5,1.5-4.2,3.9-4.2c2,0,3.7,1.3,3.7,4.1v0.6h-5.7c0,1.4,0.8,2.2,2.1,2.2c0.8,0,1.5-0.4,1.7-1.1
			l1.8,0.2c-0.3,1.4-1.7,2.4-3.6,2.4C144.2,21.2,142.7,19.5,142.7,17z M148.5,16.1c0-1.1-0.8-1.9-1.9-1.9c-1.2,0-1.9,0.9-2,1.9
			H148.5z"/>
		<path class="st2" d="M151.3,18.7c0-1.8,1.5-2.3,3.1-2.5c1.4-0.2,2-0.2,2-0.7v0c0-0.8-0.5-1.3-1.4-1.3c-0.9,0-1.5,0.5-1.7,1
			l-1.8-0.3c0.4-1.5,1.7-2.3,3.5-2.3c1.6,0,3.3,0.6,3.3,2.8V21h-1.9v-1.1h-0.1c-0.4,0.7-1.1,1.3-2.4,1.3
			C152.5,21.2,151.3,20.3,151.3,18.7z M156.4,18.1v-1c-0.2,0.2-1.3,0.3-1.8,0.4c-0.9,0.1-1.5,0.4-1.5,1.2c0,0.7,0.6,1.1,1.4,1.1
			C155.7,19.7,156.4,19,156.4,18.1z"/>
	</g>
	<path id="Icon_material-location-on" class="st3" d="M15.7,6.9c-3.1,0-5.7,2.5-5.7,5.7c0,0,0,0,0,0c0,4.3,5.7,10.6,5.7,10.6
		s5.7-6.3,5.7-10.6C21.4,9.4,18.8,6.9,15.7,6.9C15.7,6.9,15.7,6.9,15.7,6.9z M15.7,14.6c-1.1,0-2-0.9-2-2c0-1.1,0.9-2,2-2s2,0.9,2,2
		l0,0C17.7,13.7,16.8,14.6,15.7,14.6z"/>
</g>
</svg>
