<?xml version="1.0" encoding="utf-8"?>
<!-- Generator: Adobe Illustrator 26.0.0, SVG Export Plug-In . SVG Version: 6.00 Build 0)  -->
<svg version="1.1" id="Layer_1" xmlns="http://www.w3.org/2000/svg" xmlns:xlink="http://www.w3.org/1999/xlink" x="0px" y="0px"
	 viewBox="0 0 419 244" style="enable-background:new 0 0 419 244;" xml:space="preserve">
<style type="text/css">
	.st0{fill:#FFFFFF;}
	.st1{enable-background:new    ;}
	.st2{fill:#141419;}
	.st3{fill:#F2497D;}
	.st4{fill:#A3A3A3;}
	.st5{fill:#5784FF;}
	.st6{fill:#FD5959;}
	.st7{fill:#52AFFF;}
	.st8{fill:#FFE51D;}
	.st9{fill:#45E245;}
	.st10{fill:#4AD5FF;}
</style>
<g>
	<path id="Rectangle_1133" class="st0" d="M15,0h389c8.3,0,15,6.7,15,15v214c0,8.3-6.7,15-15,15H15c-8.3,0-15-6.7-15-15V15
		C0,6.7,6.7,0,15,0z"/>
	<g class="st1">
		<path class="st2" d="M37.7,43.3L37.7,43.3c0-4.3,2.5-6.9,6.5-6.9c4,0,6.5,2.7,6.5,6.9v0c0,4.3-2.5,6.9-6.5,6.9
			S37.7,47.5,37.7,43.3z M47.7,43.3L47.7,43.3c0-2.8-1.4-4.6-3.6-4.6c-2.2,0-3.6,1.7-3.6,4.5v0c0,2.8,1.4,4.5,3.6,4.5
			C46.4,47.8,47.7,46.1,47.7,43.3z"/>
		<path class="st2" d="M51.8,45L51.8,45c0-3.2,1.9-5.2,4.9-5.2c2.7,0,4.4,1.7,4.5,3.8v0.1h-2.5l0-0.1c-0.2-0.9-0.8-1.7-1.9-1.7
			c-1.3,0-2.2,1.1-2.2,3v0c0,1.9,0.8,3.1,2.2,3.1c1.1,0,1.8-0.7,1.9-1.7l0-0.1h2.5v0.1c-0.1,2.2-1.8,3.8-4.5,3.8
			C53.7,50.2,51.8,48.2,51.8,45z"/>
		<path class="st2" d="M63.2,47.2v-5.1h-1.4v-2h1.4v-2.4H66V40h1.8v2H66v4.8c0,0.9,0.4,1.2,1.2,1.2c0.2,0,0.4,0,0.6,0v2
			c-0.3,0-0.7,0.1-1.3,0.1C64.3,50.2,63.2,49.3,63.2,47.2z"/>
		<path class="st2" d="M68.8,45L68.8,45c0-3.2,1.9-5.2,4.9-5.2c3,0,4.9,1.9,4.9,5.2v0c0,3.2-1.9,5.2-4.9,5.2
			C70.7,50.2,68.8,48.2,68.8,45z M75.9,45L75.9,45c0-1.9-0.9-3.1-2.2-3.1c-1.3,0-2.2,1.1-2.2,3v0c0,1.9,0.8,3.1,2.2,3.1
			C75,48.1,75.9,46.9,75.9,45z"/>
		<path class="st2" d="M82.8,48.3L82.8,48.3L82.8,50h-2.7V36.6h2.7v5.2h0.1c0.5-1.2,1.7-1.9,3.1-1.9c2.5,0,4,1.9,4,5.2v0
			c0,3.2-1.5,5.2-4.1,5.2C84.5,50.2,83.4,49.5,82.8,48.3z M87.2,45L87.2,45c0-1.8-0.9-2.9-2.2-2.9c-1.3,0-2.2,1.1-2.2,2.9v0
			c0,1.8,0.9,2.9,2.2,2.9C86.4,47.9,87.2,46.8,87.2,45z"/>
		<path class="st2" d="M91,45L91,45c0-3.2,1.9-5.2,4.8-5.2s4.7,2,4.7,5v0.8h-6.8c0,1.6,0.9,2.5,2.3,2.5c1.1,0,1.8-0.6,2-1.2l0-0.1
			h2.5l0,0.1c-0.3,1.5-1.7,3.1-4.5,3.1C92.8,50.2,91,48.2,91,45z M93.7,43.9h4.2c-0.2-1.4-1-2.1-2.1-2.1
			C94.7,41.8,93.9,42.6,93.7,43.9z"/>
		<path class="st2" d="M101.9,40h2.7v1.7h0.1c0.3-1.2,1.1-1.9,2.3-1.9c0.3,0,0.6,0,0.8,0.1v2.4c-0.2-0.1-0.6-0.1-1-0.1
			c-1.3,0-2.1,0.8-2.1,2.2V50h-2.7V40z"/>
	</g>
	<g class="st1">
		<path class="st3" d="M112.8,48.8l4.7-4.9c1.8-1.9,2.2-2.6,2.2-3.7v0c0-1.4-1-2.3-2.5-2.3c-1.7,0-2.9,1.2-2.9,2.6v0h-1.6v-0.1
			c0-2.3,2-4,4.5-4c2.4,0,4.2,1.6,4.2,3.7v0c0,1.5-0.7,2.6-3.1,5.1l-3.2,3.3v0h6.5V50h-8.8V48.8z"/>
		<path class="st3" d="M123.3,43.3L123.3,43.3c0-4.3,1.8-6.9,4.9-6.9s4.9,2.7,4.9,6.9v0c0,4.2-1.8,6.9-4.9,6.9
			S123.3,47.5,123.3,43.3z M131.4,43.3L131.4,43.3c0-3.4-1.2-5.5-3.2-5.5s-3.2,2.1-3.2,5.4v0c0,3.4,1.2,5.5,3.2,5.5
			S131.4,46.6,131.4,43.3z"/>
		<path class="st3" d="M134.9,48.8l4.7-4.9c1.8-1.9,2.2-2.6,2.2-3.7v0c0-1.4-1-2.3-2.5-2.3c-1.7,0-2.9,1.2-2.9,2.6v0h-1.6v-0.1
			c0-2.3,2-4,4.5-4c2.4,0,4.2,1.6,4.2,3.7v0c0,1.5-0.7,2.6-3.1,5.1l-3.2,3.3v0h6.5V50h-8.8V48.8z"/>
		<path class="st3" d="M145.4,43.3L145.4,43.3c0-4.3,1.8-6.9,4.9-6.9s4.9,2.7,4.9,6.9v0c0,4.2-1.8,6.9-4.9,6.9
			S145.4,47.5,145.4,43.3z M153.5,43.3L153.5,43.3c0-3.4-1.2-5.5-3.2-5.5s-3.2,2.1-3.2,5.4v0c0,3.4,1.2,5.5,3.2,5.5
			S153.5,46.6,153.5,43.3z"/>
	</g>
	<g class="st1">
		<path class="st4" d="M39.5,78.3h1.9l2.8,7h0l2.8-7h1.9v9.2h-1.5v-6.5h-0.1l-2.6,6.5h-1.1L41,80.9h0v6.5h-1.5V78.3z"/>
		<path class="st4" d="M50.1,84.1L50.1,84.1c0-2.2,1.3-3.5,3.2-3.5c2,0,3.3,1.3,3.3,3.5v0c0,2.2-1.3,3.5-3.3,3.5
			C51.3,87.6,50.1,86.3,50.1,84.1z M55,84.1L55,84.1c0-1.4-0.6-2.2-1.7-2.2c-1,0-1.6,0.8-1.6,2.2v0c0,1.4,0.6,2.2,1.7,2.2
			C54.3,86.3,55,85.5,55,84.1z"/>
		<path class="st4" d="M57.6,80.7h1.6v1.1h0c0.3-0.7,1-1.2,2.1-1.2c1.5,0,2.3,1,2.3,2.5v4.4H62v-4c0-1-0.4-1.5-1.3-1.5
			c-0.9,0-1.5,0.7-1.5,1.6v3.9h-1.6V80.7z"/>
	</g>
	<g class="st1">
		<path class="st4" d="M99.2,79.7h-2.7v-1.4h7.1v1.4h-2.7v7.8h-1.6V79.7z"/>
		<path class="st4" d="M103.5,85.1v-4.3h1.6v4c0,1,0.4,1.5,1.3,1.5c0.9,0,1.5-0.7,1.5-1.6v-3.9h1.6v6.7h-1.6v-1.1h0
			c-0.3,0.7-1,1.2-2.1,1.2C104.3,87.6,103.5,86.6,103.5,85.1z"/>
		<path class="st4" d="M110.5,84.1L110.5,84.1c0-2.1,1.2-3.5,3.2-3.5s3.1,1.4,3.1,3.4v0.5H112c0,1.2,0.7,1.9,1.7,1.9
			c0.8,0,1.3-0.4,1.5-0.9l0,0h1.5l0,0.1c-0.2,1-1.2,2.1-3,2.1C111.7,87.6,110.5,86.2,110.5,84.1z M112.1,83.4h3.2
			c-0.1-1.1-0.7-1.6-1.6-1.6S112.2,82.4,112.1,83.4z"/>
	</g>
	<g class="st1">
		<path class="st4" d="M148.9,78.3h1.7l1.6,6.9h0l1.8-6.9h1.5l1.8,6.9h0l1.6-6.9h1.7l-2.5,9.2h-1.6l-1.8-6.6h0l-1.8,6.6h-1.6
			L148.9,78.3z"/>
		<path class="st4" d="M160.6,84.1L160.6,84.1c0-2.1,1.2-3.5,3.2-3.5s3.1,1.4,3.1,3.4v0.5h-4.7c0,1.2,0.7,1.9,1.7,1.9
			c0.8,0,1.3-0.4,1.5-0.9l0,0h1.5l0,0.1c-0.2,1-1.2,2.1-3,2.1C161.8,87.6,160.6,86.2,160.6,84.1z M162.2,83.4h3.2
			c-0.1-1.1-0.7-1.6-1.6-1.6S162.3,82.4,162.2,83.4z"/>
		<path class="st4" d="M167.6,84.1L167.6,84.1c0-2.2,1.1-3.5,2.8-3.5c1,0,1.7,0.5,2.1,1.3h0v-3.6h1.6v9.2h-1.6v-1.1h0
			c-0.4,0.8-1.1,1.3-2.1,1.3C168.7,87.6,167.6,86.2,167.6,84.1z M172.5,84.1L172.5,84.1c0-1.3-0.7-2.2-1.7-2.2c-1,0-1.6,0.8-1.6,2.2
			v0c0,1.3,0.6,2.2,1.6,2.2C171.9,86.2,172.5,85.4,172.5,84.1z"/>
	</g>
	<g class="st1">
		<path class="st4" d="M209.9,79.7h-2.7v-1.4h7.1v1.4h-2.7v7.8h-1.6V79.7z"/>
		<path class="st4" d="M215.3,78.3h1.6v3.6h0c0.3-0.8,1.1-1.3,2.1-1.3c1.4,0,2.4,1.1,2.4,2.7v4.2h-1.6v-3.9c0-1-0.5-1.7-1.4-1.7
			c-0.9,0-1.5,0.7-1.5,1.7v3.9h-1.6V78.3z"/>
		<path class="st4" d="M222.6,85.1v-4.3h1.6v4c0,1,0.4,1.5,1.3,1.5c0.9,0,1.5-0.7,1.5-1.6v-3.9h1.6v6.7H227v-1.1h0
			c-0.3,0.7-1,1.2-2.1,1.2C223.5,87.6,222.6,86.6,222.6,85.1z"/>
	</g>
	<g class="st1">
		<path class="st4" d="M261.6,78.3h5.8v1.4h-4.2v2.7h3.8v1.3h-3.8v3.7h-1.6V78.3z"/>
		<path class="st4" d="M268.5,80.7h1.5v1.1h0c0.2-0.8,0.8-1.3,1.6-1.3c0.2,0,0.4,0,0.5,0.1v1.4c-0.1-0.1-0.4-0.1-0.6-0.1
			c-0.9,0-1.4,0.6-1.4,1.5v3.9h-1.6V80.7z"/>
		<path class="st4" d="M272.9,78.9c0-0.5,0.4-0.9,0.9-0.9s0.9,0.4,0.9,0.9c0,0.5-0.4,0.9-0.9,0.9S272.9,79.4,272.9,78.9z M273,80.7
			h1.6v6.7H273V80.7z"/>
	</g>
	<g class="st1">
		<path class="st4" d="M305.5,85L305.5,85l1.6-0.1l0,0.1c0.1,0.8,0.9,1.3,2.1,1.3c1.2,0,1.9-0.5,1.9-1.3v0c0-0.7-0.5-1.1-1.7-1.3
			l-1-0.2c-1.8-0.4-2.7-1.2-2.7-2.6v0c0-1.6,1.4-2.7,3.4-2.7c2,0,3.3,1.1,3.4,2.6l0,0.1h-1.6l0-0.1c-0.1-0.8-0.8-1.3-1.8-1.3
			c-1.1,0-1.7,0.5-1.7,1.2v0c0,0.6,0.5,1,1.6,1.3l1,0.2c1.9,0.4,2.7,1.2,2.7,2.6v0c0,1.7-1.3,2.8-3.6,2.8
			C307,87.6,305.6,86.6,305.5,85z"/>
		<path class="st4" d="M313.4,85.5L313.4,85.5c0-1.2,0.9-1.9,2.6-2l1.8-0.1v-0.5c0-0.7-0.4-1.1-1.2-1.1c-0.7,0-1.2,0.3-1.3,0.8
			l0,0.1h-1.5l0-0.1c0.1-1.2,1.1-2.1,2.8-2.1c1.7,0,2.8,0.9,2.8,2.2v4.6h-1.6v-1h0c-0.4,0.7-1.1,1.1-2,1.1
			C314.4,87.6,313.4,86.7,313.4,85.5z M316.2,86.4c0.9,0,1.6-0.6,1.6-1.4v-0.5l-1.5,0.1c-0.8,0.1-1.2,0.4-1.2,0.9v0
			C315,86,315.5,86.4,316.2,86.4z"/>
		<path class="st4" d="M321,85.6v-3.7h-1v-1.2h1V79h1.6v1.7h1.3v1.2h-1.3v3.6c0,0.7,0.3,0.9,0.9,0.9c0.2,0,0.3,0,0.4,0v1.2
			c-0.2,0-0.5,0.1-0.8,0.1C321.7,87.6,321,87,321,85.6z"/>
	</g>
	<g class="st1">
		<path class="st4" d="M357.4,85L357.4,85l1.6-0.1l0,0.1c0.1,0.8,0.9,1.3,2.1,1.3c1.2,0,1.9-0.5,1.9-1.3v0c0-0.7-0.5-1.1-1.7-1.3
			l-1-0.2c-1.8-0.4-2.7-1.2-2.7-2.6v0c0-1.6,1.4-2.7,3.4-2.7c2,0,3.3,1.1,3.4,2.6l0,0.1h-1.6l0-0.1c-0.1-0.8-0.8-1.3-1.8-1.3
			c-1.1,0-1.7,0.5-1.7,1.2v0c0,0.6,0.5,1,1.6,1.3l1,0.2c1.9,0.4,2.7,1.2,2.7,2.6v0c0,1.7-1.3,2.8-3.6,2.8
			C358.9,87.6,357.5,86.6,357.4,85z"/>
		<path class="st4" d="M365.6,85.1v-4.3h1.6v4c0,1,0.4,1.5,1.3,1.5c0.9,0,1.5-0.7,1.5-1.6v-3.9h1.6v6.7H370v-1.1h0
			c-0.3,0.7-1,1.2-2.1,1.2C366.4,87.6,365.6,86.6,365.6,85.1z"/>
		<path class="st4" d="M372.9,80.7h1.6v1.1h0c0.3-0.7,1-1.2,2.1-1.2c1.5,0,2.3,1,2.3,2.5v4.4h-1.6v-4c0-1-0.4-1.5-1.3-1.5
			c-0.9,0-1.5,0.7-1.5,1.6v3.9h-1.6V80.7z"/>
	</g>
	<path id="Icon_ionic-ios-arrow-back" class="st4" d="M350.9,44l5.9-5.9c0.4-0.4,0.4-1.2,0-1.6c-0.4-0.4-1.1-0.4-1.6,0l-6.7,6.7
		c-0.4,0.4-0.4,1.1,0,1.5l6.8,6.8c0.4,0.4,1.2,0.4,1.6,0c0.4-0.4,0.4-1.1,0-1.6L350.9,44z"/>
	<path id="Icon_ionic-ios-arrow-back-2" class="st4" d="M379.7,44l-5.9,5.9c-0.4,0.4-0.4,1.2,0,1.6c0.4,0.4,1.1,0.4,1.6,0l6.7-6.7
		c0.4-0.4,0.4-1.1,0-1.5l-6.8-6.8c-0.4-0.4-1.2-0.4-1.6,0c-0.4,0.4-0.4,1.1,0,1.6L379.7,44z"/>
	<g class="st1">
		<path class="st4" d="M44.2,121l3.2-3.2c1.2-1.2,1.5-1.6,1.5-2.3v0c0-0.8-0.6-1.4-1.5-1.4c-1,0-1.7,0.7-1.7,1.6v0h-1.5v0
			c0-1.7,1.4-2.9,3.3-2.9c1.8,0,3.1,1.1,3.1,2.6v0c0,1.1-0.5,1.8-2.1,3.4l-2,1.9v0.1h4.3v1.3h-6.4V121z"/>
		<path class="st4" d="M51.8,119.7L51.8,119.7c0-1.2,0.8-2.1,2.1-2.3v0c-1-0.3-1.7-1-1.7-2v0c0-1.4,1.3-2.4,3.2-2.4
			c1.9,0,3.2,1,3.2,2.4v0c0,1-0.7,1.7-1.7,2v0c1.2,0.2,2.1,1.1,2.1,2.3v0c0,1.6-1.5,2.7-3.6,2.7S51.8,121.2,51.8,119.7z M57.2,119.6
			L57.2,119.6c0-0.9-0.8-1.5-1.9-1.5s-1.9,0.6-1.9,1.5v0c0,0.9,0.8,1.5,1.9,1.5C56.4,121.1,57.2,120.4,57.2,119.6z M56.9,115.4
			L56.9,115.4c0-0.8-0.7-1.4-1.6-1.4s-1.6,0.6-1.6,1.3v0c0,0.8,0.7,1.3,1.6,1.3S56.9,116.2,56.9,115.4z"/>
	</g>
	<g class="st1">
		<path class="st4" d="M99.6,121l3.2-3.2c1.2-1.2,1.5-1.6,1.5-2.3v0c0-0.8-0.6-1.4-1.5-1.4c-1,0-1.7,0.7-1.7,1.6v0h-1.5v0
			c0-1.7,1.4-2.9,3.3-2.9c1.8,0,3.1,1.1,3.1,2.6v0c0,1.1-0.5,1.8-2.1,3.4l-2,1.9v0.1h4.3v1.3h-6.4V121z"/>
		<path class="st4" d="M114.4,117.5L114.4,117.5c0,3-1.4,4.8-3.7,4.8c-1.7,0-3-1-3.2-2.4l0-0.1h1.6l0,0.1c0.2,0.6,0.8,1,1.6,1
			c1.6,0,2.2-1.6,2.2-3.4h0c-0.4,0.8-1.3,1.5-2.5,1.5c-1.8,0-3-1.3-3-3v0c0-1.8,1.4-3.2,3.4-3.2
			C112.7,112.8,114.4,114.3,114.4,117.5z M112.5,116L112.5,116c0-1-0.8-1.8-1.8-1.8c-1,0-1.8,0.8-1.8,1.8v0c0,1,0.8,1.8,1.8,1.8
			C111.7,117.8,112.5,117,112.5,116z"/>
	</g>
	<ellipse id="Ellipse_187" class="st5" cx="218.6" cy="118" rx="14.2" ry="13.8"/>
	<g class="st1">
		<path class="st4" d="M154.1,119.7L154.1,119.7l1.6-0.1l0,0.1c0.1,0.7,0.8,1.3,1.9,1.3c1.1,0,1.8-0.6,1.8-1.4v0
			c0-1-0.7-1.5-1.9-1.5h-1.1v-1.2h1c1,0,1.7-0.6,1.7-1.4v0c0-0.8-0.6-1.3-1.5-1.3c-1,0-1.6,0.5-1.7,1.3l0,0.1h-1.5l0-0.1
			c0.1-1.5,1.4-2.6,3.2-2.6c1.9,0,3.1,1,3.1,2.4v0c0,1.1-0.8,1.9-1.9,2.1v0c1.4,0.1,2.2,0.9,2.2,2.2v0c0,1.6-1.4,2.7-3.4,2.7
			C155.5,122.3,154.2,121.2,154.1,119.7z"/>
		<path class="st4" d="M162.1,117.6L162.1,117.6c0-2.9,1.4-4.7,3.6-4.7c2.2,0,3.6,1.8,3.6,4.7v0c0,2.9-1.4,4.7-3.6,4.7
			C163.4,122.3,162.1,120.5,162.1,117.6z M167.6,117.6L167.6,117.6c0-2.1-0.7-3.4-1.9-3.4c-1.2,0-1.9,1.3-1.9,3.4v0
			c0,2.1,0.7,3.4,1.9,3.4C166.9,121,167.6,119.7,167.6,117.6z"/>
	</g>
	<g class="st1">
		<path class="st0" d="M211.6,117.6L211.6,117.6c0-2.9,1.4-4.7,3.7-4.7s3.7,1.8,3.7,4.7v0c0,2.9-1.4,4.7-3.7,4.7
			S211.6,120.5,211.6,117.6z M217.1,117.6L217.1,117.6c0-2-0.7-3.2-1.8-3.2s-1.8,1.2-1.8,3.2v0c0,2,0.7,3.2,1.8,3.2
			S217.1,119.6,217.1,117.6z"/>
		<path class="st0" d="M222.5,114.8L222.5,114.8l-2.4,1.6v-1.7l2.4-1.6h1.9v9.2h-1.9V114.8z"/>
	</g>
	<g class="st1">
		<path class="st2" d="M259.7,117.6L259.7,117.6c0-2.9,1.4-4.7,3.6-4.7c2.2,0,3.6,1.8,3.6,4.7v0c0,2.9-1.4,4.7-3.6,4.7
			C261,122.3,259.7,120.5,259.7,117.6z M265.2,117.6L265.2,117.6c0-2.1-0.7-3.4-1.9-3.4c-1.2,0-1.9,1.3-1.9,3.4v0
			c0,2.1,0.7,3.4,1.9,3.4C264.5,121,265.2,119.7,265.2,117.6z"/>
		<path class="st2" d="M268,121l3.2-3.2c1.2-1.2,1.5-1.6,1.5-2.3v0c0-0.8-0.6-1.4-1.5-1.4c-1,0-1.7,0.7-1.7,1.6v0h-1.5v0
			c0-1.7,1.4-2.9,3.3-2.9c1.8,0,3.1,1.1,3.1,2.6v0c0,1.1-0.5,1.8-2.1,3.4l-2,1.9v0.1h4.3v1.3H268V121z"/>
	</g>
	<g class="st1">
		<path class="st2" d="M307.8,117.6L307.8,117.6c0-2.9,1.4-4.7,3.6-4.7c2.2,0,3.6,1.8,3.6,4.7v0c0,2.9-1.4,4.7-3.6,4.7
			C309.1,122.3,307.8,120.5,307.8,117.6z M313.3,117.6L313.3,117.6c0-2.1-0.7-3.4-1.9-3.4c-1.2,0-1.9,1.3-1.9,3.4v0
			c0,2.1,0.7,3.4,1.9,3.4C312.6,121,313.3,119.7,313.3,117.6z"/>
		<path class="st2" d="M316,119.7L316,119.7l1.6-0.1l0,0.1c0.1,0.7,0.8,1.3,1.9,1.3c1.1,0,1.8-0.6,1.8-1.4v0c0-1-0.7-1.5-1.9-1.5
			h-1.1v-1.2h1c1,0,1.7-0.6,1.7-1.4v0c0-0.8-0.6-1.3-1.5-1.3c-1,0-1.6,0.5-1.7,1.3l0,0.1h-1.5l0-0.1c0.1-1.5,1.4-2.6,3.2-2.6
			c1.9,0,3.1,1,3.1,2.4v0c0,1.1-0.8,1.9-1.9,2.1v0c1.4,0.1,2.2,0.9,2.2,2.2v0c0,1.6-1.4,2.7-3.4,2.7
			C317.5,122.3,316.2,121.2,316,119.7z"/>
	</g>
	<g class="st1">
		<path class="st2" d="M360.2,117.6L360.2,117.6c0-2.9,1.4-4.7,3.6-4.7c2.2,0,3.6,1.8,3.6,4.7v0c0,2.9-1.4,4.7-3.6,4.7
			C361.6,122.3,360.2,120.5,360.2,117.6z M365.8,117.6L365.8,117.6c0-2.1-0.7-3.4-1.9-3.4c-1.2,0-1.9,1.3-1.9,3.4v0
			c0,2.1,0.7,3.4,1.9,3.4C365,121,365.8,119.7,365.8,117.6z"/>
		<path class="st2" d="M373,120.4h-4.6V119l3.8-6h2.3v6.1h1.2v1.3h-1.2v1.8H373V120.4z M373,119.1v-4.9h0l-3.1,4.8v0H373z"/>
	</g>
	<g class="st1">
		<path class="st2" d="M44.1,153.3L44.1,153.3c0-2.9,1.4-4.7,3.6-4.7c2.2,0,3.6,1.8,3.6,4.7v0c0,2.9-1.4,4.7-3.6,4.7
			C45.5,158,44.1,156.2,44.1,153.3z M49.7,153.3L49.7,153.3c0-2.1-0.7-3.4-1.9-3.4c-1.2,0-1.9,1.3-1.9,3.4v0c0,2.1,0.7,3.4,1.9,3.4
			C48.9,156.7,49.7,155.4,49.7,153.3z"/>
		<path class="st2" d="M52.6,155.4L52.6,155.4l1.5-0.1l0,0c0.1,0.8,0.8,1.4,1.8,1.4c1.1,0,1.8-0.8,1.8-1.8v0c0-1-0.8-1.8-1.8-1.8
			c-0.5,0-1,0.2-1.3,0.5c-0.2,0.1-0.3,0.3-0.4,0.5h-1.4l0.4-5.3h5.6v1.3h-4.3l-0.3,2.8h0c0.4-0.6,1.2-1,2.1-1c1.7,0,3,1.3,3,3v0
			c0,1.9-1.4,3.2-3.4,3.2C54,158,52.7,156.9,52.6,155.4z"/>
	</g>
	<g class="st1">
		<path class="st2" d="M98.7,153.3L98.7,153.3c0-2.9,1.4-4.7,3.6-4.7c2.2,0,3.6,1.8,3.6,4.7v0c0,2.9-1.4,4.7-3.6,4.7
			C100.1,158,98.7,156.2,98.7,153.3z M104.3,153.3L104.3,153.3c0-2.1-0.7-3.4-1.9-3.4c-1.2,0-1.9,1.3-1.9,3.4v0
			c0,2.1,0.7,3.4,1.9,3.4C103.6,156.7,104.3,155.4,104.3,153.3z"/>
		<path class="st2" d="M107,153.4L107,153.4c0-3,1.4-4.8,3.7-4.8c1.7,0,3,1,3.2,2.4l0,0.1h-1.6l0-0.1c-0.2-0.6-0.8-1-1.6-1
			c-1.6,0-2.2,1.6-2.2,3.4h0c0.4-0.8,1.3-1.5,2.5-1.5c1.8,0,3,1.3,3,3v0c0,1.8-1.4,3.2-3.4,3.2C108.7,158,107,156.6,107,153.4z
			 M110.7,156.7c1,0,1.8-0.8,1.8-1.8v0c0-1-0.8-1.8-1.8-1.8s-1.8,0.7-1.8,1.8v0C108.9,155.9,109.7,156.7,110.7,156.7z"/>
	</g>
	<g class="st1">
		<path class="st2" d="M154.8,154.2L154.8,154.2c0-2.9,1.4-4.7,3.6-4.7c2.2,0,3.6,1.8,3.6,4.7v0c0,2.9-1.4,4.7-3.6,4.7
			C156.2,159,154.8,157.2,154.8,154.2z M160.4,154.2L160.4,154.2c0-2.1-0.7-3.4-1.9-3.4c-1.2,0-1.9,1.3-1.9,3.4v0
			c0,2.1,0.7,3.4,1.9,3.4C159.6,157.6,160.4,156.4,160.4,154.2z"/>
		<path class="st2" d="M167.5,151L167.5,151l-4.8,0v-1.3h6.4v1.4l-3.9,7.8h-1.7L167.5,151z"/>
	</g>
	<g class="st1">
		<path class="st2" d="M210.2,153.3L210.2,153.3c0-2.9,1.4-4.7,3.7-4.7s3.7,1.8,3.7,4.7v0c0,2.9-1.4,4.7-3.7,4.7
			S210.2,156.2,210.2,153.3z M215.7,153.3L215.7,153.3c0-2-0.7-3.2-1.8-3.2s-1.8,1.2-1.8,3.2v0c0,2,0.7,3.2,1.8,3.2
			S215.7,155.3,215.7,153.3z"/>
		<path class="st2" d="M218.7,155.4L218.7,155.4c0-1.2,0.9-2.1,2.1-2.3v0c-1.1-0.3-1.8-1-1.8-2v0c0-1.4,1.4-2.4,3.4-2.4
			c2,0,3.4,1,3.4,2.4v0c0,1-0.7,1.7-1.8,2v0c1.2,0.2,2.1,1.1,2.1,2.3v0c0,1.6-1.5,2.7-3.7,2.7S218.7,156.9,218.7,155.4z
			 M224.1,155.2L224.1,155.2c0-0.8-0.7-1.4-1.7-1.4s-1.7,0.6-1.7,1.4v0c0,0.8,0.7,1.4,1.7,1.4C223.4,156.6,224.1,156,224.1,155.2z
			 M223.8,151.2L223.8,151.2c0-0.7-0.6-1.2-1.5-1.2s-1.5,0.5-1.5,1.2v0c0,0.7,0.6,1.2,1.5,1.2S223.8,151.9,223.8,151.2z"/>
	</g>
	<g class="st1">
		<path class="st2" d="M259.7,153.3L259.7,153.3c0-2.9,1.4-4.7,3.6-4.7c2.2,0,3.6,1.8,3.6,4.7v0c0,2.9-1.4,4.7-3.6,4.7
			C261,158,259.7,156.2,259.7,153.3z M265.2,153.3L265.2,153.3c0-2.1-0.7-3.4-1.9-3.4c-1.2,0-1.9,1.3-1.9,3.4v0
			c0,2.1,0.7,3.4,1.9,3.4C264.5,156.7,265.2,155.4,265.2,153.3z"/>
		<path class="st2" d="M275.2,153.2L275.2,153.2c0,3-1.4,4.8-3.7,4.8c-1.7,0-3-1-3.2-2.4l0-0.1h1.6l0,0.1c0.2,0.6,0.8,1,1.6,1
			c1.6,0,2.2-1.6,2.2-3.4h0c-0.4,0.8-1.3,1.5-2.5,1.5c-1.8,0-3-1.3-3-3v0c0-1.8,1.4-3.2,3.4-3.2C273.5,148.5,275.2,150,275.2,153.2z
			 M273.4,151.7L273.4,151.7c0-1-0.8-1.8-1.8-1.8c-1,0-1.8,0.8-1.8,1.8v0c0,1,0.8,1.8,1.8,1.8C272.6,153.4,273.4,152.7,273.4,151.7z
			"/>
	</g>
	<g class="st1">
		<path class="st2" d="M310.9,150.3L310.9,150.3l-2.4,1.6v-1.5l2.4-1.7h1.6v9.2h-1.6V150.3z"/>
		<path class="st2" d="M314.6,153.3L314.6,153.3c0-2.9,1.4-4.7,3.6-4.7c2.2,0,3.6,1.8,3.6,4.7v0c0,2.9-1.4,4.7-3.6,4.7
			C315.9,158,314.6,156.2,314.6,153.3z M320.1,153.3L320.1,153.3c0-2.1-0.7-3.4-1.9-3.4c-1.2,0-1.9,1.3-1.9,3.4v0
			c0,2.1,0.7,3.4,1.9,3.4C319.4,156.7,320.1,155.4,320.1,153.3z"/>
	</g>
	<g class="st1">
		<path class="st2" d="M364.8,150.3L364.8,150.3l-2.4,1.6v-1.5l2.4-1.7h1.6v9.2h-1.6V150.3z"/>
		<path class="st2" d="M370.9,150.3L370.9,150.3l-2.4,1.6v-1.5l2.4-1.7h1.6v9.2h-1.6V150.3z"/>
	</g>
	<g class="st1">
		<path class="st2" d="M48,185.9L48,185.9l-2.4,1.6v-1.5l2.4-1.7h1.6v9.2H48V185.9z"/>
		<path class="st2" d="M51.8,192.4l3.2-3.2c1.2-1.2,1.5-1.6,1.5-2.3v0c0-0.8-0.6-1.4-1.5-1.4c-1,0-1.7,0.7-1.7,1.6v0h-1.5v0
			c0-1.7,1.4-2.9,3.3-2.9c1.8,0,3.1,1.1,3.1,2.6v0c0,1.1-0.5,1.8-2.1,3.4l-2,1.9v0.1h4.3v1.3h-6.4V192.4z"/>
	</g>
	<g class="st1">
		<path class="st2" d="M102.6,185.9L102.6,185.9l-2.4,1.6v-1.5l2.4-1.7h1.6v9.2h-1.6V185.9z"/>
		<path class="st2" d="M106.2,191.1L106.2,191.1l1.6-0.1l0,0.1c0.1,0.7,0.8,1.3,1.9,1.3c1.1,0,1.8-0.6,1.8-1.4v0
			c0-1-0.7-1.5-1.9-1.5h-1.1v-1.2h1c1,0,1.7-0.6,1.7-1.4v0c0-0.8-0.6-1.3-1.5-1.3c-1,0-1.6,0.5-1.7,1.3l0,0.1h-1.5l0-0.1
			c0.1-1.5,1.4-2.6,3.2-2.6c1.9,0,3.1,1,3.1,2.4v0c0,1.1-0.8,1.9-1.9,2.1v0c1.4,0.1,2.2,0.9,2.2,2.2v0c0,1.6-1.4,2.7-3.4,2.7
			C107.7,193.7,106.4,192.6,106.2,191.1z"/>
	</g>
	<g class="st1">
		<path class="st2" d="M158,185.9L158,185.9l-2.4,1.6v-1.5l2.4-1.7h1.6v9.2H158V185.9z"/>
		<path class="st2" d="M166.1,191.8h-4.6v-1.4l3.8-6h2.3v6.1h1.2v1.3h-1.2v1.8h-1.6V191.8z M166.1,190.5v-4.9h0l-3.1,4.8v0H166.1z"
			/>
	</g>
	<g class="st1">
		<path class="st2" d="M214.1,185.9L214.1,185.9l-2.4,1.6v-1.5l2.4-1.7h1.6v9.2h-1.6V185.9z"/>
		<path class="st2" d="M217.9,191L217.9,191l1.5-0.1l0,0c0.1,0.8,0.8,1.4,1.8,1.4c1.1,0,1.8-0.8,1.8-1.8v0c0-1-0.8-1.8-1.8-1.8
			c-0.5,0-1,0.2-1.3,0.5c-0.2,0.1-0.3,0.3-0.4,0.5h-1.4l0.4-5.3h5.6v1.3h-4.3l-0.3,2.8h0c0.4-0.6,1.2-1,2.1-1c1.7,0,3,1.3,3,3v0
			c0,1.9-1.4,3.2-3.4,3.2C219.3,193.7,218,192.6,217.9,191z"/>
	</g>
	<g class="st1">
		<path class="st2" d="M262.9,185.9L262.9,185.9l-2.4,1.6v-1.5l2.4-1.7h1.6v9.2h-1.6V185.9z"/>
		<path class="st2" d="M266.5,189.1L266.5,189.1c0-3,1.4-4.8,3.7-4.8c1.7,0,3,1,3.2,2.4l0,0.1h-1.6l0-0.1c-0.2-0.6-0.8-1-1.6-1
			c-1.6,0-2.2,1.6-2.2,3.4h0c0.4-0.8,1.3-1.5,2.5-1.5c1.8,0,3,1.3,3,3v0c0,1.8-1.4,3.2-3.4,3.2C268.2,193.7,266.5,192.3,266.5,189.1
			z M270.2,192.4c1,0,1.8-0.8,1.8-1.8v0c0-1-0.8-1.8-1.8-1.8c-1,0-1.8,0.7-1.8,1.8v0C268.3,191.6,269.1,192.4,270.2,192.4z"/>
	</g>
	<g class="st1">
		<path class="st2" d="M311.7,185.9L311.7,185.9l-2.4,1.6v-1.5l2.4-1.7h1.6v9.2h-1.6V185.9z"/>
		<path class="st2" d="M319.9,185.8L319.9,185.8l-4.8,0v-1.3h6.4v1.4l-3.9,7.8h-1.7L319.9,185.8z"/>
	</g>
	<g class="st1">
		<path class="st2" d="M364.1,185.9L364.1,185.9l-2.4,1.6v-1.5l2.4-1.7h1.6v9.2h-1.6V185.9z"/>
		<path class="st2" d="M367.7,191L367.7,191c0-1.2,0.8-2.1,2.1-2.3v0c-1-0.3-1.7-1-1.7-2v0c0-1.4,1.3-2.4,3.2-2.4
			c1.9,0,3.2,1,3.2,2.4v0c0,1-0.7,1.7-1.7,2v0c1.2,0.2,2.1,1.1,2.1,2.3v0c0,1.6-1.5,2.7-3.6,2.7S367.7,192.6,367.7,191z
			 M373.2,190.9L373.2,190.9c0-0.9-0.8-1.5-1.9-1.5s-1.9,0.6-1.9,1.5v0c0,0.9,0.8,1.5,1.9,1.5C372.4,192.5,373.2,191.8,373.2,190.9z
			 M372.9,186.8L372.9,186.8c0-0.8-0.7-1.4-1.6-1.4c-0.9,0-1.6,0.6-1.6,1.3v0c0,0.8,0.7,1.3,1.6,1.3S372.9,187.6,372.9,186.8z"/>
	</g>
	<g class="st1">
		<path class="st2" d="M48,221.6L48,221.6l-2.4,1.6v-1.5l2.4-1.7h1.6v9.2H48V221.6z"/>
		<path class="st2" d="M58.8,224.5L58.8,224.5c0,3-1.4,4.8-3.7,4.8c-1.7,0-3-1-3.2-2.4l0-0.1h1.6l0,0.1c0.2,0.6,0.8,1,1.6,1
			c1.6,0,2.2-1.6,2.2-3.4h0c-0.4,0.8-1.3,1.5-2.5,1.5c-1.8,0-3-1.3-3-3v0c0-1.8,1.4-3.2,3.4-3.2C57.2,219.9,58.8,221.3,58.8,224.5z
			 M57,223.1L57,223.1c0-1-0.8-1.8-1.8-1.8c-1,0-1.8,0.8-1.8,1.8v0c0,1,0.8,1.8,1.8,1.8C56.2,224.8,57,224.1,57,223.1z"/>
	</g>
	<g class="st1">
		<path class="st2" d="M99.6,228.1l3.2-3.2c1.2-1.2,1.5-1.6,1.5-2.3v0c0-0.8-0.6-1.4-1.5-1.4c-1,0-1.7,0.7-1.7,1.6v0h-1.5v0
			c0-1.7,1.4-2.9,3.3-2.9c1.8,0,3.1,1.1,3.1,2.6v0c0,1.1-0.5,1.8-2.1,3.4l-2,1.9v0.1h4.3v1.3h-6.4V228.1z"/>
		<path class="st2" d="M107.1,224.7L107.1,224.7c0-2.9,1.4-4.7,3.6-4.7c2.2,0,3.6,1.8,3.6,4.7v0c0,2.9-1.4,4.7-3.6,4.7
			C108.5,229.4,107.1,227.6,107.1,224.7z M112.7,224.7L112.7,224.7c0-2.1-0.7-3.4-1.9-3.4c-1.2,0-1.9,1.3-1.9,3.4v0
			c0,2.1,0.7,3.4,1.9,3.4C111.9,228,112.7,226.8,112.7,224.7z"/>
	</g>
	<g class="st1">
		<path class="st2" d="M155.7,228.1l3.2-3.2c1.2-1.2,1.5-1.6,1.5-2.3v0c0-0.8-0.6-1.4-1.5-1.4c-1,0-1.7,0.7-1.7,1.6v0h-1.5v0
			c0-1.7,1.4-2.9,3.3-2.9c1.8,0,3.1,1.1,3.1,2.6v0c0,1.1-0.5,1.8-2.1,3.4l-2,1.9v0.1h4.3v1.3h-6.4V228.1z"/>
		<path class="st2" d="M165.7,221.6L165.7,221.6l-2.4,1.6v-1.5l2.4-1.7h1.6v9.2h-1.6V221.6z"/>
	</g>
	<g class="st1">
		<path class="st2" d="M211,228.1l3.2-3.2c1.2-1.2,1.5-1.6,1.5-2.3v0c0-0.8-0.6-1.4-1.5-1.4c-1,0-1.7,0.7-1.7,1.6v0h-1.5v0
			c0-1.7,1.4-2.9,3.3-2.9c1.8,0,3.1,1.1,3.1,2.6v0c0,1.1-0.5,1.8-2.1,3.4l-2,1.9v0.1h4.3v1.3H211V228.1z"/>
		<path class="st2" d="M218.7,228.1l3.2-3.2c1.2-1.2,1.5-1.6,1.5-2.3v0c0-0.8-0.6-1.4-1.5-1.4c-1,0-1.7,0.7-1.7,1.6v0h-1.5v0
			c0-1.7,1.4-2.9,3.3-2.9c1.8,0,3.1,1.1,3.1,2.6v0c0,1.1-0.5,1.8-2.1,3.4l-2,1.9v0.1h4.3v1.3h-6.4V228.1z"/>
	</g>
	<g class="st1">
		<path class="st2" d="M259.8,228.1l3.2-3.2c1.2-1.2,1.5-1.6,1.5-2.3v0c0-0.8-0.6-1.4-1.5-1.4c-1,0-1.7,0.7-1.7,1.6v0h-1.5v0
			c0-1.7,1.4-2.9,3.3-2.9c1.8,0,3.1,1.1,3.1,2.6v0c0,1.1-0.5,1.8-2.1,3.4l-2,1.9v0.1h4.3v1.3h-6.4V228.1z"/>
		<path class="st2" d="M267.3,226.8L267.3,226.8l1.6-0.1l0,0.1c0.1,0.7,0.8,1.3,1.9,1.3c1.1,0,1.8-0.6,1.8-1.4v0
			c0-1-0.7-1.5-1.9-1.5h-1.1v-1.2h1c1,0,1.7-0.6,1.7-1.4v0c0-0.8-0.6-1.3-1.5-1.3c-1,0-1.6,0.5-1.7,1.3l0,0.1h-1.5l0-0.1
			c0.1-1.5,1.4-2.6,3.2-2.6c1.9,0,3.1,1,3.1,2.4v0c0,1.1-0.8,1.9-1.9,2.1v0c1.4,0.1,2.2,0.9,2.2,2.2v0c0,1.6-1.4,2.7-3.4,2.7
			C268.8,229.4,267.5,228.3,267.3,226.8z"/>
	</g>
	<g class="st1">
		<path class="st2" d="M307.9,228.1l3.2-3.2c1.2-1.2,1.5-1.6,1.5-2.3v0c0-0.8-0.6-1.4-1.5-1.4c-1,0-1.7,0.7-1.7,1.6v0h-1.5v0
			c0-1.7,1.4-2.9,3.3-2.9c1.8,0,3.1,1.1,3.1,2.6v0c0,1.1-0.5,1.8-2.1,3.4l-2,1.9v0.1h4.3v1.3h-6.4V228.1z"/>
		<path class="st2" d="M319.7,227.5h-4.6v-1.4l3.8-6h2.3v6.1h1.2v1.3h-1.2v1.8h-1.6V227.5z M319.7,226.2v-4.9h0l-3.1,4.8v0H319.7z"
			/>
	</g>
	<g class="st1">
		<path class="st2" d="M361.1,228.1l3.2-3.2c1.2-1.2,1.5-1.6,1.5-2.3v0c0-0.8-0.6-1.4-1.5-1.4c-1,0-1.7,0.7-1.7,1.6v0H361v0
			c0-1.7,1.4-2.9,3.3-2.9c1.8,0,3.1,1.1,3.1,2.6v0c0,1.1-0.5,1.8-2.1,3.4l-2,1.9v0.1h4.3v1.3h-6.4V228.1z"/>
		<path class="st2" d="M368.8,226.7L368.8,226.7l1.5-0.1l0,0c0.1,0.8,0.8,1.4,1.8,1.4c1.1,0,1.8-0.8,1.8-1.8v0c0-1-0.8-1.8-1.8-1.8
			c-0.5,0-1,0.2-1.3,0.4c-0.2,0.1-0.3,0.3-0.4,0.5H369l0.4-5.3h5.6v1.3h-4.3l-0.3,2.8h0c0.4-0.6,1.2-1,2.1-1c1.7,0,3,1.3,3,3v0
			c0,1.9-1.4,3.2-3.4,3.2C370.2,229.4,368.9,228.3,368.8,226.7z"/>
	</g>
	<ellipse id="Ellipse_173" class="st6" cx="99.6" cy="204.4" rx="2.9" ry="2.9"/>
	<ellipse id="Ellipse_174" class="st7" cx="107.7" cy="204.4" rx="2.9" ry="2.9"/>
	<ellipse id="Ellipse_175" class="st8" cx="115.7" cy="204.4" rx="2.9" ry="2.9"/>
	<ellipse id="Ellipse_176" class="st7" cx="219.1" cy="204.4" rx="2.9" ry="2.9"/>
	<ellipse id="Ellipse_181" class="st9" cx="163" cy="168.7" rx="2.9" ry="2.9"/>
	<ellipse id="Ellipse_182" class="st9" cx="316" cy="168.7" rx="2.9" ry="2.9"/>
	<ellipse id="Ellipse_185" class="st8" cx="53" cy="168.7" rx="2.9" ry="2.9"/>
	<ellipse id="Ellipse_193" class="st9" cx="271.5" cy="133" rx="2.9" ry="2.9"/>
	<ellipse id="Ellipse_194" class="st6" cx="264.3" cy="133" rx="2.9" ry="2.9"/>
	<ellipse id="Ellipse_197" class="st10" cx="308" cy="133" rx="2.9" ry="2.9"/>
	<ellipse id="Ellipse_198" class="st9" cx="316" cy="133" rx="2.9" ry="2.9"/>
	<ellipse id="Ellipse_199" class="st7" cx="324" cy="133" rx="2.9" ry="2.9"/>
	<rect id="Rectangle_1524" y="230" class="st0" width="419" height="14"/>
</g>
</svg>
