<?xml version="1.0" encoding="utf-8"?>
<!-- Generator: Adobe Illustrator 26.0.0, SVG Export Plug-In . SVG Version: 6.00 Build 0)  -->
<svg version="1.1" id="Layer_1" xmlns="http://www.w3.org/2000/svg" xmlns:xlink="http://www.w3.org/1999/xlink" x="0px" y="0px"
	 viewBox="0 0 535 233" style="enable-background:new 0 0 535 233;" xml:space="preserve">
<style type="text/css">
	.st0{fill:#FFFFFF;}
	.st1{fill:#EDEDF3;}
	.st2{fill:none;stroke:#E3E4E8;stroke-width:1.3;}
	.st3{enable-background:new    ;}
	.st4{fill:#A5A5B2;}
	.st5{fill:#7C7C83;}
	.st6{fill:none;stroke:#FFFFFF;stroke-linecap:round;stroke-linejoin:round;}
	.st7{fill:#4A4A55;}
	.st8{fill:#E6EDFF;}
	.st9{fill:none;stroke:#5786FC;stroke-width:1.3;}
</style>
<g>
	<path id="Rectangle_1458" class="st0" d="M8,0h527l0,0v233l0,0H0l0,0V8C0,3.6,3.6,0,8,0z"/>
	<path id="Rectangle_1481" class="st1" d="M8,0h520l0,0v41l0,0H0l0,0V8C0,3.6,3.6,0,8,0z"/>
	<line id="Line_4" class="st2" x1="153" y1="0.5" x2="153" y2="230.5"/>
	<line id="Line_5" class="st2" x1="0" y1="41" x2="528" y2="41"/>
	<g class="st3">
		<path class="st4" d="M44.2,19.8c-0.2-1-0.9-1.7-2-1.7c-1.5,0-2.4,1.1-2.4,3.1c0,2,1,3.1,2.4,3.1c1.1,0,1.9-0.6,2.1-1.6l2,0
			c-0.2,1.7-1.7,3.4-4.1,3.4c-2.5,0-4.4-1.8-4.4-4.9c0-3.1,1.9-4.9,4.4-4.9c2.2,0,3.8,1.3,4.1,3.4H44.2z"/>
		<path class="st4" d="M47,22.5c0-2.2,1.3-3.7,3.5-3.7s3.5,1.5,3.5,3.7c0,2.2-1.3,3.7-3.5,3.7S47,24.7,47,22.5z M52,22.5
			c0-1.2-0.5-2.2-1.5-2.2c-1,0-1.5,0.9-1.5,2.2s0.5,2.2,1.5,2.2C51.5,24.6,52,23.7,52,22.5z"/>
		<path class="st4" d="M59.6,18.9h2V26h-1.9v-1.3h-0.1c-0.3,0.8-1.1,1.4-2.2,1.4c-1.4,0-2.4-1-2.4-2.7v-4.5h2v4.2
			c0,0.8,0.5,1.4,1.2,1.4c0.7,0,1.4-0.5,1.4-1.5V18.9z"/>
		<path class="st4" d="M64.8,26h-2v-7.1h1.9v1.3h0.1c0.3-0.8,1.1-1.3,2.1-1.3c1.5,0,2.5,1,2.5,2.7V26h-2v-4.2c0-0.9-0.5-1.4-1.3-1.4
			c-0.8,0-1.3,0.5-1.3,1.5V26z"/>
		<path class="st4" d="M74.4,20.4h-1.3v3.4c0,0.5,0.3,0.7,0.7,0.7c0.2,0,0.4,0,0.5-0.1l0.3,1.5c-0.2,0.1-0.6,0.2-1.1,0.2
			c-1.4,0.1-2.4-0.6-2.4-2v-3.7h-1v-1.5h1v-1.7h2v1.7h1.3V20.4z"/>
		<path class="st4" d="M75.5,18.9h1.9v1.2h0.1c0.3-0.9,0.9-1.3,1.7-1.3c0.2,0,0.4,0,0.6,0.1v1.7c-0.2-0.1-0.6-0.1-0.8-0.1
			c-0.9,0-1.5,0.6-1.5,1.5v4h-2V18.9z"/>
		<path class="st4" d="M80.7,28.5l0.4-1.5c0.7,0.2,1.2,0.2,1.4-0.5l0.1-0.3l-2.5-7.3h2.1l1.5,5.2h0.1l1.5-5.2h2.1l-2.8,7.9
			c-0.4,1.1-1.2,1.9-2.6,1.9C81.5,28.7,81,28.6,80.7,28.5z"/>
	</g>
	<path id="Rectangle_1482" class="st5" d="M18,13h10c1.7,0,3,1.3,3,3v10c0,1.7-1.3,3-3,3H18c-1.7,0-3-1.3-3-3V16
		C15,14.3,16.3,13,18,13z"/>
	<path id="Path_658" class="st6" d="M28.1,21c0,2.8-2.3,5.1-5.1,5.1c-2.8,0-5.1-2.3-5.1-5.1s2.3-5.1,5.1-5.1c0,0,0,0,0,0
		C25.8,15.9,28.1,18.2,28.1,21L28.1,21L28.1,21z"/>
	<path id="Path_659" class="st6" d="M17.9,21h10.1"/>
	<path id="Path_660" class="st6" d="M23,15.9c1.3,1.4,2,3.2,2,5.1c0,1.9-0.8,3.7-2,5.1c-1.3-1.4-2-3.2-2-5.1
		C21,19.1,21.7,17.3,23,15.9z"/>
	<g class="st3">
		<path class="st7" d="M190.8,24.6l3.4-3.1c0.9-0.8,1.3-1.3,1.3-2.1c0-0.8-0.6-1.4-1.5-1.4c-0.9,0-1.4,0.6-1.4,1.5h-1.9
			c0-1.9,1.4-3,3.3-3c2,0,3.4,1.2,3.4,2.8c0,1.1-0.5,2-2.5,3.7l-1.4,1.4v0.1h4V26h-6.8V24.6z"/>
		<path class="st7" d="M198.6,21.3c0-3.1,1.4-4.9,3.8-4.9c2.4,0,3.8,1.8,3.8,4.9c0,3.1-1.4,4.9-3.8,4.9
			C200,26.2,198.6,24.4,198.6,21.3z M204.2,21.3c0-2.1-0.7-3.2-1.8-3.2c-1.1,0-1.8,1.1-1.8,3.2c0,2.2,0.7,3.3,1.8,3.3
			C203.5,24.5,204.2,23.5,204.2,21.3z"/>
		<path class="st7" d="M207.4,24.6l3.4-3.1c0.9-0.8,1.3-1.3,1.3-2.1c0-0.8-0.6-1.4-1.5-1.4c-0.9,0-1.4,0.6-1.4,1.5h-1.9
			c0-1.9,1.4-3,3.3-3c2,0,3.4,1.2,3.4,2.8c0,1.1-0.5,2-2.5,3.7l-1.4,1.4v0.1h4V26h-6.8V24.6z"/>
		<path class="st7" d="M219.4,26h-2v-7.6h-0.1l-2.2,1.4V18l2.3-1.5h1.9V26z"/>
		<path class="st7" d="M223.2,16.5l2.2,4.1h0.1l2.2-4.1h2.2l-3.5,6.1V26h-2v-3.3l-3.5-6.1H223.2z"/>
	</g>
	<path id="Rectangle_1483" class="st7" d="M171,13h10c1.7,0,3,1.3,3,3v10c0,1.7-1.3,3-3,3h-10c-1.7,0-3-1.3-3-3V16
		C168,14.3,169.3,13,171,13z"/>
	<line id="Line_7" class="st2" x1="306" y1="0.5" x2="306" y2="230.5"/>
	<g class="st3">
		<path class="st4" d="M343.5,16.5h7.8v1.7h-2.9V26h-2v-7.8h-2.9V16.5z"/>
		<path class="st4" d="M351.5,18.9h1.9v1.2h0.1c0.3-0.9,0.9-1.3,1.7-1.3c0.2,0,0.4,0,0.6,0.1v1.7c-0.2-0.1-0.6-0.1-0.8-0.1
			c-0.9,0-1.5,0.6-1.5,1.5v4h-2V18.9z"/>
		<path class="st4" d="M356,24c0-1.6,1.3-2.1,2.7-2.2c1.2-0.1,1.7-0.2,1.7-0.6v0c0-0.6-0.4-0.9-1.1-0.9c-0.7,0-1.1,0.3-1.3,0.8
			l-1.8-0.1c0.3-1.3,1.4-2.1,3.1-2.1c1.6,0,3,0.7,3,2.4V26h-1.9v-1h-0.1c-0.3,0.7-1,1.1-2.1,1.1C357,26.1,356,25.4,356,24z
			 M360.4,23.5v-0.8c-0.2,0.2-0.9,0.3-1.4,0.3c-0.7,0.1-1.2,0.4-1.2,0.9c0,0.5,0.4,0.8,1,0.8C359.8,24.8,360.4,24.2,360.4,23.5z"/>
		<path class="st4" d="M363.4,22.5c0-2.4,1.3-3.7,2.9-3.7c1.2,0,1.8,0.7,2,1.3h0.1v-3.6h2V26h-1.9v-1.1h-0.1c-0.3,0.6-0.9,1.3-2,1.3
			C364.6,26.1,363.4,24.8,363.4,22.5z M368.3,22.4c0-1.3-0.5-2.1-1.5-2.1c-1,0-1.5,0.8-1.5,2.1c0,1.2,0.5,2.1,1.5,2.1
			C367.8,24.5,368.3,23.7,368.3,22.4z"/>
		<path class="st4" d="M371.3,22.5c0-2.2,1.4-3.7,3.4-3.7c1.9,0,3.3,1.2,3.3,3.6V23h-4.8v0c0,1.1,0.6,1.7,1.6,1.7
			c0.7,0,1.2-0.3,1.4-0.8l1.8,0.1c-0.3,1.3-1.5,2.2-3.2,2.2C372.7,26.1,371.3,24.7,371.3,22.5z M376.3,21.7c0-0.8-0.6-1.5-1.5-1.5
			c-0.9,0-1.5,0.6-1.5,1.5H376.3z"/>
		<path class="st4" d="M384.2,16.4h1.9c-1,1.2-1.7,3.7-1.7,5.8c0,2.2,0.7,4.6,1.7,5.9h-1.9c-1.3-1.6-1.9-3.6-1.9-5.9
			S382.9,18,384.2,16.4z"/>
		<path class="st4" d="M394.8,16.5v6.1c0,2.1-1.6,3.5-3.9,3.5c-2.4,0-3.9-1.4-3.9-3.5v-6.1h2v6c0,1.1,0.8,1.9,1.9,1.9
			c1.2,0,1.9-0.8,1.9-1.9v-6H394.8z"/>
		<path class="st4" d="M399.7,18.1c-1,0-1.5,0.4-1.5,1.1c0,0.7,0.7,1,1.5,1.2l0.9,0.2c1.6,0.4,2.8,1.2,2.8,2.8
			c0,1.7-1.4,2.8-3.7,2.8c-2.3,0-3.8-1.1-3.8-3.1h1.9c0.1,0.9,0.8,1.4,1.9,1.4c1,0,1.7-0.5,1.7-1.2c0-0.6-0.6-0.9-1.6-1.2l-1-0.3
			c-1.6-0.4-2.6-1.2-2.6-2.6c0-1.7,1.5-2.9,3.6-2.9c2.1,0,3.5,1.2,3.5,2.9h-1.9C401.3,18.5,400.7,18.1,399.7,18.1z"/>
		<path class="st4" d="M404.4,26v-9.5h3.4c2.9,0,4.6,1.8,4.6,4.7c0,3-1.7,4.7-4.6,4.7H404.4z M407.7,24.3c1.8,0,2.7-0.9,2.7-3
			c0-2.1-0.9-3-2.7-3h-1.3v6H407.7z"/>
		<path class="st4" d="M415.1,28.1h-1.9c1-1.2,1.7-3.7,1.7-5.8c0-2.2-0.7-4.6-1.7-5.9h1.9c1.3,1.6,1.9,3.6,1.9,5.9
			S416.3,26.4,415.1,28.1z"/>
	</g>
	<path id="Rectangle_1484" class="st5" d="M324,13h10c1.7,0,3,1.3,3,3v10c0,1.7-1.3,3-3,3h-10c-1.7,0-3-1.3-3-3V16
		C321,14.3,322.3,13,324,13z"/>
	<line id="Line_8" class="st2" x1="459" y1="0.5" x2="459" y2="230.5"/>
	<g class="st3">
		<path class="st4" d="M496.8,16.5h6.3v1.7h-4.3v2.3h3.9v1.7h-3.9V26h-2V16.5z"/>
		<path class="st4" d="M506.1,26h-2v-9.5h2V26z"/>
		<path class="st4" d="M507.1,22.5c0-2.2,1.3-3.7,3.5-3.7s3.5,1.5,3.5,3.7c0,2.2-1.3,3.7-3.5,3.7S507.1,24.7,507.1,22.5z
			 M512.1,22.5c0-1.2-0.5-2.2-1.5-2.2c-1,0-1.5,0.9-1.5,2.2s0.5,2.2,1.5,2.2C511.6,24.6,512.1,23.7,512.1,22.5z"/>
		<path class="st4" d="M514.4,18.9h2l1.1,4.8h0.1l1.1-4.8h2l1.2,4.7h0.1l1.1-4.7h2L523,26H521l-1.2-4.5h-0.1l-1.2,4.5h-2.1
			L514.4,18.9z"/>
	</g>
	<path id="Rectangle_1485" class="st5" d="M477,13h10c1.7,0,3,1.3,3,3v10c0,1.7-1.3,3-3,3h-10c-1.7,0-3-1.3-3-3V16
		C474,14.3,475.3,13,477,13z"/>
	<path id="Icon_ionic-md-calendar" class="st0" d="M178.7,21.4h-2.3v2.3h2.3V21.4z M177.9,16.4v0.8h-3.9v-0.8h-1.2v0.8h-0.6
		c-0.5,0-1,0.4-1,1v6.6c0,0.5,0.4,1,1,1h7.3c0.5,0,1-0.4,1-1v-6.6c0-0.5-0.4-1-1-1h-0.6v-0.8H177.9z M179.7,24.7h-7.3v-5.1h7.3V24.7
		z"/>
	<path id="Icon_ionic-md-arrow-dropdown" class="st7" d="M235,22.8l3.2,3.2l3.2-3.2H235z"/>
	<path id="Icon_ionic-md-arrow-dropdown-2" class="st7" d="M241.5,20.7l-3.2-3.2l-3.2,3.2H241.5z"/>
	<line id="Line_9" class="st2" x1="0" y1="86" x2="528" y2="86"/>
	<line id="Line_10" class="st2" x1="0" y1="131" x2="528" y2="131"/>
	<line id="Line_11" class="st2" x1="0" y1="176" x2="528" y2="176"/>
	<line id="Line_12" class="st2" x1="0" y1="221" x2="528" y2="221"/>
	<g id="Rectangle_1486" transform="translate(153 86)">
		<rect class="st8" width="153" height="45"/>
		<rect x="0.6" y="0.6" class="st9" width="151.7" height="43.7"/>
	</g>
	<g class="st3">
		<path class="st7" d="M168.8,67.8l3.3-3.2c0.9-0.9,1.4-1.5,1.4-2.3c0-0.9-0.7-1.4-1.6-1.4c-0.9,0-1.6,0.6-1.6,1.6h-1.6
			c0-1.8,1.3-3,3.2-3c1.9,0,3.2,1.2,3.2,2.7c0,1.1-0.5,1.9-2.3,3.7l-1.6,1.7v0.1h4.1V69h-6.5V67.8z"/>
		<path class="st7" d="M176.5,64.3c0-3.1,1.4-4.9,3.6-4.9c2.3,0,3.6,1.8,3.6,4.9c0,3.1-1.4,4.9-3.6,4.9
			C177.9,69.2,176.5,67.4,176.5,64.3z M182.1,64.3c0-2.3-0.7-3.4-1.9-3.4c-1.2,0-1.9,1.2-1.9,3.4c0,2.3,0.7,3.5,1.9,3.5
			C181.3,67.7,182.1,66.6,182.1,64.3z"/>
		<path class="st7" d="M185.1,67.8l3.3-3.2c0.9-0.9,1.4-1.5,1.4-2.3c0-0.9-0.7-1.4-1.6-1.4c-0.9,0-1.6,0.6-1.6,1.6H185
			c0-1.8,1.3-3,3.2-3c1.9,0,3.2,1.2,3.2,2.7c0,1.1-0.5,1.9-2.3,3.7l-1.6,1.7v0.1h4.1V69h-6.5V67.8z"/>
		<path class="st7" d="M196.7,69H195v-7.8H195l-2.2,1.4V61l2.4-1.5h1.6V69z"/>
	</g>
	<g class="st3">
		<path class="st7" d="M168.8,111.8l3.3-3.2c0.9-0.9,1.4-1.5,1.4-2.3c0-0.9-0.7-1.4-1.6-1.4c-0.9,0-1.6,0.6-1.6,1.6h-1.6
			c0-1.8,1.3-3,3.2-3c1.9,0,3.2,1.2,3.2,2.7c0,1.1-0.5,1.9-2.3,3.7l-1.6,1.7v0.1h4.1v1.4h-6.5V111.8z"/>
		<path class="st7" d="M176.5,108.3c0-3.1,1.4-4.9,3.6-4.9c2.3,0,3.6,1.8,3.6,4.9c0,3.1-1.4,4.9-3.6,4.9
			C177.9,113.2,176.5,111.4,176.5,108.3z M182.1,108.3c0-2.3-0.7-3.4-1.9-3.4c-1.2,0-1.9,1.2-1.9,3.4c0,2.3,0.7,3.5,1.9,3.5
			C181.3,111.7,182.1,110.6,182.1,108.3z"/>
		<path class="st7" d="M185.1,111.8l3.3-3.2c0.9-0.9,1.4-1.5,1.4-2.3c0-0.9-0.7-1.4-1.6-1.4c-0.9,0-1.6,0.6-1.6,1.6H185
			c0-1.8,1.3-3,3.2-3c1.9,0,3.2,1.2,3.2,2.7c0,1.1-0.5,1.9-2.3,3.7l-1.6,1.7v0.1h4.1v1.4h-6.5V111.8z"/>
		<path class="st7" d="M196.7,113H195v-7.8H195l-2.2,1.4V105l2.4-1.5h1.6V113z"/>
	</g>
	<g class="st3">
		<path class="st7" d="M168.8,156.8l3.3-3.2c0.9-0.9,1.4-1.5,1.4-2.3c0-0.9-0.7-1.4-1.6-1.4c-0.9,0-1.6,0.6-1.6,1.6h-1.6
			c0-1.8,1.3-3,3.2-3c1.9,0,3.2,1.2,3.2,2.7c0,1.1-0.5,1.9-2.3,3.7l-1.6,1.7v0.1h4.1v1.4h-6.5V156.8z"/>
		<path class="st7" d="M176.5,153.3c0-3.1,1.4-4.9,3.6-4.9c2.3,0,3.6,1.8,3.6,4.9c0,3.1-1.4,4.9-3.6,4.9
			C177.9,158.2,176.5,156.4,176.5,153.3z M182.1,153.3c0-2.3-0.7-3.4-1.9-3.4c-1.2,0-1.9,1.2-1.9,3.4c0,2.3,0.7,3.5,1.9,3.5
			C181.3,156.7,182.1,155.6,182.1,153.3z"/>
		<path class="st7" d="M185.1,156.8l3.3-3.2c0.9-0.9,1.4-1.5,1.4-2.3c0-0.9-0.7-1.4-1.6-1.4c-0.9,0-1.6,0.6-1.6,1.6H185
			c0-1.8,1.3-3,3.2-3c1.9,0,3.2,1.2,3.2,2.7c0,1.1-0.5,1.9-2.3,3.7l-1.6,1.7v0.1h4.1v1.4h-6.5V156.8z"/>
		<path class="st7" d="M196.7,158H195v-7.8H195l-2.2,1.4V150l2.4-1.5h1.6V158z"/>
	</g>
	<g class="st3">
		<path class="st7" d="M168.8,201.8l3.3-3.2c0.9-0.9,1.4-1.5,1.4-2.3c0-0.9-0.7-1.4-1.6-1.4c-0.9,0-1.6,0.6-1.6,1.6h-1.6
			c0-1.8,1.3-3,3.2-3c1.9,0,3.2,1.2,3.2,2.7c0,1.1-0.5,1.9-2.3,3.7l-1.6,1.7v0.1h4.1v1.4h-6.5V201.8z"/>
		<path class="st7" d="M176.5,198.3c0-3.1,1.4-4.9,3.6-4.9c2.3,0,3.6,1.8,3.6,4.9c0,3.1-1.4,4.9-3.6,4.9
			C177.9,203.2,176.5,201.4,176.5,198.3z M182.1,198.3c0-2.3-0.7-3.4-1.9-3.4c-1.2,0-1.9,1.2-1.9,3.4c0,2.3,0.7,3.5,1.9,3.5
			C181.3,201.7,182.1,200.6,182.1,198.3z"/>
		<path class="st7" d="M185.1,201.8l3.3-3.2c0.9-0.9,1.4-1.5,1.4-2.3c0-0.9-0.7-1.4-1.6-1.4c-0.9,0-1.6,0.6-1.6,1.6H185
			c0-1.8,1.3-3,3.2-3c1.9,0,3.2,1.2,3.2,2.7c0,1.1-0.5,1.9-2.3,3.7l-1.6,1.7v0.1h4.1v1.4h-6.5V201.8z"/>
		<path class="st7" d="M196.7,203H195v-7.8H195l-2.2,1.4V195l2.4-1.5h1.6V203z"/>
	</g>
	<g class="st3">
		<path class="st7" d="M15.3,69l3.3-9.5h2.1l3.3,9.5h-1.8l-0.8-2.3h-3.6L17.2,69H15.3z M21,65.3l-1.3-3.8h-0.1l-1.3,3.8H21z"/>
		<path class="st7" d="M28.5,63.2H27V69h-1.7v-5.8h-1v-1.3h1v-0.7c0-1.4,1-2.1,2.2-2.1c0.6,0,1.1,0.1,1.3,0.2l-0.3,1.3
			c-0.1,0-0.4-0.1-0.6-0.1c-0.6,0-0.9,0.3-0.9,0.9v0.6h1.5V63.2z"/>
		<path class="st7" d="M29.2,70l1.5-0.4c0.2,0.4,0.6,0.9,1.7,0.9c1,0,1.6-0.4,1.6-1.5v-1.3H34c-0.3,0.5-0.8,1.2-2,1.2
			c-1.6,0-2.9-1.2-2.9-3.5c0-2.3,1.3-3.6,2.9-3.6c1.3,0,1.8,0.8,2,1.3h0.1v-1.2h1.7v7.2c0,1.8-1.4,2.7-3.3,2.7
			C30.6,71.8,29.6,71,29.2,70z M34.1,65.4c0-1.3-0.6-2.2-1.7-2.2c-1.1,0-1.7,0.9-1.7,2.2c0,1.3,0.6,2.2,1.7,2.2
			C33.5,67.6,34.1,66.8,34.1,65.4z"/>
		<path class="st7" d="M38.8,69h-1.7v-9.5h1.6v3.6h0.1c0.3-0.8,1-1.3,2.1-1.3c1.5,0,2.4,1,2.4,2.7V69h-1.7v-4.3c0-1-0.5-1.5-1.4-1.5
			c-0.9,0-1.5,0.6-1.5,1.6V69z"/>
		<path class="st7" d="M44.5,67c0-1.6,1.3-2,2.7-2.2c1.3-0.1,1.8-0.2,1.8-0.6v0c0-0.7-0.4-1.1-1.2-1.1c-0.8,0-1.3,0.4-1.5,0.9
			l-1.6-0.2c0.4-1.3,1.5-2,3-2c1.4,0,2.9,0.6,2.9,2.4V69h-1.6v-1H49c-0.3,0.6-1,1.1-2.1,1.1C45.6,69.1,44.5,68.4,44.5,67z M49,66.5
			v-0.8c-0.2,0.2-1.1,0.3-1.5,0.3c-0.7,0.1-1.3,0.4-1.3,1c0,0.6,0.5,0.9,1.2,0.9C48.4,67.9,49,67.2,49,66.5z"/>
		<path class="st7" d="M53.8,69h-1.7v-7.1h1.6v1.2h0.1c0.3-0.8,1.1-1.3,2.1-1.3c1.5,0,2.4,1,2.4,2.7V69h-1.7v-4.3
			c0-0.9-0.5-1.5-1.4-1.5c-0.9,0-1.5,0.6-1.5,1.6V69z"/>
		<path class="st7" d="M59.6,60c0-0.5,0.4-0.9,1-0.9c0.5,0,1,0.4,1,0.9c0,0.5-0.4,0.9-1,0.9C60.1,60.9,59.6,60.5,59.6,60z
			 M59.7,61.9h1.7V69h-1.7V61.9z"/>
		<path class="st7" d="M67,63.9c-0.1-0.5-0.5-0.9-1.3-0.9c-0.7,0-1.2,0.3-1.2,0.8c0,0.4,0.3,0.7,1,0.8l1.2,0.3c1.3,0.3,2,0.9,2,1.9
			c0,1.3-1.3,2.3-3,2.3c-1.7,0-2.8-0.8-3-2.1l1.6-0.2c0.1,0.6,0.6,1,1.4,1c0.8,0,1.3-0.4,1.3-0.9c0-0.4-0.3-0.7-1-0.8L64.8,66
			c-1.4-0.3-2-1-2-2c0-1.3,1.2-2.2,2.9-2.2c1.7,0,2.6,0.8,2.9,2L67,63.9z"/>
		<path class="st7" d="M73.3,63.2h-1.4v3.7c0,0.7,0.3,0.8,0.8,0.8c0.2,0,0.4,0,0.5-0.1l0.3,1.3c-0.2,0.1-0.5,0.2-1,0.2
			c-1.3,0-2.2-0.6-2.2-2v-3.9h-1v-1.3h1v-1.7h1.7v1.7h1.4V63.2z"/>
		<path class="st7" d="M74.1,67c0-1.6,1.3-2,2.7-2.2c1.3-0.1,1.8-0.2,1.8-0.6v0c0-0.7-0.4-1.1-1.2-1.1c-0.8,0-1.3,0.4-1.5,0.9
			l-1.6-0.2c0.4-1.3,1.5-2,3-2c1.4,0,2.9,0.6,2.9,2.4V69h-1.6v-1h-0.1c-0.3,0.6-1,1.1-2.1,1.1C75.1,69.1,74.1,68.4,74.1,67z
			 M78.6,66.5v-0.8c-0.2,0.2-1.1,0.3-1.5,0.3c-0.7,0.1-1.3,0.4-1.3,1c0,0.6,0.5,0.9,1.2,0.9C77.9,67.9,78.6,67.2,78.6,66.5z"/>
		<path class="st7" d="M83.3,69h-1.7v-7.1h1.6v1.2h0.1c0.3-0.8,1.1-1.3,2.1-1.3c1.5,0,2.4,1,2.4,2.7V69h-1.7v-4.3
			c0-0.9-0.5-1.5-1.4-1.5c-0.9,0-1.5,0.6-1.5,1.6V69z"/>
	</g>
	<g class="st3">
		<path class="st7" d="M15.3,113l3.3-9.5h2.1l3.3,9.5h-1.8l-0.8-2.3h-3.6l-0.8,2.3H15.3z M21,109.3l-1.3-3.8h-0.1l-1.3,3.8H21z"/>
		<path class="st7" d="M26.7,113H25v-9.5h1.7V113z"/>
		<path class="st7" d="M28.2,103.5h1.7v3.5H30c0.3-0.5,0.8-1.3,2-1.3c1.6,0,2.9,1.3,2.9,3.7c0,2.3-1.3,3.7-2.9,3.7
			c-1.2,0-1.8-0.7-2-1.2h-0.1v1.1h-1.6V103.5z M31.5,111.8c1.1,0,1.7-1,1.7-2.3c0-1.3-0.6-2.3-1.7-2.3c-1.1,0-1.7,0.9-1.7,2.3
			S30.5,111.8,31.5,111.8z"/>
		<path class="st7" d="M35.7,111c0-1.6,1.3-2,2.7-2.2c1.3-0.1,1.8-0.2,1.8-0.6v0c0-0.7-0.4-1.1-1.2-1.1c-0.8,0-1.3,0.4-1.5,0.9
			l-1.6-0.2c0.4-1.3,1.5-2,3-2c1.4,0,2.9,0.6,2.9,2.4v4.8h-1.6v-1h-0.1c-0.3,0.6-1,1.1-2.1,1.1C36.8,113.1,35.7,112.4,35.7,111z
			 M40.2,110.5v-0.8c-0.2,0.2-1.1,0.3-1.5,0.3c-0.7,0.1-1.3,0.4-1.3,1c0,0.6,0.5,0.9,1.2,0.9C39.6,111.9,40.2,111.2,40.2,110.5z"/>
		<path class="st7" d="M45,113h-1.7v-7.1h1.6v1.2H45c0.3-0.8,1.1-1.3,2.1-1.3c1.5,0,2.4,1,2.4,2.7v4.5h-1.7v-4.3
			c0-0.9-0.5-1.5-1.4-1.5c-0.9,0-1.5,0.6-1.5,1.6V113z"/>
		<path class="st7" d="M50.8,104c0-0.5,0.4-0.9,1-0.9c0.5,0,1,0.4,1,0.9c0,0.5-0.4,0.9-1,0.9C51.3,104.9,50.8,104.5,50.8,104z
			 M50.9,105.9h1.7v7.1h-1.7V105.9z"/>
		<path class="st7" d="M53.7,111c0-1.6,1.3-2,2.7-2.2c1.3-0.1,1.8-0.2,1.8-0.6v0c0-0.7-0.4-1.1-1.2-1.1c-0.8,0-1.3,0.4-1.5,0.9
			l-1.6-0.2c0.4-1.3,1.5-2,3-2c1.4,0,2.9,0.6,2.9,2.4v4.8h-1.6v-1h-0.1c-0.3,0.6-1,1.1-2.1,1.1C54.8,113.1,53.7,112.4,53.7,111z
			 M58.2,110.5v-0.8c-0.2,0.2-1.1,0.3-1.5,0.3c-0.7,0.1-1.3,0.4-1.3,1c0,0.6,0.5,0.9,1.2,0.9C57.6,111.9,58.2,111.2,58.2,110.5z"/>
	</g>
	<g class="st3">
		<path class="st7" d="M15.3,158l3.3-9.5h2.1l3.3,9.5h-1.8l-0.8-2.3h-3.6l-0.8,2.3H15.3z M21,154.3l-1.3-3.8h-0.1l-1.3,3.8H21z"/>
		<path class="st7" d="M26.7,158H25v-9.5h1.7V158z"/>
		<path class="st7" d="M28.1,159l1.5-0.4c0.2,0.4,0.6,0.9,1.7,0.9c1,0,1.6-0.4,1.6-1.5v-1.3h-0.1c-0.3,0.5-0.8,1.2-2,1.2
			c-1.6,0-2.9-1.2-2.9-3.5c0-2.3,1.3-3.6,2.9-3.6c1.3,0,1.8,0.8,2,1.3h0.1v-1.2h1.7v7.2c0,1.8-1.4,2.7-3.3,2.7
			C29.4,160.8,28.4,160,28.1,159z M32.9,154.4c0-1.3-0.6-2.2-1.7-2.2c-1.1,0-1.7,0.9-1.7,2.2c0,1.3,0.6,2.2,1.7,2.2
			C32.3,156.6,32.9,155.8,32.9,154.4z"/>
		<path class="st7" d="M35.7,154.5c0-2.2,1.3-3.7,3.4-3.7c1.7,0,3.2,1.1,3.2,3.6v0.5h-4.9c0,1.2,0.7,1.9,1.8,1.9
			c0.7,0,1.3-0.3,1.5-0.9l1.6,0.2c-0.3,1.2-1.4,2-3.1,2C37,158.1,35.7,156.7,35.7,154.5z M40.7,153.8c0-1-0.7-1.7-1.6-1.7
			c-1,0-1.7,0.8-1.7,1.7H40.7z"/>
		<path class="st7" d="M43.5,150.9h1.6v1.2h0.1c0.3-0.8,0.9-1.3,1.8-1.3c0.2,0,0.4,0,0.6,0v1.5c-0.1,0-0.5-0.1-0.8-0.1
			c-0.9,0-1.6,0.6-1.6,1.5v4.2h-1.7V150.9z"/>
		<path class="st7" d="M48.2,149c0-0.5,0.4-0.9,1-0.9c0.5,0,1,0.4,1,0.9c0,0.5-0.4,0.9-1,0.9C48.7,149.9,48.2,149.5,48.2,149z
			 M48.3,150.9H50v7.1h-1.7V150.9z"/>
		<path class="st7" d="M51.1,156c0-1.6,1.3-2,2.7-2.2c1.3-0.1,1.8-0.2,1.8-0.6v0c0-0.7-0.4-1.1-1.2-1.1c-0.8,0-1.3,0.4-1.5,0.9
			l-1.6-0.2c0.4-1.3,1.5-2,3-2c1.4,0,2.9,0.6,2.9,2.4v4.8h-1.6v-1h-0.1c-0.3,0.6-1,1.1-2.1,1.1C52.2,158.1,51.1,157.4,51.1,156z
			 M55.6,155.5v-0.8c-0.2,0.2-1.1,0.3-1.5,0.3c-0.7,0.1-1.3,0.4-1.3,1c0,0.6,0.5,0.9,1.2,0.9C55,156.9,55.6,156.2,55.6,155.5z"/>
	</g>
	<g class="st3">
		<path class="st7" d="M15.3,203l3.3-9.5h2.1l3.3,9.5h-1.8l-0.8-2.3h-3.6l-0.8,2.3H15.3z M21,199.3l-1.3-3.8h-0.1l-1.3,3.8H21z"/>
		<path class="st7" d="M26.7,203H25v-7.1h1.6v1.2h0.1c0.3-0.8,1.1-1.3,2.1-1.3c1.5,0,2.4,1,2.4,2.7v4.5h-1.7v-4.3
			c0-0.9-0.5-1.5-1.4-1.5c-0.9,0-1.5,0.6-1.5,1.6V203z"/>
		<path class="st7" d="M32.4,199.5c0-2.4,1.3-3.7,2.9-3.7c1.3,0,1.8,0.8,2,1.3h0.1v-3.5h1.7v9.5h-1.6v-1.1h-0.1
			c-0.3,0.5-0.8,1.2-2,1.2C33.6,203.1,32.4,201.8,32.4,199.5z M37.4,199.4c0-1.4-0.6-2.3-1.7-2.3c-1.1,0-1.7,0.9-1.7,2.3
			c0,1.3,0.6,2.3,1.7,2.3C36.8,201.8,37.4,200.8,37.4,199.4z"/>
		<path class="st7" d="M40.3,199.5c0-2.2,1.3-3.7,3.4-3.7s3.4,1.5,3.4,3.7c0,2.2-1.3,3.7-3.4,3.7S40.3,201.7,40.3,199.5z
			 M45.4,199.5c0-1.3-0.6-2.3-1.7-2.3c-1.2,0-1.7,1-1.7,2.3c0,1.3,0.6,2.3,1.7,2.3C44.8,201.8,45.4,200.8,45.4,199.5z"/>
		<path class="st7" d="M48.3,195.9h1.6v1.2h0.1c0.3-0.8,0.9-1.3,1.8-1.3c0.2,0,0.4,0,0.6,0v1.5c-0.1,0-0.5-0.1-0.8-0.1
			c-0.9,0-1.6,0.6-1.6,1.5v4.2h-1.7V195.9z"/>
		<path class="st7" d="M53.1,195.9h1.6v1.2h0.1c0.3-0.8,0.9-1.3,1.8-1.3c0.2,0,0.4,0,0.6,0v1.5c-0.1,0-0.5-0.1-0.8-0.1
			c-0.9,0-1.6,0.6-1.6,1.5v4.2h-1.7V195.9z"/>
		<path class="st7" d="M57.6,201c0-1.6,1.3-2,2.7-2.2c1.3-0.1,1.8-0.2,1.8-0.6v0c0-0.7-0.4-1.1-1.2-1.1c-0.8,0-1.3,0.4-1.5,0.9
			l-1.6-0.2c0.4-1.3,1.5-2,3-2c1.4,0,2.9,0.6,2.9,2.4v4.8h-1.6v-1H62c-0.3,0.6-1,1.1-2.1,1.1C58.6,203.1,57.6,202.4,57.6,201z
			 M62,200.5v-0.8c-0.2,0.2-1.1,0.3-1.5,0.3c-0.7,0.1-1.3,0.4-1.3,1c0,0.6,0.5,0.9,1.2,0.9C61.4,201.9,62,201.2,62,200.5z"/>
	</g>
	<g class="st3">
		<path class="st7" d="M326.2,61L326.2,61l-4.7-0.1v-1.4h6.5V61l-4,8h-1.8L326.2,61z"/>
		<path class="st7" d="M329.5,68.2c-0.1,1.2-0.6,2.5-0.9,3.1h-1.1c0.1-0.6,0.5-1.8,0.5-3.1l0-0.5h1.5L329.5,68.2z"/>
		<path class="st7" d="M331,65.9l4-6.3h2.1v6.3h1.2v1.4h-1.2V69h-1.6v-1.8H331V65.9z M335.5,61.5L335.5,61.5l-2.8,4.3v0.1h2.8V61.5z
			"/>
		<path class="st7" d="M339.4,64.3c0-3.1,1.4-4.9,3.6-4.9c2.3,0,3.6,1.8,3.6,4.9c0,3.1-1.4,4.9-3.6,4.9
			C340.8,69.2,339.4,67.4,339.4,64.3z M345,64.3c0-2.3-0.7-3.4-1.9-3.4c-1.2,0-1.9,1.2-1.9,3.4c0,2.3,0.7,3.5,1.9,3.5
			C344.2,67.7,345,66.6,345,64.3z"/>
		<path class="st7" d="M347.8,64.5c0-3.2,1.4-5.1,3.7-5.1c1.8,0,3,1.2,3.2,2.7h-1.7c-0.2-0.7-0.7-1.2-1.5-1.2c-1.3,0-2,1.2-2,3.2
			h0.1c0.5-0.8,1.3-1.3,2.4-1.3c1.7,0,2.9,1.3,2.9,3.1c0,1.9-1.4,3.3-3.4,3.3C349.6,69.1,347.8,68,347.8,64.5z M353.2,65.9
			c0-1-0.7-1.8-1.7-1.8s-1.8,0.8-1.8,1.8c0,1,0.7,1.8,1.8,1.8C352.4,67.7,353.2,66.9,353.2,65.9z"/>
		<path class="st7" d="M357.7,68.2c-0.1,1.2-0.6,2.5-0.9,3.1h-1.1c0.1-0.6,0.5-1.8,0.5-3.1l0-0.5h1.5L357.7,68.2z"/>
		<path class="st7" d="M359.2,66.4h1.7c0.1,0.8,0.7,1.3,1.6,1.3c1,0,1.7-0.8,1.7-1.8c0-1.1-0.7-1.8-1.8-1.8c-0.6,0-1.2,0.2-1.5,0.6
			l-1.5-0.3l0.5-4.9h5.5V61h-4.1l-0.3,2.5h0.1c0.4-0.4,1-0.7,1.8-0.7c1.7,0,3,1.3,3,3.1c0,1.9-1.4,3.2-3.4,3.2
			C360.6,69.1,359.3,68,359.2,66.4z"/>
		<path class="st7" d="M374.1,64c0,3.3-1.4,5.2-3.7,5.2c-1.8,0-3-1.1-3.2-2.7h1.7c0.2,0.8,0.7,1.2,1.5,1.2c1.3,0,2-1.2,2-3.2h-0.1
			c-0.5,0.8-1.3,1.3-2.4,1.3c-1.7,0-2.9-1.3-2.9-3.1c0-1.8,1.4-3.3,3.4-3.2C372.3,59.4,374.1,60.5,374.1,64z M368.7,62.6
			c0,1,0.7,1.8,1.7,1.8c1,0,1.8-0.8,1.8-1.8c0-1-0.7-1.8-1.8-1.8C369.4,60.8,368.7,61.6,368.7,62.6z"/>
		<path class="st7" d="M375.2,64.3c0-3.1,1.4-4.9,3.6-4.9s3.6,1.8,3.6,4.9c0,3.1-1.4,4.9-3.6,4.9C376.5,69.2,375.2,67.4,375.2,64.3z
			 M380.7,64.3c0-2.3-0.7-3.4-1.9-3.4c-1.2,0-1.9,1.2-1.9,3.4c0,2.3,0.7,3.5,1.9,3.5C380,67.7,380.7,66.6,380.7,64.3z"/>
		<path class="st7" d="M385.3,68.2c-0.1,1.2-0.6,2.5-0.9,3.1h-1.1c0.1-0.6,0.5-1.8,0.5-3.1l0-0.5h1.5L385.3,68.2z"/>
		<path class="st7" d="M386.5,66.4h1.7c0,0.8,0.8,1.3,1.7,1.3c1,0,1.7-0.6,1.7-1.4c0-0.9-0.7-1.5-1.9-1.5H389v-1.3h0.8
			c1,0,1.7-0.6,1.7-1.4c0-0.8-0.6-1.3-1.5-1.3c-0.9,0-1.6,0.5-1.6,1.3h-1.7c0-1.6,1.5-2.7,3.3-2.7c1.9,0,3.1,1.2,3.1,2.6
			c0,1.1-0.7,1.8-1.7,2v0.1c1.3,0.2,2.1,1,2.1,2.2c0,1.6-1.5,2.8-3.5,2.8C388,69.1,386.6,68,386.5,66.4z"/>
		<path class="st7" d="M394.8,67.8l3.3-3.2c0.9-0.9,1.4-1.5,1.4-2.3c0-0.9-0.7-1.4-1.6-1.4c-0.9,0-1.6,0.6-1.6,1.6h-1.6
			c0-1.8,1.3-3,3.2-3c1.9,0,3.2,1.2,3.2,2.7c0,1.1-0.5,1.9-2.3,3.7l-1.6,1.7v0.1h4.1V69h-6.5V67.8z"/>
		<path class="st7" d="M402.7,66.4h1.7c0.1,0.8,0.7,1.3,1.6,1.3c1,0,1.7-0.8,1.7-1.8c0-1.1-0.7-1.8-1.8-1.8c-0.6,0-1.2,0.2-1.5,0.6
			l-1.5-0.3l0.5-4.9h5.5V61h-4.1l-0.3,2.5h0.1c0.4-0.4,1-0.7,1.8-0.7c1.7,0,3,1.3,3,3.1c0,1.9-1.4,3.2-3.4,3.2
			C404.1,69.1,402.7,68,402.7,66.4z"/>
	</g>
	<g class="st3">
		<path class="st7" d="M321.9,110.4h1.7c0.1,0.8,0.7,1.3,1.6,1.3c1,0,1.7-0.8,1.7-1.8c0-1.1-0.7-1.8-1.8-1.8c-0.6,0-1.2,0.2-1.5,0.6
			l-1.5-0.3l0.5-4.9h5.5v1.4H324l-0.3,2.5h0.1c0.4-0.4,1-0.7,1.8-0.7c1.7,0,3,1.3,3,3.1c0,1.9-1.4,3.2-3.4,3.2
			C323.3,113.1,321.9,112,321.9,110.4z"/>
		<path class="st7" d="M331.4,112.2c-0.1,1.2-0.6,2.5-0.9,3.1h-1.1c0.1-0.6,0.5-1.8,0.5-3.1l0-0.5h1.5L331.4,112.2z"/>
		<path class="st7" d="M339.8,108c0,3.3-1.4,5.2-3.7,5.2c-1.8,0-3-1.1-3.2-2.7h1.7c0.2,0.8,0.7,1.2,1.5,1.2c1.3,0,2-1.2,2-3.2h-0.1
			c-0.5,0.8-1.3,1.3-2.4,1.3c-1.7,0-2.9-1.3-2.9-3.1c0-1.8,1.4-3.3,3.4-3.2C338,103.4,339.8,104.5,339.8,108z M334.5,106.6
			c0,1,0.7,1.8,1.7,1.8c1,0,1.8-0.8,1.8-1.8c0-1-0.7-1.8-1.8-1.8C335.2,104.8,334.5,105.6,334.5,106.6z"/>
		<path class="st7" d="M340.9,109.9l4-6.3h2.1v6.3h1.2v1.4h-1.2v1.8h-1.6v-1.8h-4.5V109.9z M345.4,105.5L345.4,105.5l-2.8,4.3v0.1
			h2.8V105.5z"/>
		<path class="st7" d="M353.2,113h-1.7v-7.8h-0.1l-2.2,1.4V105l2.4-1.5h1.6V113z"/>
		<path class="st7" d="M356.7,112.2c-0.1,1.2-0.6,2.5-0.9,3.1h-1.1c0.1-0.6,0.5-1.8,0.5-3.1l0-0.5h1.5L356.7,112.2z"/>
		<path class="st7" d="M358.4,111.8l3.3-3.2c0.9-0.9,1.4-1.5,1.4-2.3c0-0.9-0.7-1.4-1.6-1.4c-0.9,0-1.6,0.6-1.6,1.6h-1.6
			c0-1.8,1.3-3,3.2-3c1.9,0,3.2,1.2,3.2,2.7c0,1.1-0.5,1.9-2.3,3.7l-1.6,1.7v0.1h4.1v1.4h-6.5V111.8z"/>
		<path class="st7" d="M366.1,110.5c0-1.2,0.9-2.2,2-2.4V108c-1-0.2-1.6-1.1-1.6-2.1c0-1.5,1.3-2.5,3.2-2.5c1.8,0,3.2,1.1,3.2,2.5
			c0,1-0.7,1.9-1.6,2.1v0.1c1.1,0.2,2,1.2,2,2.4c0,1.5-1.5,2.7-3.5,2.7C367.5,113.1,366.1,112,366.1,110.5z M371.3,110.3
			c0-0.9-0.7-1.5-1.8-1.5c-1,0-1.8,0.6-1.8,1.5c0,0.9,0.7,1.5,1.8,1.5C370.6,111.8,371.3,111.2,371.3,110.3z M371.1,106.1
			c0-0.8-0.6-1.4-1.5-1.4c-0.9,0-1.5,0.5-1.5,1.4c0,0.8,0.6,1.4,1.5,1.4C370.4,107.5,371.1,106.9,371.1,106.1z"/>
		<path class="st7" d="M374.2,108.5c0-3.2,1.4-5.1,3.7-5.1c1.8,0,3,1.2,3.2,2.7h-1.7c-0.2-0.7-0.7-1.2-1.5-1.2c-1.3,0-2,1.2-2,3.2
			h0.1c0.5-0.8,1.3-1.3,2.4-1.3c1.7,0,2.9,1.3,2.9,3.1c0,1.9-1.4,3.3-3.4,3.3C376,113.1,374.2,112,374.2,108.5z M379.6,109.9
			c0-1-0.7-1.8-1.7-1.8s-1.8,0.8-1.8,1.8c0,1,0.7,1.8,1.8,1.8C378.8,111.7,379.6,110.9,379.6,109.9z"/>
		<path class="st7" d="M384,112.2c-0.1,1.2-0.6,2.5-0.9,3.1H382c0.1-0.6,0.5-1.8,0.5-3.1l0-0.5h1.5L384,112.2z"/>
		<path class="st7" d="M392.4,108c0,3.3-1.4,5.2-3.7,5.2c-1.8,0-3-1.1-3.2-2.7h1.7c0.2,0.8,0.7,1.2,1.5,1.2c1.3,0,2-1.2,2-3.2h-0.1
			c-0.5,0.8-1.3,1.3-2.4,1.3c-1.7,0-2.9-1.3-2.9-3.1c0-1.8,1.4-3.3,3.4-3.2C390.6,103.4,392.4,104.5,392.4,108z M387.1,106.6
			c0,1,0.7,1.8,1.7,1.8c1,0,1.8-0.8,1.8-1.8c0-1-0.7-1.8-1.8-1.8C387.8,104.8,387.1,105.6,387.1,106.6z"/>
		<path class="st7" d="M393.5,109.9l4-6.3h2.1v6.3h1.2v1.4h-1.2v1.8h-1.6v-1.8h-4.5V109.9z M398.1,105.5L398.1,105.5l-2.8,4.3v0.1
			h2.8V105.5z"/>
		<path class="st7" d="M409,108c0,3.3-1.4,5.2-3.7,5.2c-1.8,0-3-1.1-3.2-2.7h1.7c0.2,0.8,0.7,1.2,1.5,1.2c1.3,0,2-1.2,2-3.2h-0.1
			c-0.5,0.8-1.3,1.3-2.4,1.3c-1.7,0-2.9-1.3-2.9-3.1c0-1.8,1.4-3.3,3.4-3.2C407.2,103.4,409,104.5,409,108z M403.6,106.6
			c0,1,0.7,1.8,1.7,1.8c1,0,1.8-0.8,1.8-1.8c0-1-0.7-1.8-1.8-1.8C404.4,104.8,403.6,105.6,403.6,106.6z"/>
	</g>
	<g class="st3">
		<path class="st7" d="M321.7,154.9l4-6.3h2.1v6.3h1.2v1.4h-1.2v1.8h-1.6v-1.8h-4.5V154.9z M326.2,150.5L326.2,150.5l-2.8,4.3v0.1
			h2.8V150.5z"/>
		<path class="st7" d="M330.1,153.5c0-3.2,1.4-5.1,3.7-5.1c1.8,0,3,1.2,3.2,2.7h-1.7c-0.2-0.7-0.7-1.2-1.5-1.2c-1.3,0-2,1.2-2,3.2
			h0.1c0.5-0.8,1.3-1.3,2.4-1.3c1.7,0,2.9,1.3,2.9,3.1c0,1.9-1.4,3.3-3.4,3.3C331.9,158.1,330.1,157,330.1,153.5z M335.5,154.9
			c0-1-0.7-1.8-1.7-1.8c-1,0-1.8,0.8-1.8,1.8c0,1,0.7,1.8,1.8,1.8C334.7,156.7,335.5,155.9,335.5,154.9z"/>
		<path class="st7" d="M339.9,157.2c-0.1,1.2-0.6,2.5-0.9,3.1h-1.1c0.1-0.6,0.5-1.8,0.5-3.1l0-0.5h1.5L339.9,157.2z"/>
		<path class="st7" d="M341.1,153.3c0-3.1,1.4-4.9,3.6-4.9c2.3,0,3.6,1.8,3.6,4.9c0,3.1-1.4,4.9-3.6,4.9
			C342.4,158.2,341.1,156.4,341.1,153.3z M346.6,153.3c0-2.3-0.7-3.4-1.9-3.4c-1.2,0-1.9,1.2-1.9,3.4c0,2.3,0.7,3.5,1.9,3.5
			C345.9,156.7,346.6,155.6,346.6,153.3z"/>
		<path class="st7" d="M349.6,155.4h1.7c0.1,0.8,0.7,1.3,1.6,1.3c1,0,1.7-0.8,1.7-1.8c0-1.1-0.7-1.8-1.8-1.8c-0.6,0-1.2,0.2-1.5,0.6
			l-1.5-0.3l0.5-4.9h5.5v1.4h-4.1l-0.3,2.5h0.1c0.4-0.4,1-0.7,1.8-0.7c1.7,0,3,1.3,3,3.1c0,1.9-1.4,3.2-3.4,3.2
			C351.1,158.1,349.7,157,349.6,155.4z"/>
		<path class="st7" d="M357.5,155.4h1.7c0,0.8,0.8,1.3,1.7,1.3c1,0,1.7-0.6,1.7-1.4c0-0.9-0.7-1.5-1.9-1.5H360v-1.3h0.8
			c1,0,1.7-0.6,1.7-1.4c0-0.8-0.6-1.3-1.5-1.3c-0.9,0-1.6,0.5-1.6,1.3h-1.7c0-1.6,1.5-2.7,3.3-2.7c1.9,0,3.1,1.2,3.1,2.6
			c0,1.1-0.7,1.8-1.7,2v0.1c1.3,0.2,2.1,1,2.1,2.2c0,1.6-1.5,2.8-3.5,2.8C359,158.1,357.5,157,357.5,155.4z"/>
		<path class="st7" d="M367.4,157.2c-0.1,1.2-0.6,2.5-0.9,3.1h-1.1c0.1-0.6,0.5-1.8,0.5-3.1l0-0.5h1.5L367.4,157.2z"/>
		<path class="st7" d="M368.6,153.3c0-3.1,1.4-4.9,3.6-4.9s3.6,1.8,3.6,4.9c0,3.1-1.4,4.9-3.6,4.9
			C369.9,158.2,368.6,156.4,368.6,153.3z M374.1,153.3c0-2.3-0.7-3.4-1.9-3.4c-1.2,0-1.9,1.2-1.9,3.4c0,2.3,0.7,3.5,1.9,3.5
			C373.4,156.7,374.1,155.6,374.1,153.3z"/>
		<path class="st7" d="M381,158h-1.7v-7.8h-0.1l-2.2,1.4V150l2.4-1.5h1.6V158z"/>
		<path class="st7" d="M383.1,155.4h1.7c0.1,0.8,0.7,1.3,1.6,1.3c1,0,1.7-0.8,1.7-1.8c0-1.1-0.7-1.8-1.8-1.8c-0.6,0-1.2,0.2-1.5,0.6
			l-1.5-0.3l0.5-4.9h5.5v1.4h-4.1l-0.3,2.5h0.1c0.4-0.4,1-0.7,1.8-0.7c1.7,0,3,1.3,3,3.1c0,1.9-1.4,3.2-3.4,3.2
			C384.6,158.1,383.2,157,383.1,155.4z"/>
		<path class="st7" d="M392.7,157.2c-0.1,1.2-0.6,2.5-0.9,3.1h-1.1c0.1-0.6,0.5-1.8,0.5-3.1l0-0.5h1.5L392.7,157.2z"/>
		<path class="st7" d="M401.1,153c0,3.3-1.4,5.2-3.7,5.2c-1.8,0-3-1.1-3.2-2.7h1.7c0.2,0.8,0.7,1.2,1.5,1.2c1.3,0,2-1.2,2-3.2h-0.1
			c-0.5,0.8-1.3,1.3-2.4,1.3c-1.7,0-2.9-1.3-2.9-3.1c0-1.8,1.4-3.3,3.4-3.2C399.3,148.4,401.1,149.5,401.1,153z M395.7,151.6
			c0,1,0.7,1.8,1.7,1.8c1,0,1.8-0.8,1.8-1.8c0-1-0.7-1.8-1.8-1.8C396.5,149.8,395.7,150.6,395.7,151.6z"/>
		<path class="st7" d="M402.2,155.5c0-1.2,0.9-2.2,2-2.4V153c-1-0.2-1.6-1.1-1.6-2.1c0-1.5,1.3-2.5,3.2-2.5c1.8,0,3.2,1.1,3.2,2.5
			c0,1-0.7,1.9-1.6,2.1v0.1c1.1,0.2,2,1.2,2,2.4c0,1.5-1.5,2.7-3.5,2.7C403.7,158.1,402.2,157,402.2,155.5z M407.5,155.3
			c0-0.9-0.7-1.5-1.8-1.5c-1,0-1.8,0.6-1.8,1.5c0,0.9,0.7,1.5,1.8,1.5C406.8,156.8,407.5,156.2,407.5,155.3z M407.2,151.1
			c0-0.8-0.6-1.4-1.5-1.4c-0.9,0-1.5,0.5-1.5,1.4c0,0.8,0.6,1.4,1.5,1.4C406.6,152.5,407.2,151.9,407.2,151.1z"/>
		<path class="st7" d="M417.4,153c0,3.3-1.4,5.2-3.7,5.2c-1.8,0-3-1.1-3.2-2.7h1.7c0.2,0.8,0.7,1.2,1.5,1.2c1.3,0,2-1.2,2-3.2h-0.1
			c-0.5,0.8-1.3,1.3-2.4,1.3c-1.7,0-2.9-1.3-2.9-3.1c0-1.8,1.4-3.3,3.4-3.2C415.6,148.4,417.4,149.5,417.4,153z M412,151.6
			c0,1,0.7,1.8,1.7,1.8c1,0,1.8-0.8,1.8-1.8c0-1-0.7-1.8-1.8-1.8C412.8,149.8,412,150.6,412,151.6z"/>
	</g>
	<g class="st3">
		<path class="st7" d="M325.7,203H324v-7.8h-0.1l-2.2,1.4V195l2.4-1.5h1.6V203z"/>
		<path class="st7" d="M327.8,201.8l3.3-3.2c0.9-0.9,1.4-1.5,1.4-2.3c0-0.9-0.7-1.4-1.6-1.4c-0.9,0-1.6,0.6-1.6,1.6h-1.6
			c0-1.8,1.3-3,3.2-3c1.9,0,3.2,1.2,3.2,2.7c0,1.1-0.5,1.9-2.3,3.7l-1.6,1.7v0.1h4.1v1.4h-6.5V201.8z"/>
		<path class="st7" d="M342.6,198c0,3.3-1.4,5.2-3.7,5.2c-1.8,0-3-1.1-3.2-2.7h1.7c0.2,0.8,0.7,1.2,1.5,1.2c1.3,0,2-1.2,2-3.2h-0.1
			c-0.5,0.8-1.3,1.3-2.4,1.3c-1.7,0-2.9-1.3-2.9-3.1c0-1.8,1.4-3.3,3.4-3.2C340.8,193.4,342.5,194.5,342.6,198z M337.2,196.6
			c0,1,0.7,1.8,1.7,1.8c1,0,1.8-0.8,1.8-1.8c0-1-0.7-1.8-1.8-1.8C337.9,194.8,337.2,195.6,337.2,196.6z"/>
		<path class="st7" d="M345.4,202.2c-0.1,1.2-0.6,2.5-0.9,3.1h-1.1c0.1-0.6,0.5-1.8,0.5-3.1l0-0.5h1.5L345.4,202.2z"/>
		<path class="st7" d="M346.9,199.9l4-6.3h2.1v6.3h1.2v1.4H353v1.8h-1.6v-1.8h-4.5V199.9z M351.4,195.5L351.4,195.5l-2.8,4.3v0.1
			h2.8V195.5z"/>
		<path class="st7" d="M355.2,199.9l4-6.3h2.1v6.3h1.2v1.4h-1.2v1.8h-1.6v-1.8h-4.5V199.9z M359.8,195.5L359.8,195.5l-2.8,4.3v0.1
			h2.8V195.5z"/>
		<path class="st7" d="M363.7,200.5c0-1.2,0.9-2.2,2-2.4V198c-1-0.2-1.6-1.1-1.6-2.1c0-1.5,1.3-2.5,3.2-2.5c1.8,0,3.2,1.1,3.2,2.5
			c0,1-0.7,1.9-1.6,2.1v0.1c1.1,0.2,2,1.2,2,2.4c0,1.5-1.5,2.7-3.5,2.7C365.1,203.1,363.7,202,363.7,200.5z M368.9,200.3
			c0-0.9-0.7-1.5-1.8-1.5c-1,0-1.8,0.6-1.8,1.5c0,0.9,0.7,1.5,1.8,1.5C368.2,201.8,368.9,201.2,368.9,200.3z M368.7,196.1
			c0-0.8-0.6-1.4-1.5-1.4c-0.9,0-1.5,0.5-1.5,1.4c0,0.8,0.6,1.4,1.5,1.4C368,197.5,368.7,196.9,368.7,196.1z"/>
		<path class="st7" d="M373.6,202.2c-0.1,1.2-0.6,2.5-0.9,3.1h-1.1c0.1-0.6,0.5-1.8,0.5-3.1l0-0.5h1.5L373.6,202.2z"/>
		<path class="st7" d="M377.9,203h-1.7v-7.8h-0.1l-2.2,1.4V195l2.4-1.5h1.6V203z"/>
		<path class="st7" d="M380.1,200.4h1.7c0.1,0.8,0.7,1.3,1.6,1.3c1,0,1.7-0.8,1.7-1.8c0-1.1-0.7-1.8-1.8-1.8c-0.6,0-1.2,0.2-1.5,0.6
			l-1.5-0.3l0.5-4.9h5.5v1.4h-4.1l-0.3,2.5h0.1c0.4-0.4,1-0.7,1.8-0.7c1.7,0,3,1.3,3,3.1c0,1.9-1.4,3.2-3.4,3.2
			C381.5,203.1,380.1,202,380.1,200.4z"/>
		<path class="st7" d="M391.9,203h-1.7v-7.8h-0.1l-2.2,1.4V195l2.4-1.5h1.6V203z"/>
	</g>
	<g class="st3">
		<path class="st0" d="M332.4,25h-1.5l-3.5-5h-0.1v5h-1.7v-8h1.5l3.5,5h0.1v-5h1.7V25z"/>
	</g>
	<g class="st3">
		<path class="st0" d="M478.3,25l2.8-8h2.2l2.8,8h-1.8l-0.6-1.8h-2.9l-0.6,1.8H478.3z M483.1,21.9l-1-3h-0.1l-1,3H483.1z"/>
	</g>
	<g class="st3">
		<path class="st7" d="M476.6,67h-1.7v-9.5h1.7V67z"/>
		<path class="st7" d="M478.2,59.9h1.6v1.2h0.1c0.3-0.8,1-1.3,2-1.3c1,0,1.6,0.5,1.9,1.3h0.1c0.3-0.8,1.1-1.3,2.1-1.3
			c1.3,0,2.2,0.8,2.2,2.4V67h-1.7v-4.5c0-0.9-0.5-1.3-1.2-1.3c-0.8,0-1.3,0.6-1.3,1.4V67h-1.6v-4.6c0-0.7-0.5-1.2-1.2-1.2
			c-0.7,0-1.3,0.6-1.3,1.5V67h-1.7V59.9z"/>
		<path class="st7" d="M489.6,59.9h1.6v1.2h0.1c0.3-0.5,0.8-1.3,2-1.3c1.6,0,2.9,1.3,2.9,3.7c0,2.3-1.3,3.7-2.9,3.7
			c-1.2,0-1.8-0.7-2-1.2h-0.1v3.8h-1.7V59.9z M492.9,65.8c1.1,0,1.7-1,1.7-2.3c0-1.3-0.6-2.3-1.7-2.3c-1.1,0-1.7,0.9-1.7,2.3
			S491.8,65.8,492.9,65.8z"/>
		<path class="st7" d="M497.1,63.5c0-2.2,1.3-3.7,3.4-3.7c2.1,0,3.4,1.5,3.4,3.7c0,2.2-1.3,3.7-3.4,3.7
			C498.5,67.1,497.1,65.7,497.1,63.5z M502.2,63.5c0-1.3-0.6-2.3-1.7-2.3c-1.2,0-1.7,1-1.7,2.3c0,1.3,0.6,2.3,1.7,2.3
			C501.7,65.8,502.2,64.8,502.2,63.5z"/>
		<path class="st7" d="M505.1,59.9h1.6v1.2h0.1c0.3-0.8,0.9-1.3,1.8-1.3c0.2,0,0.4,0,0.6,0v1.5c-0.1,0-0.5-0.1-0.8-0.1
			c-0.9,0-1.6,0.6-1.6,1.5V67h-1.7V59.9z"/>
		<path class="st7" d="M513.9,61.2h-1.4v3.7c0,0.7,0.3,0.8,0.8,0.8c0.2,0,0.4,0,0.5-0.1l0.3,1.3c-0.2,0.1-0.5,0.2-1,0.2
			c-1.3,0-2.2-0.6-2.2-2v-3.9h-1v-1.3h1v-1.7h1.7v1.7h1.4V61.2z"/>
	</g>
	<g class="st3">
		<path class="st7" d="M474.9,103.5h6.2v1.4h-4.4v2.6h4.1v1.4h-4.1v2.6h4.5v1.4h-6.2V103.5z"/>
		<path class="st7" d="M485.3,108.5l1.5-2.6h1.8l-2.1,3.6l2.2,3.6h-1.8l-1.5-2.6l-1.5,2.6H482l2.2-3.6l-2.1-3.6h1.8L485.3,108.5z"/>
		<path class="st7" d="M489.6,105.9h1.6v1.2h0.1c0.3-0.5,0.8-1.3,2-1.3c1.6,0,2.9,1.3,2.9,3.7c0,2.3-1.3,3.7-2.9,3.7
			c-1.2,0-1.8-0.7-2-1.2h-0.1v3.8h-1.7V105.9z M492.9,111.8c1.1,0,1.7-1,1.7-2.3c0-1.3-0.6-2.3-1.7-2.3c-1.1,0-1.7,0.9-1.7,2.3
			S491.8,111.8,492.9,111.8z"/>
		<path class="st7" d="M497.1,109.5c0-2.2,1.3-3.7,3.4-3.7c2.1,0,3.4,1.5,3.4,3.7c0,2.2-1.3,3.7-3.4,3.7
			C498.4,113.1,497.1,111.7,497.1,109.5z M502.2,109.5c0-1.3-0.6-2.3-1.7-2.3c-1.2,0-1.7,1-1.7,2.3c0,1.3,0.6,2.3,1.7,2.3
			C501.7,111.8,502.2,110.8,502.2,109.5z"/>
		<path class="st7" d="M505.1,105.9h1.6v1.2h0.1c0.3-0.8,0.9-1.3,1.8-1.3c0.2,0,0.4,0,0.6,0v1.5c-0.1,0-0.5-0.1-0.8-0.1
			c-0.9,0-1.6,0.6-1.6,1.5v4.2h-1.7V105.9z"/>
		<path class="st7" d="M513.9,107.2h-1.4v3.7c0,0.7,0.3,0.8,0.8,0.8c0.2,0,0.4,0,0.5-0.1l0.3,1.3c-0.2,0.1-0.5,0.2-1,0.2
			c-1.3,0-2.2-0.6-2.2-2v-3.9h-1v-1.3h1v-1.7h1.7v1.7h1.4V107.2z"/>
	</g>
	<g class="st3">
		<path class="st7" d="M476.6,158h-1.7v-9.5h1.7V158z"/>
		<path class="st7" d="M478.2,150.9h1.6v1.2h0.1c0.3-0.8,1-1.3,2-1.3c1,0,1.6,0.5,1.9,1.3h0.1c0.3-0.8,1.1-1.3,2.1-1.3
			c1.3,0,2.2,0.8,2.2,2.4v4.8h-1.7v-4.5c0-0.9-0.5-1.3-1.2-1.3c-0.8,0-1.3,0.6-1.3,1.4v4.4h-1.6v-4.6c0-0.7-0.5-1.2-1.2-1.2
			c-0.7,0-1.3,0.6-1.3,1.5v4.3h-1.7V150.9z"/>
		<path class="st7" d="M489.6,150.9h1.6v1.2h0.1c0.3-0.5,0.8-1.3,2-1.3c1.6,0,2.9,1.3,2.9,3.7c0,2.3-1.3,3.7-2.9,3.7
			c-1.2,0-1.8-0.7-2-1.2h-0.1v3.8h-1.7V150.9z M492.9,156.8c1.1,0,1.7-1,1.7-2.3c0-1.3-0.6-2.3-1.7-2.3c-1.1,0-1.7,0.9-1.7,2.3
			S491.8,156.8,492.9,156.8z"/>
		<path class="st7" d="M497.1,154.5c0-2.2,1.3-3.7,3.4-3.7c2.1,0,3.4,1.5,3.4,3.7c0,2.2-1.3,3.7-3.4,3.7
			C498.5,158.1,497.1,156.7,497.1,154.5z M502.2,154.5c0-1.3-0.6-2.3-1.7-2.3c-1.2,0-1.7,1-1.7,2.3c0,1.3,0.6,2.3,1.7,2.3
			C501.7,156.8,502.2,155.8,502.2,154.5z"/>
		<path class="st7" d="M505.1,150.9h1.6v1.2h0.1c0.3-0.8,0.9-1.3,1.8-1.3c0.2,0,0.4,0,0.6,0v1.5c-0.1,0-0.5-0.1-0.8-0.1
			c-0.9,0-1.6,0.6-1.6,1.5v4.2h-1.7V150.9z"/>
		<path class="st7" d="M513.9,152.2h-1.4v3.7c0,0.7,0.3,0.8,0.8,0.8c0.2,0,0.4,0,0.5-0.1l0.3,1.3c-0.2,0.1-0.5,0.2-1,0.2
			c-1.3,0-2.2-0.6-2.2-2v-3.9h-1v-1.3h1v-1.7h1.7v1.7h1.4V152.2z"/>
	</g>
	<g class="st3">
		<path class="st7" d="M476.6,203h-1.7v-9.5h1.7V203z"/>
		<path class="st7" d="M478.2,195.9h1.6v1.2h0.1c0.3-0.8,1-1.3,2-1.3c1,0,1.6,0.5,1.9,1.3h0.1c0.3-0.8,1.1-1.3,2.1-1.3
			c1.3,0,2.2,0.8,2.2,2.4v4.8h-1.7v-4.5c0-0.9-0.5-1.3-1.2-1.3c-0.8,0-1.3,0.6-1.3,1.4v4.4h-1.6v-4.6c0-0.7-0.5-1.2-1.2-1.2
			c-0.7,0-1.3,0.6-1.3,1.5v4.3h-1.7V195.9z"/>
		<path class="st7" d="M489.6,195.9h1.6v1.2h0.1c0.3-0.5,0.8-1.3,2-1.3c1.6,0,2.9,1.3,2.9,3.7c0,2.3-1.3,3.7-2.9,3.7
			c-1.2,0-1.8-0.7-2-1.2h-0.1v3.8h-1.7V195.9z M492.9,201.8c1.1,0,1.7-1,1.7-2.3c0-1.3-0.6-2.3-1.7-2.3c-1.1,0-1.7,0.9-1.7,2.3
			S491.8,201.8,492.9,201.8z"/>
		<path class="st7" d="M497.1,199.5c0-2.2,1.3-3.7,3.4-3.7c2.1,0,3.4,1.5,3.4,3.7c0,2.2-1.3,3.7-3.4,3.7
			C498.5,203.1,497.1,201.7,497.1,199.5z M502.2,199.5c0-1.3-0.6-2.3-1.7-2.3c-1.2,0-1.7,1-1.7,2.3c0,1.3,0.6,2.3,1.7,2.3
			C501.7,201.8,502.2,200.8,502.2,199.5z"/>
		<path class="st7" d="M505.1,195.9h1.6v1.2h0.1c0.3-0.8,0.9-1.3,1.8-1.3c0.2,0,0.4,0,0.6,0v1.5c-0.1,0-0.5-0.1-0.8-0.1
			c-0.9,0-1.6,0.6-1.6,1.5v4.2h-1.7V195.9z"/>
		<path class="st7" d="M513.9,197.2h-1.4v3.7c0,0.7,0.3,0.8,0.8,0.8c0.2,0,0.4,0,0.5-0.1l0.3,1.3c-0.2,0.1-0.5,0.2-1,0.2
			c-1.3,0-2.2-0.6-2.2-2v-3.9h-1v-1.3h1v-1.7h1.7v1.7h1.4V197.2z"/>
	</g>
</g>
</svg>
