<?xml version="1.0" encoding="utf-8"?>
<!-- Generator: Adobe Illustrator 26.0.0, SVG Export Plug-In . SVG Version: 6.00 Build 0)  -->
<svg version="1.1" id="Layer_1" xmlns="http://www.w3.org/2000/svg" xmlns:xlink="http://www.w3.org/1999/xlink" x="0px" y="0px"
	 viewBox="0 0 540 233" style="enable-background:new 0 0 540 233;" xml:space="preserve">
<style type="text/css">
	.st0{fill:#FFFFFF;}
	.st1{fill:#FAF9FA;}
	.st2{fill:#FC605C;}
	.st3{fill:#FCBB40;}
	.st4{fill:#34C648;}
	.st5{fill:#EAEAEE;}
	.st6{fill:#BDBDC1;}
	.st7{fill:#EDECEE;}
	.st8{fill:#747486;}
	.st9{enable-background:new    ;}
	.st10{fill:none;stroke:#747486;stroke-width:0.7;stroke-linecap:round;stroke-linejoin:round;}
	.st11{fill:none;stroke:#747486;stroke-width:0.5;}
	.st12{fill:none;stroke:#747486;stroke-width:0.7;}
	.st13{fill:#1B74E8;}
	.st14{fill:#F2F2F7;}
	.st15{fill:#FEFEFE;}
	.st16{fill:#1B73E6;}
	.st17{fill:#39394D;}
	.st18{fill:none;stroke:#E3E3E3;stroke-width:0.5;}
	.st19{fill:none;stroke:#737384;stroke-width:0.8;}
	.st20{fill:none;stroke:#737384;stroke-width:0.9;stroke-linecap:round;stroke-linejoin:round;}
	.st21{fill:#737384;}
	.st22{fill:#232332;}
	.st23{fill:#3F3F4B;}
	.st24{fill:none;stroke:#3F3F4B;stroke-width:0.8;}
	.st25{fill:#1B75E9;}
	.st26{fill:none;stroke:#747486;stroke-width:0.6;}
	.st27{fill:none;}
	.st28{fill:none;stroke:#D8D8D8;stroke-width:0.7;}
	.st29{fill:none;stroke:#FFFFFF;stroke-width:0.6;}
</style>
<g>
	<path id="Rectangle_1511" class="st0" d="M8,0h524c4.4,0,8,3.6,8,8v225l0,0H0l0,0V8C0,3.6,3.6,0,8,0z"/>
	<path id="Rectangle_1512" class="st1" d="M8,0h520l0,0v45l0,0H0l0,0V8C0,3.6,3.6,0,8,0z"/>
	<circle id="Ellipse_21" class="st2" cx="19.5" cy="22.5" r="5.5"/>
	<circle id="Ellipse_22" class="st3" cx="35.5" cy="22.5" r="5.5"/>
	<circle id="Ellipse_23" class="st4" cx="51.5" cy="22.5" r="5.5"/>
	<path id="Rectangle_1513" class="st5" d="M80,11h14c2.8,0,5,2.2,5,5v13c0,2.8-2.2,5-5,5H80c-2.8,0-5-2.2-5-5V16
		C75,13.2,77.2,11,80,11z"/>
	<path id="Rectangle_1514" class="st5" d="M108,11h14c2.8,0,5,2.2,5,5v13c0,2.8-2.2,5-5,5h-14c-2.8,0-5-2.2-5-5V16
		C103,13.2,105.2,11,108,11z"/>
	<path id="Icon_ionic-ios-arrow-back" class="st6" d="M86,22.5l3.3-3.3c0.2-0.2,0.2-0.6,0-0.9c-0.2-0.2-0.6-0.2-0.9,0l-3.8,3.8
		c-0.2,0.2-0.2,0.6,0,0.9l3.8,3.8c0.2,0.2,0.6,0.2,0.9,0c0.2-0.2,0.2-0.6,0-0.9L86,22.5z"/>
	<path id="Icon_ionic-ios-arrow-back-2" class="st6" d="M116,22.5l-3.3,3.3c-0.2,0.2-0.2,0.6,0,0.9c0.2,0.2,0.6,0.2,0.9,0l3.8-3.8
		c0.2-0.2,0.2-0.6,0-0.9l-3.8-3.8c-0.2-0.2-0.6-0.2-0.9,0c-0.2,0.2-0.2,0.6,0,0.9L116,22.5z"/>
	<path id="Rectangle_1515" class="st7" d="M144,11h95c2.8,0,5,2.2,5,5v13c0,2.8-2.2,5-5,5h-95c-2.8,0-5-2.2-5-5V16
		C139,13.2,141.2,11,144,11z"/>
	<path id="Icon_ionic-ios-search" class="st8" d="M157,26.3l-2.7-2.7c1.3-1.6,1-4-0.6-5.3c-1.6-1.3-4-1-5.3,0.6
		c-1.3,1.6-1,4,0.6,5.3c1.4,1.1,3.4,1.1,4.8,0l2.6,2.7c0.2,0.2,0.4,0.2,0.6,0C157.2,26.7,157.2,26.5,157,26.3z M151.4,24.2
		c-1.7,0-3-1.3-3-3s1.3-3,3-3c1.7,0,3,1.3,3,3c0,0.8-0.3,1.6-0.9,2.1C152.9,23.9,152.2,24.2,151.4,24.2z"/>
	<g class="st9">
		<path class="st8" d="M165.3,19.6c-0.9,0-1.5,0.5-1.5,1.1c0,0.7,0.8,1,1.3,1.1l0.7,0.2c0.9,0.2,2.1,0.7,2.1,2c0,1.2-1,2.1-2.7,2.1
			c-1.6,0-2.7-0.8-2.7-2.1h1.1c0.1,0.8,0.8,1.2,1.6,1.2c0.9,0,1.6-0.5,1.6-1.2c0-0.6-0.6-0.9-1.4-1.1l-0.9-0.2
			c-1.2-0.3-1.9-0.9-1.9-1.9c0-1.3,1.1-2.1,2.6-2.1c1.5,0,2.5,0.8,2.5,2h-1.1C166.7,20,166.1,19.6,165.3,19.6z"/>
		<path class="st8" d="M168.7,23.3c0-1.7,1-2.8,2.5-2.8c1.2,0,2.4,0.8,2.4,2.7v0.4h-3.9c0,1.1,0.6,1.6,1.6,1.6
			c0.6,0,1.1-0.3,1.3-0.8l1,0.2c-0.2,0.9-1.1,1.5-2.3,1.5C169.7,26.1,168.7,25,168.7,23.3z M172.6,22.8c0-0.8-0.5-1.4-1.4-1.4
			c-0.9,0-1.4,0.7-1.5,1.4H172.6z"/>
		<path class="st8" d="M174.4,24.5c0-1.2,1.1-1.5,2.1-1.6c1-0.1,1.4-0.1,1.4-0.5v0c0-0.6-0.4-1-1-1c-0.7,0-1.1,0.4-1.3,0.8l-1-0.2
			c0.4-1,1.3-1.4,2.3-1.4c0.9,0,2.1,0.3,2.1,1.9V26h-1v-0.7h0c-0.2,0.4-0.7,0.9-1.6,0.9C175.2,26.1,174.4,25.5,174.4,24.5z
			 M177.9,24v-0.7c-0.2,0.2-1,0.2-1.3,0.3c-0.6,0.1-1.1,0.3-1.1,0.9c0,0.5,0.4,0.8,1,0.8C177.3,25.3,177.9,24.7,177.9,24z"/>
		<path class="st8" d="M180.1,20.5h1v0.9h0.1c0.2-0.6,0.7-0.9,1.4-0.9c0.1,0,0.3,0,0.5,0v1c-0.1,0-0.3-0.1-0.6-0.1
			c-0.8,0-1.3,0.5-1.3,1.2V26h-1.1V20.5z"/>
		<path class="st8" d="M183.4,23.3c0-1.7,1-2.8,2.5-2.8c1.2,0,2.1,0.7,2.3,1.8h-1c-0.1-0.5-0.5-0.9-1.2-0.9c-0.9,0-1.5,0.7-1.5,1.9
			c0,1.2,0.6,1.9,1.5,1.9c0.6,0,1.1-0.3,1.2-0.9h1c-0.1,1.1-1,1.8-2.2,1.8C184.3,26.1,183.4,24.9,183.4,23.3z"/>
		<path class="st8" d="M190.2,26h-1.1v-7.3h1v2.7h0.1c0.3-0.6,0.8-1,1.6-1c1.1,0,1.9,0.7,1.9,2.1V26h-1.1v-3.3
			c0-0.8-0.4-1.3-1.2-1.3c-0.8,0-1.3,0.5-1.3,1.4V26z"/>
	</g>
	<path id="Icon_feather-command" class="st10" d="M229.1,19.4c-0.6,0-1,0.5-1,1v4.1c0,0.6,0.5,1,1,1s1-0.5,1-1c0-0.6-0.5-1-1-1H225
		c-0.6,0-1,0.5-1,1c0,0.6,0.5,1,1,1c0.6,0,1-0.5,1-1v-4.1c0-0.6-0.5-1-1-1c-0.6,0-1,0.5-1,1c0,0.6,0.5,1,1,1h4.1c0.6,0,1-0.5,1-1
		C230.2,19.9,229.7,19.4,229.1,19.4L229.1,19.4z"/>
	<g class="st9">
		<path class="st8" d="M232.6,19h4.4v0.9h-3.3v2.2h3v0.9h-3V26h-1.1V19z"/>
	</g>
	<path id="Icon_metro-home" class="st11" d="M309,18.1l-5.7-4.5l-5.7,4.5v-1.8l5.7-4.5l5.7,4.5V18.1z M307.6,17.9v4.3h-2.9v-2.9
		h-2.9v2.9H299v-4.3l4.3-3.2L307.6,17.9z"/>
	<g class="st9">
		<path class="st8" d="M292.6,28.2h0.9v2.5h2.9v-2.5h0.9V34h-0.9v-2.5h-2.9V34h-0.9V28.2z"/>
		<path class="st8" d="M298.2,31.8c0-1.4,0.8-2.3,2-2.3c1.2,0,2,0.9,2,2.3c0,1.3-0.8,2.2-2,2.2C299,34.1,298.2,33.2,298.2,31.8z
			 M301.4,31.8c0-0.8-0.4-1.5-1.2-1.5c-0.8,0-1.2,0.7-1.2,1.5c0,0.8,0.4,1.5,1.2,1.5C301,33.4,301.4,32.7,301.4,31.8z"/>
		<path class="st8" d="M303,29.6h0.8v0.7h0.1c0.2-0.5,0.6-0.8,1.2-0.8c0.6,0,1,0.3,1.2,0.8h0c0.2-0.5,0.7-0.8,1.3-0.8
			c0.8,0,1.3,0.5,1.3,1.5V34h-0.8v-2.8c0-0.6-0.4-0.8-0.8-0.8c-0.6,0-0.9,0.4-0.9,0.9V34h-0.8v-2.9c0-0.5-0.3-0.8-0.8-0.8
			c-0.5,0-0.9,0.4-0.9,1V34H303V29.6z"/>
		<path class="st8" d="M309.7,31.8c0-1.3,0.8-2.3,2-2.3c1,0,1.9,0.6,1.9,2.2v0.3h-3.1c0,0.8,0.5,1.3,1.2,1.3c0.5,0,0.9-0.2,1-0.6
			l0.8,0.1c-0.2,0.7-0.9,1.2-1.8,1.2C310.5,34.1,309.7,33.2,309.7,31.8z M312.8,31.4c0-0.7-0.4-1.2-1.1-1.2c-0.7,0-1.1,0.5-1.2,1.2
			H312.8z"/>
	</g>
	<g class="st9">
		<path class="st8" d="M343.6,30.1c-0.1-0.8-0.8-1.2-1.5-1.2c-1,0-1.8,0.8-1.8,2.2c0,1.4,0.8,2.2,1.7,2.2c0.7,0,1.4-0.4,1.5-1.2
			l0.9,0c-0.2,1.1-1.1,1.9-2.4,1.9c-1.5,0-2.6-1.1-2.6-3s1.1-3,2.6-3c1.2,0,2.2,0.7,2.4,2H343.6z"/>
		<path class="st8" d="M346.1,34h-0.8v-5.8h0.8v2.2h0.1c0.2-0.5,0.6-0.8,1.3-0.8c0.9,0,1.5,0.6,1.5,1.6V34h-0.8v-2.7
			c0-0.6-0.3-1-0.9-1c-0.6,0-1,0.4-1,1.1V34z"/>
		<path class="st8" d="M349.7,32.8c0-1,0.8-1.2,1.7-1.3c0.8-0.1,1.1-0.1,1.1-0.4v0c0-0.5-0.3-0.8-0.8-0.8c-0.6,0-0.9,0.3-1,0.6
			l-0.8-0.2c0.3-0.8,1-1.1,1.8-1.1c0.7,0,1.7,0.3,1.7,1.5V34h-0.8v-0.6h0c-0.2,0.3-0.6,0.7-1.3,0.7
			C350.4,34.1,349.7,33.6,349.7,32.8z M352.5,32.4v-0.6c-0.1,0.1-0.8,0.2-1,0.2c-0.5,0.1-0.9,0.2-0.9,0.7c0,0.4,0.3,0.6,0.8,0.6
			C352.1,33.4,352.5,32.9,352.5,32.4z"/>
		<path class="st8" d="M356.4,30.3h-0.9v2.4c0,0.5,0.2,0.6,0.5,0.6c0.1,0,0.2,0,0.3,0l0.2,0.7c-0.1,0-0.3,0.1-0.6,0.1
			c-0.7,0-1.3-0.4-1.3-1.2v-2.6H354v-0.7h0.6v-1h0.8v1h0.9V30.3z"/>
	</g>
	<path id="Icon_feather-message-square" class="st10" d="M352.5,19.9c0,0.6-0.4,1-1,1h-6l-2,2v-8c0-0.6,0.4-1,1-1h7c0.6,0,1,0.4,1,1
		V19.9z"/>
	<g class="st9">
		<path class="st8" d="M381.2,28.2l1.9,4.5h0.1l1.8-4.5h1.1V34h-0.8v-4.2h-0.1l-1.7,4.2h-0.7l-1.7-4.2H381V34h-0.8v-5.8H381.2z"/>
		<path class="st8" d="M386.9,31.8c0-1.3,0.8-2.3,2-2.3c1,0,1.9,0.6,1.9,2.2v0.3h-3.1c0,0.8,0.5,1.3,1.2,1.3c0.5,0,0.9-0.2,1-0.6
			l0.8,0.1c-0.2,0.7-0.9,1.2-1.8,1.2C387.7,34.1,386.9,33.2,386.9,31.8z M390,31.4c0-0.7-0.4-1.2-1.1-1.2c-0.7,0-1.1,0.5-1.2,1.2
			H390z"/>
		<path class="st8" d="M391.4,31.8c0-1.3,0.8-2.3,2-2.3c1,0,1.9,0.6,1.9,2.2v0.3h-3.1c0,0.8,0.5,1.3,1.2,1.3c0.5,0,0.9-0.2,1-0.6
			l0.8,0.1c-0.2,0.7-0.9,1.2-1.8,1.2C392.2,34.1,391.4,33.2,391.4,31.8z M394.5,31.4c0-0.7-0.4-1.2-1.1-1.2c-0.7,0-1.1,0.5-1.2,1.2
			H394.5z"/>
		<path class="st8" d="M398.2,30.3h-0.9v2.4c0,0.5,0.2,0.6,0.5,0.6c0.1,0,0.2,0,0.3,0l0.2,0.7c-0.1,0-0.3,0.1-0.6,0.1
			c-0.7,0-1.3-0.4-1.3-1.2v-2.6h-0.6v-0.7h0.6v-1h0.8v1h0.9V30.3z"/>
		<path class="st8" d="M398.9,28.5c0-0.3,0.2-0.5,0.5-0.5c0.3,0,0.5,0.2,0.5,0.5s-0.2,0.5-0.5,0.5C399.1,29,398.9,28.7,398.9,28.5z
			 M399,29.6h0.8V34H399V29.6z"/>
		<path class="st8" d="M401.7,34h-0.8v-4.4h0.8v0.7h0.1c0.2-0.5,0.6-0.8,1.3-0.8c0.9,0,1.5,0.6,1.5,1.6V34h-0.8v-2.7
			c0-0.6-0.3-1-0.9-1c-0.6,0-1,0.4-1,1.1V34z"/>
		<path class="st8" d="M405.4,34.7l0.7-0.3c0.2,0.2,0.4,0.6,1.1,0.6c0.6,0,1.1-0.3,1.1-1v-0.9h-0.1c-0.2,0.3-0.5,0.7-1.3,0.7
			c-1,0-1.8-0.7-1.8-2.1c0-1.4,0.8-2.2,1.8-2.2c0.8,0,1.1,0.5,1.3,0.8h0.1v-0.7h0.8v4.5c0,1.1-0.9,1.6-2,1.6
			C406.2,35.7,405.6,35.3,405.4,34.7z M408.4,31.8c0-0.9-0.4-1.5-1.1-1.5c-0.8,0-1.2,0.7-1.2,1.5c0,0.9,0.4,1.4,1.2,1.4
			C408,33.2,408.4,32.7,408.4,31.8z"/>
		<path class="st8" d="M412.7,30.8c-0.1-0.3-0.3-0.6-0.9-0.6c-0.5,0-0.8,0.2-0.8,0.6c0,0.3,0.2,0.5,0.7,0.6l0.7,0.2
			c0.8,0.2,1.2,0.6,1.2,1.2c0,0.8-0.7,1.3-1.8,1.3c-1,0-1.6-0.4-1.8-1.2l0.8-0.1c0.1,0.4,0.4,0.6,0.9,0.6c0.6,0,0.9-0.3,0.9-0.6
			c0-0.3-0.2-0.5-0.6-0.6l-0.7-0.2c-0.8-0.2-1.2-0.6-1.2-1.2c0-0.8,0.7-1.3,1.7-1.3c0.9,0,1.5,0.4,1.6,1.1L412.7,30.8z"/>
	</g>
	<path id="Icon_awesome-clock" class="st12" d="M396.3,12.9c-2.6,0-4.8,2.1-4.8,4.8s2.1,4.8,4.8,4.8s4.8-2.1,4.8-4.8c0,0,0,0,0,0
		C401.1,15.1,398.9,12.9,396.3,12.9C396.3,12.9,396.3,12.9,396.3,12.9z M397.4,19.7l-1.7-1.2c-0.1,0-0.1-0.1-0.1-0.2V15
		c0-0.1,0.1-0.2,0.2-0.2h0.9c0.1,0,0.2,0.1,0.2,0.2v2.7l1.2,0.9c0.1,0.1,0.1,0.2,0.1,0.3c0,0,0,0,0,0l-0.5,0.7
		C397.6,19.7,397.5,19.7,397.4,19.7L397.4,19.7z"/>
	<g class="st9">
		<path class="st13" d="M440.1,28.9c-0.7,0-1.2,0.4-1.2,0.9c0,0.6,0.6,0.8,1.1,0.9l0.6,0.1c0.7,0.2,1.7,0.6,1.7,1.6
			c0,1-0.8,1.7-2.2,1.7c-1.3,0-2.1-0.7-2.2-1.7h0.9c0.1,0.6,0.6,0.9,1.3,0.9c0.7,0,1.3-0.4,1.3-0.9c0-0.5-0.5-0.7-1.1-0.9l-0.7-0.2
			c-0.9-0.3-1.5-0.7-1.5-1.5c0-1,0.9-1.7,2.1-1.7c1.2,0,2,0.7,2,1.6h-0.8C441.2,29.2,440.8,28.9,440.1,28.9z"/>
		<path class="st13" d="M442.9,31.8c0-1.3,0.8-2.3,2-2.3c1,0,1.7,0.6,1.8,1.5h-0.8c-0.1-0.4-0.4-0.8-1-0.8c-0.7,0-1.2,0.6-1.2,1.5
			c0,1,0.5,1.5,1.2,1.5c0.5,0,0.9-0.3,1-0.7h0.8c-0.1,0.8-0.8,1.5-1.8,1.5C443.6,34.1,442.9,33.2,442.9,31.8z"/>
		<path class="st13" d="M448.3,34h-0.8v-5.8h0.8v2.2h0.1c0.2-0.5,0.6-0.8,1.3-0.8c0.9,0,1.5,0.6,1.5,1.6V34h-0.8v-2.7
			c0-0.6-0.3-1-0.9-1c-0.6,0-1,0.4-1,1.1V34z"/>
		<path class="st13" d="M451.9,31.8c0-1.4,0.8-2.3,2-2.3c1.2,0,2,0.9,2,2.3c0,1.3-0.8,2.2-2,2.2C452.7,34.1,451.9,33.2,451.9,31.8z
			 M455.1,31.8c0-0.8-0.4-1.5-1.2-1.5c-0.8,0-1.2,0.7-1.2,1.5c0,0.8,0.4,1.5,1.2,1.5C454.7,33.4,455.1,32.7,455.1,31.8z"/>
		<path class="st13" d="M456.6,31.8c0-1.4,0.8-2.3,2-2.3c1.2,0,2,0.9,2,2.3c0,1.3-0.8,2.2-2,2.2C457.4,34.1,456.6,33.2,456.6,31.8z
			 M459.8,31.8c0-0.8-0.4-1.5-1.2-1.5c-0.8,0-1.2,0.7-1.2,1.5c0,0.8,0.4,1.5,1.2,1.5C459.4,33.4,459.8,32.7,459.8,31.8z"/>
		<path class="st13" d="M462.3,34h-0.8v-5.8h0.8V34z"/>
	</g>
	<path id="Icon_awesome-school" class="st13" d="M443.8,17.3v5.3c0,0.2,0.1,0.3,0.3,0.3c0,0,0,0,0,0h1.6v-6.2h-1.2
		C444.1,16.7,443.8,16.9,443.8,17.3z M450.8,16.3h-0.5v-0.8c0-0.1-0.1-0.2-0.2-0.2h-0.3c-0.1,0-0.2,0.1-0.2,0.2l0,0v1.2
		c0,0.1,0.1,0.2,0.2,0.2l0,0h0.9c0.1,0,0.2-0.1,0.2-0.2l0,0v-0.3C451,16.4,450.9,16.3,450.8,16.3C450.8,16.3,450.8,16.3,450.8,16.3
		L450.8,16.3z M453.5,15.1l-3.1-2.1c-0.2-0.1-0.5-0.1-0.7,0l-3.1,2.1c-0.2,0.1-0.3,0.3-0.3,0.5v7.3h2.5v-2.8c0-0.2,0.1-0.3,0.3-0.3
		c0,0,0,0,0,0h1.9c0.2,0,0.3,0.1,0.3,0.3v2.8h2.5v-7.3C453.8,15.4,453.7,15.2,453.5,15.1L453.5,15.1z M450.1,17.9
		c-0.9,0-1.6-0.7-1.6-1.6s0.7-1.6,1.6-1.6c0.9,0,1.6,0.7,1.6,1.6C451.6,17.2,450.9,17.9,450.1,17.9z M455.7,16.7h-1.2v6.2h1.6
		c0.2,0,0.3-0.1,0.3-0.3c0,0,0,0,0,0v-5.3C456.3,16.9,456,16.7,455.7,16.7z"/>
	<path id="Rectangle_1516" class="st14" d="M76,63h150c3.3,0,6,2.7,6,6v9c0,3.3-2.7,6-6,6H76c-3.3,0-6-2.7-6-6v-9
		C70,65.7,72.7,63,76,63z"/>
	<g transform="matrix(1, 0, 0, 1, 581, 1407)">
		<path id="Rectangle_1517-2" class="st15" d="M-504-1343h68c3.3,0,6,2.7,6,6v7c0,3.3-2.7,6-6,6h-68c-3.3,0-6-2.7-6-6v-7
			C-510-1340.3-507.3-1343-504-1343z"/>
	</g>
	<g class="st9">
		<path class="st16" d="M93.6,69.7v4.8c0,1.6-1.2,2.6-3,2.6c-1.8,0-3-1.1-3-2.6v-4.8H89v4.6c0,0.9,0.6,1.6,1.6,1.6
			c1,0,1.6-0.7,1.6-1.6v-4.6H93.6z"/>
		<path class="st16" d="M94.8,71.5h1.3v0.9h0.1c0.2-0.4,0.6-1,1.6-1c1.3,0,2.3,1,2.3,2.8c0,1.8-1,2.8-2.3,2.8c-0.9,0-1.4-0.6-1.6-1
			h-0.1V79h-1.3V71.5z M97.4,76c0.8,0,1.3-0.7,1.3-1.8c0-1-0.4-1.7-1.3-1.7c-0.8,0-1.3,0.7-1.3,1.7S96.5,76,97.4,76z"/>
		<path class="st16" d="M100.6,74.3c0-1.7,1-2.8,2.6-2.8c1.3,0,2.3,0.8,2.3,2h-1.2c-0.1-0.5-0.5-0.9-1.1-0.9c-0.8,0-1.3,0.7-1.3,1.8
			c0,1.1,0.5,1.8,1.3,1.8c0.6,0,1-0.3,1.1-0.9h1.2c-0.1,1.2-1,2-2.3,2C101.6,77.1,100.6,75.9,100.6,74.3z"/>
		<path class="st16" d="M106.2,74.3c0-1.7,1-2.8,2.6-2.8c1.6,0,2.6,1.1,2.6,2.8c0,1.7-1,2.8-2.6,2.8C107.2,77.1,106.2,76,106.2,74.3
			z M110.1,74.3c0-1-0.4-1.8-1.3-1.8c-0.9,0-1.3,0.8-1.3,1.8s0.4,1.8,1.3,1.8C109.7,76.1,110.1,75.3,110.1,74.3z"/>
		<path class="st16" d="M112.3,71.5h1.2v0.9h0.1c0.2-0.6,0.8-1,1.5-1c0.7,0,1.3,0.4,1.5,1h0.1c0.2-0.6,0.8-1,1.6-1
			c1,0,1.7,0.6,1.7,1.9V77h-1.3v-3.5c0-0.7-0.4-1-0.9-1c-0.6,0-1,0.4-1,1V77h-1.3v-3.5c0-0.6-0.4-0.9-0.9-0.9c-0.6,0-1,0.5-1,1.1V77
			h-1.3V71.5z"/>
		<path class="st16" d="M121,70.1c0-0.4,0.3-0.7,0.7-0.7c0.4,0,0.7,0.3,0.7,0.7c0,0.4-0.3,0.7-0.7,0.7C121.4,70.8,121,70.5,121,70.1
			z M121.1,71.5h1.3V77h-1.3V71.5z"/>
		<path class="st16" d="M124.8,77h-1.3v-5.5h1.2v0.9h0.1c0.2-0.6,0.8-1,1.6-1c1.1,0,1.9,0.7,1.9,2.1V77H127v-3.3
			c0-0.7-0.4-1.2-1.1-1.2c-0.7,0-1.2,0.5-1.2,1.2V77z"/>
		<path class="st16" d="M129.4,77.8l1.2-0.3c0.2,0.3,0.5,0.7,1.3,0.7c0.7,0,1.3-0.3,1.3-1.1v-1H133c-0.2,0.4-0.6,0.9-1.6,0.9
			c-1.3,0-2.3-0.9-2.3-2.7c0-1.8,1-2.8,2.3-2.8c1,0,1.4,0.6,1.6,1h0.1v-0.9h1.3v5.5c0,1.4-1.1,2.1-2.6,2.1
			C130.4,79.2,129.6,78.5,129.4,77.8z M133.1,74.2c0-1-0.5-1.7-1.3-1.7c-0.9,0-1.3,0.7-1.3,1.7c0,1,0.4,1.7,1.3,1.7
			C132.7,75.9,133.1,75.3,133.1,74.2z"/>
	</g>
	<g class="st9">
		<path class="st17" d="M175.6,72.2c-0.2-0.9-0.8-1.4-1.7-1.4c-1.2,0-2,0.9-2,2.6c0,1.7,0.8,2.6,2,2.6c0.9,0,1.6-0.5,1.7-1.3l1.3,0
			c-0.2,1.4-1.4,2.5-3.1,2.5c-1.9,0-3.3-1.4-3.3-3.7c0-2.4,1.4-3.7,3.3-3.7c1.6,0,2.9,0.9,3.1,2.6H175.6z"/>
		<path class="st17" d="M177.7,74.3c0-1.7,1-2.8,2.6-2.8c1.6,0,2.6,1.1,2.6,2.8c0,1.7-1,2.8-2.6,2.8C178.7,77.1,177.7,76,177.7,74.3
			z M181.6,74.3c0-1-0.4-1.8-1.3-1.8c-0.9,0-1.3,0.8-1.3,1.8s0.4,1.8,1.3,1.8C181.2,76.1,181.6,75.3,181.6,74.3z"/>
		<path class="st17" d="M187.3,71.5h1.3V77h-1.2v-1h-0.1c-0.2,0.6-0.8,1-1.6,1c-1.1,0-1.8-0.7-1.8-2.1v-3.5h1.3v3.3
			c0,0.7,0.4,1.1,1,1.1c0.6,0,1.2-0.4,1.2-1.2V71.5z"/>
		<path class="st17" d="M189.7,71.5h1.2v0.9h0.1c0.2-0.6,0.7-1,1.3-1c0.1,0,0.3,0,0.5,0v1.2c-0.1,0-0.4-0.1-0.6-0.1
			c-0.7,0-1.2,0.5-1.2,1.2V77h-1.3V71.5z"/>
		<path class="st17" d="M196.6,73.1c-0.1-0.4-0.4-0.7-1-0.7c-0.5,0-0.9,0.3-0.9,0.6c0,0.3,0.2,0.5,0.8,0.6l0.9,0.2
			c1,0.2,1.5,0.7,1.5,1.5c0,1-1,1.7-2.3,1.7c-1.3,0-2.2-0.6-2.3-1.6l1.3-0.1c0.1,0.5,0.5,0.7,1.1,0.7c0.6,0,1-0.3,1-0.7
			c0-0.3-0.2-0.5-0.7-0.6l-0.9-0.2c-1-0.2-1.5-0.7-1.5-1.5c0-1,0.9-1.7,2.2-1.7c1.3,0,2,0.6,2.2,1.5L196.6,73.1z"/>
		<path class="st17" d="M198.5,74.3c0-1.7,1-2.8,2.6-2.8c1.3,0,2.5,0.8,2.5,2.8v0.4h-3.8c0,0.9,0.6,1.5,1.4,1.5c0.6,0,1-0.2,1.2-0.7
			l1.2,0.1c-0.2,0.9-1.1,1.6-2.4,1.6C199.5,77.1,198.5,76,198.5,74.3z M202.4,73.8c0-0.7-0.5-1.3-1.2-1.3c-0.8,0-1.3,0.6-1.3,1.3
			H202.4z"/>
		<path class="st17" d="M207.6,73.1c-0.1-0.4-0.4-0.7-1-0.7c-0.5,0-0.9,0.3-0.9,0.6c0,0.3,0.2,0.5,0.8,0.6l0.9,0.2
			c1,0.2,1.5,0.7,1.5,1.5c0,1-1,1.7-2.3,1.7c-1.3,0-2.2-0.6-2.3-1.6l1.3-0.1c0.1,0.5,0.5,0.7,1.1,0.7c0.6,0,1-0.3,1-0.7
			c0-0.3-0.2-0.5-0.7-0.6l-0.9-0.2c-1-0.2-1.5-0.7-1.5-1.5c0-1,0.9-1.7,2.2-1.7c1.3,0,2,0.6,2.2,1.5L207.6,73.1z"/>
	</g>
	<line id="Line_13" class="st18" x1="296.6" y1="45.5" x2="296.6" y2="230.5"/>
	<g id="Rectangle_1518" transform="translate(847 1473)">
		<path class="st0" d="M-577-1407h7c2.2,0,4,1.8,4,4v7c0,2.2-1.8,4-4,4h-7c-2.2,0-4-1.8-4-4v-7C-581-1405.2-579.2-1407-577-1407z"/>
		<path class="st19" d="M-577-1406.6h7c2,0,3.6,1.6,3.6,3.6v7c0,2-1.6,3.6-3.6,3.6h-7c-2,0-3.6-1.6-3.6-3.6v-7
			C-580.6-1405-579-1406.6-577-1406.6z"/>
	</g>
	<path id="Path_664" class="st20" d="M273.5,70.6v5.8"/>
	<path id="Path_665" class="st20" d="M270.6,73.5h5.8"/>
	<path id="Icon_ionic-ios-refresh" class="st21" d="M30.2,78.2c-0.2-0.2-0.4-0.2-0.6,0c-2.1,1.7-5.1,1.4-6.8-0.6
		c-1.7-2.1-1.4-5.1,0.6-6.8c1.9-1.6,4.7-1.5,6.5,0.3c0,0,0,0.1,0,0.2c0,0,0,0,0,0l-1.1,1c-0.2,0.2-0.2,0.5,0,0.7
		c0.1,0.1,0.1,0.1,0.2,0.1l3.4,0.7c0.3,0.1,0.5-0.1,0.6-0.3c0-0.1,0-0.1,0-0.2l-0.6-3.4c-0.1-0.3-0.3-0.4-0.6-0.4
		c-0.1,0-0.2,0.1-0.2,0.1l-1,1c0,0-0.1,0-0.2,0c0,0,0,0,0,0c-2.2-2.2-5.9-2.2-8.1,0.1s-2.2,5.9,0.1,8.1c2.1,2,5.4,2.2,7.6,0.4
		C30.4,78.7,30.4,78.4,30.2,78.2C30.2,78.2,30.2,78.2,30.2,78.2L30.2,78.2z"/>
	<g class="st9">
		<path class="st22" d="M323.1,97V84.6h4.4c3.7,0,6,2.3,6,6.2c0,3.9-2.3,6.2-6.1,6.2H323.1z M327.4,94.8c2.3,0,3.6-1.2,3.6-4
			c0-2.8-1.2-3.9-3.5-3.9h-1.7v7.9H327.4z"/>
		<path class="st22" d="M334.7,92.4c0-2.9,1.8-4.8,4.5-4.8c2.5,0,4.4,1.6,4.4,4.7V93h-6.3v0c0,1.4,0.8,2.2,2.1,2.2
			c0.9,0,1.5-0.4,1.8-1.1l2.4,0.2c-0.4,1.7-1.9,2.8-4.2,2.8C336.4,97.2,334.7,95.3,334.7,92.4z M341.1,91.4c0-1.1-0.8-1.9-1.9-1.9
			c-1.1,0-1.9,0.8-2,1.9H341.1z"/>
		<path class="st22" d="M350.2,90.5c-0.1-0.6-0.7-1.1-1.6-1.1c-0.8,0-1.4,0.4-1.4,0.9c0,0.4,0.3,0.7,1.2,0.9l1.7,0.3
			c1.8,0.4,2.7,1.2,2.7,2.5c0,1.8-1.7,3.1-4.1,3.1c-2.5,0-4-1.1-4.2-2.9l2.5-0.1c0.2,0.8,0.8,1.1,1.7,1.1c0.9,0,1.5-0.4,1.5-0.9
			c0-0.5-0.4-0.8-1.2-0.9l-1.6-0.3c-1.8-0.4-2.7-1.3-2.7-2.7c0-1.8,1.6-2.9,3.9-2.9c2.3,0,3.7,1.1,4,2.8L350.2,90.5z"/>
		<path class="st22" d="M354,85.2c0-0.7,0.6-1.3,1.4-1.3c0.8,0,1.4,0.6,1.4,1.3c0,0.7-0.6,1.3-1.4,1.3C354.6,86.5,354,85.9,354,85.2
			z M354.1,87.7h2.6V97h-2.6V87.7z"/>
		<path class="st22" d="M358.3,98.1l2.4-0.3c0.2,0.6,0.8,1.1,1.9,1.1c1.1,0,1.9-0.5,1.9-1.8v-1.7h-0.1c-0.3,0.8-1.2,1.5-2.6,1.5
			c-2.1,0-3.8-1.4-3.8-4.5c0-3.2,1.7-4.7,3.8-4.7c1.6,0,2.3,0.9,2.7,1.7h0.1v-1.6h2.6v9.4c0,2.4-1.9,3.6-4.5,3.6
			C360,100.7,358.6,99.6,358.3,98.1z M364.6,92.3c0-1.6-0.7-2.7-2-2.7c-1.3,0-2,1.1-2,2.7c0,1.6,0.7,2.6,2,2.6
			C363.8,94.9,364.6,94,364.6,92.3z"/>
		<path class="st22" d="M371.4,97h-2.6v-9.3h2.5v1.6h0.1c0.4-1.1,1.4-1.8,2.8-1.8c1.9,0,3.2,1.3,3.2,3.5V97h-2.6v-5.5
			c0-1.1-0.6-1.8-1.6-1.8c-1,0-1.8,0.7-1.8,1.9V97z"/>
		<path class="st22" d="M382.7,84.6h8.2v2.2h-5.6v2.9h5v2.2h-5V97h-2.6V84.6z"/>
		<path class="st22" d="M397.6,87.7h2.6V97h-2.5v-1.7h-0.1c-0.4,1.1-1.4,1.8-2.8,1.8c-1.9,0-3.1-1.3-3.1-3.5v-5.9h2.6v5.5
			c0,1.1,0.6,1.8,1.6,1.8c0.9,0,1.8-0.7,1.8-1.9V87.7z"/>
		<path class="st22" d="M404.4,97h-2.6v-9.3h2.5v1.6h0.1c0.4-1.1,1.4-1.8,2.8-1.8c1.9,0,3.2,1.3,3.2,3.5V97h-2.6v-5.5
			c0-1.1-0.6-1.8-1.6-1.8c-1,0-1.8,0.7-1.8,1.9V97z"/>
		<path class="st22" d="M411.8,92.4c0-3.2,1.7-4.8,3.8-4.8c1.6,0,2.3,0.9,2.6,1.7h0.1v-4.7h2.6V97h-2.5v-1.5h-0.1
			c-0.4,0.8-1.1,1.6-2.6,1.6C413.4,97.2,411.8,95.5,411.8,92.4z M418.3,92.4c0-1.7-0.7-2.7-2-2.7c-1.3,0-2,1.1-2,2.7
			c0,1.6,0.7,2.7,2,2.7C417.6,95.1,418.3,94,418.3,92.4z"/>
		<path class="st22" d="M422.1,94.4c0-2.1,1.6-2.7,3.5-2.9c1.6-0.2,2.2-0.2,2.2-0.8v0c0-0.8-0.5-1.2-1.4-1.2c-0.9,0-1.5,0.5-1.6,1.1
			l-2.4-0.2c0.4-1.7,1.8-2.8,4-2.8c2.1,0,3.9,0.9,3.9,3.1V97H428v-1.3h-0.1c-0.5,0.9-1.3,1.5-2.7,1.5
			C423.4,97.2,422.1,96.2,422.1,94.4z M427.9,93.7v-1c-0.3,0.2-1.2,0.3-1.8,0.4c-0.9,0.1-1.5,0.5-1.5,1.2c0,0.7,0.6,1.1,1.4,1.1
			C427.1,95.4,427.9,94.7,427.9,93.7z"/>
		<path class="st22" d="M432.1,87.7h2.5v1.6h0.1c0.4-1.1,1.3-1.8,2.6-1.8c1.3,0,2.2,0.7,2.5,1.8h0.1c0.4-1.1,1.4-1.8,2.8-1.8
			c1.7,0,2.9,1.1,2.9,3.2V97H443v-5.7c0-1-0.6-1.5-1.4-1.5c-0.9,0-1.5,0.7-1.5,1.6V97h-2.5v-5.8c0-0.9-0.6-1.5-1.4-1.5
			c-0.9,0-1.5,0.7-1.5,1.7V97h-2.6V87.7z"/>
		<path class="st22" d="M446.9,92.4c0-2.9,1.8-4.8,4.5-4.8c2.5,0,4.4,1.6,4.4,4.7V93h-6.3v0c0,1.4,0.8,2.2,2.1,2.2
			c0.9,0,1.5-0.4,1.8-1.1l2.4,0.2c-0.4,1.7-1.9,2.8-4.2,2.8C448.6,97.2,446.9,95.3,446.9,92.4z M453.3,91.4c0-1.1-0.8-1.9-1.9-1.9
			c-1.1,0-1.9,0.8-2,1.9H453.3z"/>
		<path class="st22" d="M459.6,97h-2.6v-9.3h2.5v1.6h0.1c0.4-1.1,1.4-1.8,2.8-1.8c1.9,0,3.2,1.3,3.2,3.5V97h-2.6v-5.5
			c0-1.1-0.6-1.8-1.6-1.8c-1,0-1.8,0.7-1.8,1.9V97z"/>
		<path class="st22" d="M472.2,89.7h-1.7v4.5c0,0.7,0.4,0.9,0.9,0.9c0.2,0,0.5-0.1,0.6-0.1l0.4,1.9c-0.3,0.1-0.7,0.2-1.4,0.2
			c-1.9,0.1-3.1-0.8-3.1-2.6v-4.8h-1.3v-1.9h1.3v-2.2h2.6v2.2h1.7V89.7z"/>
		<path class="st22" d="M473.1,94.4c0-2.1,1.6-2.7,3.5-2.9c1.6-0.2,2.2-0.2,2.2-0.8v0c0-0.8-0.5-1.2-1.4-1.2c-0.9,0-1.5,0.5-1.6,1.1
			l-2.4-0.2c0.4-1.7,1.8-2.8,4-2.8c2.1,0,3.9,0.9,3.9,3.1V97H479v-1.3h-0.1c-0.5,0.9-1.3,1.5-2.7,1.5
			C474.4,97.2,473.1,96.2,473.1,94.4z M478.9,93.7v-1c-0.3,0.2-1.2,0.3-1.8,0.4c-0.9,0.1-1.5,0.5-1.5,1.2c0,0.7,0.6,1.1,1.4,1.1
			C478.1,95.4,478.9,94.7,478.9,93.7z"/>
		<path class="st22" d="M485.7,97h-2.6V84.6h2.6V97z"/>
		<path class="st22" d="M492.7,90.5c-0.1-0.6-0.7-1.1-1.6-1.1c-0.8,0-1.4,0.4-1.4,0.9c0,0.4,0.3,0.7,1.2,0.9l1.7,0.3
			c1.8,0.4,2.7,1.2,2.7,2.5c0,1.8-1.7,3.1-4.1,3.1c-2.5,0-4-1.1-4.2-2.9l2.5-0.1c0.2,0.8,0.8,1.1,1.7,1.1c0.9,0,1.5-0.4,1.5-0.9
			c0-0.5-0.4-0.8-1.2-0.9l-1.6-0.3c-1.8-0.4-2.7-1.3-2.7-2.7c0-1.8,1.6-2.9,3.9-2.9c2.3,0,3.7,1.1,4,2.8L492.7,90.5z"/>
	</g>
	<g class="st9">
		<path class="st23" d="M325.3,128h-0.9v-6.4h0l-1.8,1.2v-0.9l1.8-1.2h0.9V128z"/>
		<path class="st23" d="M327.2,123.4c0-0.4,0.3-0.6,0.6-0.6c0.4,0,0.6,0.3,0.6,0.6c0,0.4-0.3,0.6-0.6,0.6
			C327.5,124,327.2,123.7,327.2,123.4z M327.2,127.4c0-0.4,0.3-0.6,0.6-0.6c0.4,0,0.6,0.3,0.6,0.6s-0.3,0.6-0.6,0.6
			C327.5,128.1,327.2,127.8,327.2,127.4z"/>
		<path class="st23" d="M329.6,124.4c0-2.4,0.9-3.7,2.5-3.7s2.5,1.4,2.5,3.7c0,2.4-0.9,3.7-2.5,3.7S329.6,126.7,329.6,124.4z
			 M333.8,124.4c0-1.9-0.6-3-1.7-3s-1.7,1.1-1.7,3c0,1.9,0.6,3,1.7,3S333.8,126.3,333.8,124.4z"/>
		<path class="st23" d="M335.7,124.4c0-2.4,0.9-3.7,2.5-3.7s2.5,1.4,2.5,3.7c0,2.4-0.9,3.7-2.5,3.7
			C336.6,128.1,335.7,126.7,335.7,124.4z M339.9,124.4c0-1.9-0.6-3-1.7-3c-1.1,0-1.7,1.1-1.7,3c0,1.9,0.6,3,1.7,3
			C339.3,127.3,339.9,126.3,339.9,124.4z"/>
		<path class="st23" d="M344.6,120.7h2.5c1.7,0,2.5,1,2.5,2.3s-0.8,2.3-2.5,2.3h-1.6v2.7h-0.9V120.7z M347.1,124.6
			c1.2,0,1.6-0.7,1.6-1.5c0-0.9-0.5-1.5-1.6-1.5h-1.6v3.1H347.1z"/>
		<path class="st23" d="M351.9,120.7l2.5,6h0.1l2.5-6h1.1v7.3h-0.8v-5.5H357l-2.3,5.5H354l-2.3-5.5h-0.1v5.5h-0.8v-7.3H351.9z"/>
		<path class="st23" d="M365.1,125.3H362v-0.8h3.2V125.3z"/>
		<path class="st23" d="M369,127.4l2.4-2.6c0.8-0.9,1.2-1.4,1.2-2.1c0-0.8-0.6-1.3-1.4-1.3c-0.8,0-1.4,0.6-1.4,1.4h-0.8
			c0-1.3,1-2.1,2.2-2.1c1.3,0,2.2,0.9,2.2,2c0,0.8-0.4,1.4-1.6,2.8l-1.6,1.7v0.1h3.4v0.8H369V127.4z"/>
		<path class="st23" d="M374.9,123.4c0-0.4,0.3-0.6,0.6-0.6c0.4,0,0.6,0.3,0.6,0.6c0,0.4-0.3,0.6-0.6,0.6
			C375.2,124,374.9,123.7,374.9,123.4z M374.9,127.4c0-0.4,0.3-0.6,0.6-0.6c0.4,0,0.6,0.3,0.6,0.6s-0.3,0.6-0.6,0.6
			C375.2,128.1,374.9,127.8,374.9,127.4z"/>
		<path class="st23" d="M377.4,126.2h0.9c0.1,0.7,0.7,1.1,1.6,1.1c0.9,0,1.6-0.5,1.6-1.3c0-0.8-0.6-1.4-1.7-1.4h-0.6v-0.8h0.6
			c0.9,0,1.5-0.5,1.5-1.3c0-0.7-0.5-1.2-1.3-1.2c-0.8,0-1.4,0.4-1.5,1.2h-0.9c0-1.1,1.1-1.9,2.3-1.9c1.3,0,2.2,0.9,2.2,1.9
			c0,0.8-0.5,1.4-1.2,1.6v0.1c0.9,0.2,1.5,0.8,1.5,1.7c0,1.2-1,2.1-2.5,2.1S377.5,127.3,377.4,126.2z"/>
		<path class="st23" d="M383.5,124.4c0-2.4,0.9-3.7,2.5-3.7s2.5,1.4,2.5,3.7c0,2.4-0.9,3.7-2.5,3.7
			C384.4,128.1,383.5,126.7,383.5,124.4z M387.7,124.4c0-1.9-0.6-3-1.7-3c-1.1,0-1.7,1.1-1.7,3c0,1.9,0.6,3,1.7,3
			C387.1,127.3,387.7,126.3,387.7,124.4z"/>
		<path class="st23" d="M392.4,120.7h2.5c1.7,0,2.5,1,2.5,2.3s-0.8,2.3-2.5,2.3h-1.6v2.7h-0.9V120.7z M394.9,124.6
			c1.2,0,1.6-0.7,1.6-1.5c0-0.9-0.5-1.5-1.6-1.5h-1.6v3.1H394.9z"/>
		<path class="st23" d="M399.7,120.7l2.5,6h0.1l2.5-6h1.1v7.3h-0.8v-5.5h-0.1l-2.3,5.5h-0.8l-2.3-5.5h-0.1v5.5h-0.8v-7.3H399.7z"/>
	</g>
	<line id="Line_14" class="st24" x1="417.5" y1="119" x2="417.5" y2="129"/>
	<g class="st9">
		<path class="st13" d="M428.8,124.2c-0.1-0.4-0.4-0.6-0.9-0.6c-0.5,0-0.8,0.2-0.8,0.5c0,0.3,0.2,0.4,0.7,0.5l1,0.2
			c1.1,0.2,1.6,0.7,1.6,1.5c0,1.1-1,1.8-2.4,1.8c-1.4,0-2.3-0.6-2.5-1.7l1.5-0.1c0.1,0.4,0.5,0.7,1,0.7c0.5,0,0.9-0.2,0.9-0.6
			c0-0.3-0.2-0.4-0.7-0.5l-0.9-0.2c-1.1-0.2-1.6-0.7-1.6-1.6c0-1.1,0.9-1.7,2.3-1.7c1.4,0,2.2,0.6,2.3,1.6L428.8,124.2z"/>
		<path class="st13" d="M433.9,123.7h-1v2.6c0,0.4,0.2,0.5,0.5,0.5c0.1,0,0.3,0,0.4,0l0.2,1.1c-0.2,0-0.4,0.1-0.8,0.1
			c-1.1,0-1.8-0.5-1.8-1.6v-2.8h-0.7v-1.1h0.7v-1.3h1.5v1.3h1V123.7z"/>
		<path class="st13" d="M434.5,126.5c0-1.2,1-1.6,2.1-1.7c0.9-0.1,1.3-0.1,1.3-0.5v0c0-0.4-0.3-0.7-0.8-0.7c-0.5,0-0.9,0.3-1,0.6
			l-1.4-0.1c0.2-1,1.1-1.6,2.4-1.6c1.2,0,2.3,0.5,2.3,1.8v3.7h-1.4v-0.8h0c-0.3,0.5-0.8,0.9-1.6,0.9
			C435.2,128.1,434.5,127.6,434.5,126.5z M437.9,126v-0.6c-0.2,0.1-0.7,0.2-1.1,0.2c-0.5,0.1-0.9,0.3-0.9,0.7c0,0.4,0.3,0.6,0.8,0.6
			C437.4,127.1,437.9,126.6,437.9,126z"/>
		<path class="st13" d="M440.3,122.5h1.5v1h0.1c0.2-0.7,0.7-1,1.3-1c0.2,0,0.3,0,0.5,0.1v1.3c-0.1,0-0.4-0.1-0.6-0.1
			c-0.7,0-1.2,0.5-1.2,1.1v3.1h-1.5V122.5z"/>
		<path class="st13" d="M447.4,123.7h-1v2.6c0,0.4,0.2,0.5,0.5,0.5c0.1,0,0.3,0,0.4,0l0.2,1.1c-0.2,0-0.4,0.1-0.8,0.1
			c-1.1,0-1.8-0.5-1.8-1.6v-2.8h-0.7v-1.1h0.7v-1.3h1.5v1.3h1V123.7z"/>
		<path class="st13" d="M451.3,124.2c-0.1-0.4-0.4-0.6-0.9-0.6c-0.5,0-0.8,0.2-0.8,0.5c0,0.3,0.2,0.4,0.7,0.5l1,0.2
			c1.1,0.2,1.6,0.7,1.6,1.5c0,1.1-1,1.8-2.4,1.8c-1.4,0-2.3-0.6-2.5-1.7l1.5-0.1c0.1,0.4,0.5,0.7,1,0.7c0.5,0,0.9-0.2,0.9-0.6
			c0-0.3-0.2-0.4-0.7-0.5l-0.9-0.2c-1.1-0.2-1.6-0.7-1.6-1.6c0-1.1,0.9-1.7,2.3-1.7c1.4,0,2.2,0.6,2.3,1.6L451.3,124.2z"/>
		<path class="st13" d="M455.6,121.1c0-0.4,0.4-0.8,0.8-0.8c0.5,0,0.8,0.3,0.8,0.8c0,0.4-0.4,0.8-0.8,0.8
			C456,121.8,455.6,121.5,455.6,121.1z M455.7,122.5h1.5v5.5h-1.5V122.5z"/>
		<path class="st13" d="M459.7,128h-1.5v-5.5h1.4v1h0.1c0.2-0.6,0.8-1,1.6-1c1.1,0,1.9,0.8,1.9,2.1v3.5h-1.5v-3.2
			c0-0.7-0.4-1.1-1-1.1c-0.6,0-1,0.4-1,1.1V128z"/>
		<path class="st13" d="M466.4,126.9l2.6-2.4c0.7-0.6,1-1,1-1.6c0-0.6-0.5-1-1.1-1c-0.7,0-1.1,0.4-1.1,1.1h-1.5c0-1.4,1-2.3,2.6-2.3
			c1.6,0,2.6,0.9,2.6,2.2c0,0.8-0.4,1.5-1.9,2.9l-1.1,1v0h3.1v1.3h-5.2V126.9z"/>
		<path class="st13" d="M472.4,125.9h1.6c0,0.5,0.5,0.9,1.2,0.9c0.7,0,1.2-0.4,1.2-1c0-0.6-0.5-1-1.3-1h-0.7v-1.1h0.7
			c0.7,0,1.2-0.4,1.2-1c0-0.5-0.4-0.9-1-0.9c-0.6,0-1.1,0.4-1.2,0.9h-1.5c0-1.3,1.1-2.1,2.6-2.1c1.5,0,2.5,0.9,2.5,2.1
			c0,0.8-0.6,1.4-1.4,1.5v0.1c1.1,0.1,1.6,0.8,1.6,1.7c0,1.2-1.2,2.1-2.8,2.1C473.6,128.1,472.4,127.2,472.4,125.9z"/>
		<path class="st13" d="M481,122.5h1.4v1h0.1c0.2-0.6,0.8-1,1.5-1c0.8,0,1.3,0.4,1.5,1h0.1c0.2-0.6,0.8-1,1.6-1c1,0,1.7,0.7,1.7,1.9
			v3.7h-1.5v-3.4c0-0.6-0.4-0.9-0.8-0.9c-0.6,0-0.9,0.4-0.9,0.9v3.3h-1.5v-3.4c0-0.5-0.3-0.9-0.8-0.9c-0.5,0-0.9,0.4-0.9,1v3.3H481
			V122.5z"/>
		<path class="st13" d="M489.9,121.1c0-0.4,0.4-0.8,0.8-0.8c0.5,0,0.8,0.3,0.8,0.8c0,0.4-0.4,0.8-0.8,0.8
			C490.3,121.8,489.9,121.5,489.9,121.1z M489.9,122.5h1.5v5.5h-1.5V122.5z"/>
		<path class="st13" d="M494,128h-1.5v-5.5h1.4v1h0.1c0.2-0.6,0.8-1,1.6-1c1.1,0,1.9,0.8,1.9,2.1v3.5H496v-3.2c0-0.7-0.4-1.1-1-1.1
			c-0.6,0-1,0.4-1,1.1V128z"/>
		<path class="st13" d="M501.7,124.2c-0.1-0.4-0.4-0.6-0.9-0.6c-0.5,0-0.8,0.2-0.8,0.5c0,0.3,0.2,0.4,0.7,0.5l1,0.2
			c1.1,0.2,1.6,0.7,1.6,1.5c0,1.1-1,1.8-2.4,1.8c-1.4,0-2.3-0.6-2.5-1.7l1.5-0.1c0.1,0.4,0.5,0.7,1,0.7c0.5,0,0.9-0.2,0.9-0.6
			c0-0.3-0.2-0.4-0.7-0.5l-0.9-0.2c-1.1-0.2-1.6-0.7-1.6-1.6c0-1.1,0.9-1.7,2.3-1.7c1.4,0,2.2,0.6,2.3,1.6L501.7,124.2z"/>
	</g>
	<g class="st9">
		<path class="st23" d="M323.9,142.7l2.5,6h0.1l2.5-6h1.1v7.3h-0.8v-5.5h-0.1l-2.3,5.5h-0.8l-2.3-5.5h-0.1v5.5h-0.8v-7.3H323.9z"/>
		<path class="st23" d="M331.2,147.3c0-1.7,1-2.8,2.5-2.8c1.1,0,2.3,0.7,2.3,2.7v0.4h-4c0,1.2,0.7,1.8,1.7,1.8
			c0.7,0,1.2-0.3,1.4-0.9l0.8,0.2c-0.3,0.8-1.1,1.4-2.2,1.4C332.2,150.1,331.2,149,331.2,147.3z M335.2,146.8c0-0.9-0.6-1.6-1.5-1.6
			c-1,0-1.6,0.8-1.6,1.6H335.2z"/>
		<path class="st23" d="M336.8,147.3c0-1.7,1-2.8,2.5-2.8c1.1,0,2.3,0.7,2.3,2.7v0.4h-4c0,1.2,0.7,1.8,1.7,1.8
			c0.7,0,1.2-0.3,1.4-0.9l0.8,0.2c-0.3,0.8-1.1,1.4-2.2,1.4C337.8,150.1,336.8,149,336.8,147.3z M340.8,146.8c0-0.9-0.6-1.6-1.5-1.6
			c-1,0-1.6,0.8-1.6,1.6H340.8z"/>
		<path class="st23" d="M345.1,145.3h-1.2v3.2c0,0.7,0.4,0.8,0.7,0.8c0.2,0,0.3,0,0.4,0l0.2,0.8c-0.1,0-0.3,0.1-0.6,0.1
			c-0.7,0-1.5-0.5-1.5-1.4v-3.4h-0.8v-0.7h0.8v-1.3h0.8v1.3h1.2V145.3z"/>
		<path class="st23" d="M346,143.1c0-0.3,0.3-0.6,0.6-0.6c0.3,0,0.6,0.3,0.6,0.6c0,0.3-0.3,0.6-0.6,0.6
			C346.3,143.6,346,143.4,346,143.1z M346.2,144.5h0.8v5.5h-0.8V144.5z"/>
		<path class="st23" d="M349.2,150h-0.8v-5.5h0.8v0.9h0.1c0.3-0.6,0.8-0.9,1.6-0.9c1.1,0,1.8,0.7,1.8,2.1v3.5h-0.8v-3.4
			c0-0.9-0.5-1.4-1.3-1.4c-0.8,0-1.4,0.5-1.4,1.5V150z"/>
		<path class="st23" d="M354,151.1l0.7-0.5c0.2,0.3,0.6,0.8,1.6,0.8c0.9,0,1.5-0.4,1.5-1.3V149h-0.1c-0.2,0.3-0.5,0.9-1.6,0.9
			c-1.3,0-2.3-1-2.3-2.7c0-1.7,1-2.8,2.3-2.8c1.1,0,1.4,0.7,1.6,0.9h0.1v-0.9h0.8v5.6c0,1.4-1.1,2-2.4,2
			C355,152.2,354.3,151.6,354,151.1z M357.8,147.2c0-1.2-0.5-2-1.6-2c-1.1,0-1.6,0.9-1.6,2c0,1.1,0.5,1.9,1.6,1.9
			C357.2,149.2,357.8,148.4,357.8,147.2z"/>
		<path class="st23" d="M363.5,150h-0.9v-7.3h0.9V150z"/>
		<path class="st23" d="M365.1,150v-7.3h2.3c2.1,0,3.4,1.4,3.4,3.6c0,2.3-1.3,3.7-3.5,3.7H365.1z M367.3,149.2
			c1.8,0,2.7-1.1,2.7-2.9c0-1.8-0.9-2.8-2.6-2.8H366v5.7H367.3z"/>
		<path class="st23" d="M372,145.4c0-0.4,0.3-0.6,0.6-0.6c0.4,0,0.6,0.3,0.6,0.6c0,0.4-0.3,0.6-0.6,0.6
			C372.3,146,372,145.7,372,145.4z M372,149.4c0-0.4,0.3-0.6,0.6-0.6c0.4,0,0.6,0.3,0.6,0.6s-0.3,0.6-0.6,0.6
			C372.3,150.1,372,149.8,372,149.4z"/>
		<path class="st23" d="M377.2,148.2h0.9c0.1,0.7,0.7,1.1,1.4,1.1c0.9,0,1.5-0.7,1.5-1.6c0-1-0.7-1.7-1.6-1.7c-0.4,0-1,0.2-1.3,0.4
			l-0.8-0.1l0.4-3.6h3.8v0.8h-3l-0.3,2.1h0c0.3-0.2,0.8-0.4,1.3-0.4c1.3,0,2.3,1,2.3,2.4c0,1.4-1,2.4-2.4,2.4
			C378.2,150.1,377.2,149.3,377.2,148.2z"/>
		<path class="st23" d="M383.1,148.2h0.9c0.1,0.7,0.7,1.1,1.6,1.1c0.9,0,1.6-0.5,1.6-1.3c0-0.8-0.6-1.4-1.7-1.4h-0.6v-0.8h0.6
			c0.9,0,1.5-0.5,1.5-1.3c0-0.7-0.5-1.2-1.3-1.2c-0.8,0-1.4,0.4-1.5,1.2h-0.9c0-1.1,1.1-1.9,2.3-1.9c1.3,0,2.2,0.9,2.2,1.9
			c0,0.8-0.5,1.4-1.2,1.6v0.1c0.9,0.2,1.5,0.8,1.5,1.7c0,1.2-1,2.1-2.5,2.1S383.1,149.3,383.1,148.2z"/>
		<path class="st23" d="M389.3,148.2h0.9c0.1,0.7,0.7,1.1,1.4,1.1c0.9,0,1.5-0.7,1.5-1.6c0-1-0.7-1.7-1.6-1.7c-0.4,0-1,0.2-1.3,0.4
			l-0.8-0.1l0.4-3.6h3.8v0.8h-3l-0.3,2.1h0c0.3-0.2,0.8-0.4,1.3-0.4c1.3,0,2.3,1,2.3,2.4c0,1.4-1,2.4-2.4,2.4
			C390.3,150.1,389.3,149.3,389.3,148.2z"/>
		<path class="st23" d="M398.3,147.3h-3.2v-0.8h3.2V147.3z"/>
		<path class="st23" d="M402.8,143.6L402.8,143.6l-3.8-0.1v-0.8h4.7v0.8l-3.2,6.5h-0.9L402.8,143.6z"/>
		<path class="st23" d="M404.1,147.8l3.2-5.1h1.1v5h1v0.8h-1v1.5h-0.8v-1.5h-3.4V147.8z M407.5,143.8L407.5,143.8l-2.5,3.8v0.1h2.5
			V143.8z"/>
		<path class="st23" d="M410.3,146.4c0-2.4,0.9-3.7,2.5-3.7s2.5,1.4,2.5,3.7c0,2.4-0.9,3.7-2.5,3.7S410.3,148.7,410.3,146.4z
			 M414.5,146.4c0-1.9-0.6-3-1.7-3s-1.7,1.1-1.7,3c0,1.9,0.6,3,1.7,3S414.5,148.3,414.5,146.4z"/>
		<path class="st23" d="M419.7,147.3h-3.2v-0.8h3.2V147.3z"/>
		<path class="st23" d="M420.8,146.4c0-2.4,0.9-3.7,2.5-3.7s2.5,1.4,2.5,3.7c0,2.4-0.9,3.7-2.5,3.7
			C421.7,150.1,420.8,148.7,420.8,146.4z M425,146.4c0-1.9-0.6-3-1.7-3c-1.1,0-1.7,1.1-1.7,3c0,1.9,0.6,3,1.7,3
			C424.4,149.3,425,148.3,425,146.4z"/>
		<path class="st23" d="M427,149.4l2.4-2.6c0.8-0.9,1.2-1.4,1.2-2.1c0-0.8-0.6-1.3-1.4-1.3c-0.8,0-1.4,0.6-1.4,1.4H427
			c0-1.3,1-2.1,2.2-2.1c1.3,0,2.2,0.9,2.2,2c0,0.8-0.4,1.4-1.6,2.8l-1.6,1.7v0.1h3.4v0.8H427V149.4z"/>
		<path class="st23" d="M432.9,148.2h0.9c0.1,0.7,0.7,1.1,1.4,1.1c0.9,0,1.5-0.7,1.5-1.6c0-1-0.7-1.7-1.6-1.7c-0.4,0-1,0.2-1.3,0.4
			l-0.8-0.1l0.4-3.6h3.8v0.8h-3l-0.3,2.1h0c0.3-0.2,0.8-0.4,1.3-0.4c1.3,0,2.3,1,2.3,2.4c0,1.4-1,2.4-2.4,2.4
			C433.9,150.1,432.9,149.3,432.9,148.2z"/>
		<path class="st23" d="M441.3,150h-0.9v-6.4h0l-1.8,1.2v-0.9l1.8-1.2h0.9V150z"/>
	</g>
	<g class="st9">
		<path class="st23" d="M322.9,164.7h0.9v3.2h3.9v-3.2h0.9v7.3h-0.9v-3.3h-3.9v3.3h-0.9V164.7z"/>
		<path class="st23" d="M329.7,169.3c0-1.7,1-2.8,2.5-2.8c1.5,0,2.5,1.1,2.5,2.8c0,1.7-1,2.8-2.5,2.8
			C330.7,172.1,329.7,171,329.7,169.3z M333.8,169.3c0-1.1-0.5-2.1-1.6-2.1c-1.1,0-1.6,1-1.6,2.1s0.5,2.1,1.6,2.1
			C333.3,171.4,333.8,170.4,333.8,169.3z"/>
		<path class="st23" d="M338.9,168c-0.1-0.4-0.4-0.8-1.2-0.8c-0.7,0-1.2,0.3-1.2,0.8c0,0.4,0.3,0.6,0.9,0.8l0.8,0.2
			c1,0.2,1.5,0.7,1.5,1.5c0,0.9-0.9,1.6-2.1,1.6c-1.1,0-1.9-0.5-2.1-1.4l0.8-0.2c0.1,0.6,0.6,0.9,1.3,0.9c0.8,0,1.3-0.4,1.3-0.9
			c0-0.4-0.3-0.6-0.8-0.8l-0.9-0.2c-1-0.2-1.5-0.7-1.5-1.5c0-0.9,0.9-1.6,2-1.6c1.1,0,1.7,0.5,1.9,1.3L338.9,168z"/>
		<path class="st23" d="M343.2,167.3H342v3.2c0,0.7,0.4,0.8,0.7,0.8c0.2,0,0.3,0,0.4,0l0.2,0.8c-0.1,0-0.3,0.1-0.6,0.1
			c-0.7,0-1.5-0.5-1.5-1.4v-3.4h-0.8v-0.7h0.8v-1.3h0.8v1.3h1.2V167.3z"/>
		<path class="st23" d="M344.2,167.4c0-0.4,0.3-0.6,0.6-0.6c0.4,0,0.6,0.3,0.6,0.6c0,0.4-0.3,0.6-0.6,0.6
			C344.5,168,344.2,167.7,344.2,167.4z M344.2,171.4c0-0.4,0.3-0.6,0.6-0.6c0.4,0,0.6,0.3,0.6,0.6s-0.3,0.6-0.6,0.6
			C344.5,172.1,344.2,171.8,344.2,171.4z"/>
		<path class="st23" d="M349.5,164.7h2.5c1.7,0,2.5,1,2.5,2.3s-0.8,2.3-2.5,2.3h-1.6v2.7h-0.9V164.7z M352,168.6
			c1.2,0,1.6-0.7,1.6-1.5c0-0.9-0.5-1.5-1.6-1.5h-1.5v3.1H352z"/>
		<path class="st23" d="M355.6,166.5h0.8v0.8h0.1c0.2-0.5,0.8-0.9,1.4-0.9c0.1,0,0.3,0,0.4,0v0.9c-0.1,0-0.3-0.1-0.5-0.1
			c-0.8,0-1.4,0.5-1.4,1.3v3.5h-0.8V166.5z"/>
		<path class="st23" d="M358.7,169.3c0-1.7,1-2.8,2.5-2.8c1.5,0,2.5,1.1,2.5,2.8c0,1.7-1,2.8-2.5,2.8
			C359.7,172.1,358.7,171,358.7,169.3z M362.8,169.3c0-1.1-0.5-2.1-1.6-2.1c-1.1,0-1.6,1-1.6,2.1s0.5,2.1,1.6,2.1
			C362.3,171.4,362.8,170.4,362.8,169.3z"/>
		<path class="st23" d="M367.2,167.3h-1.2v4.8h-0.8v-4.8h-0.9v-0.7h0.9v-0.8c0-0.9,0.8-1.4,1.5-1.4c0.4,0,0.7,0.1,0.8,0.1l-0.2,0.7
			c-0.1,0-0.2-0.1-0.5-0.1c-0.6,0-0.8,0.3-0.8,0.8v0.6h1.2V167.3z"/>
		<path class="st23" d="M367.7,169.3c0-1.7,1-2.8,2.5-2.8c1.1,0,2.3,0.7,2.3,2.7v0.4h-4c0,1.2,0.7,1.8,1.7,1.8
			c0.7,0,1.2-0.3,1.4-0.9l0.8,0.2c-0.3,0.8-1.1,1.4-2.2,1.4C368.6,172.1,367.7,171,367.7,169.3z M371.6,168.8c0-0.9-0.6-1.6-1.5-1.6
			c-1,0-1.6,0.8-1.6,1.6H371.6z"/>
		<path class="st23" d="M376.7,168c-0.1-0.4-0.4-0.8-1.2-0.8c-0.7,0-1.2,0.3-1.2,0.8c0,0.4,0.3,0.6,0.9,0.8l0.8,0.2
			c1,0.2,1.5,0.7,1.5,1.5c0,0.9-0.9,1.6-2.1,1.6c-1.1,0-1.9-0.5-2.1-1.4l0.8-0.2c0.1,0.6,0.6,0.9,1.3,0.9c0.8,0,1.3-0.4,1.3-0.9
			c0-0.4-0.3-0.6-0.8-0.8l-0.9-0.2c-1-0.2-1.5-0.7-1.5-1.5c0-0.9,0.9-1.6,2-1.6c1.1,0,1.7,0.5,1.9,1.3L376.7,168z"/>
		<path class="st23" d="M381.7,168c-0.1-0.4-0.4-0.8-1.2-0.8c-0.7,0-1.2,0.3-1.2,0.8c0,0.4,0.3,0.6,0.9,0.8l0.8,0.2
			c1,0.2,1.5,0.7,1.5,1.5c0,0.9-0.9,1.6-2.1,1.6c-1.1,0-1.9-0.5-2.1-1.4l0.8-0.2c0.1,0.6,0.6,0.9,1.3,0.9c0.8,0,1.3-0.4,1.3-0.9
			c0-0.4-0.3-0.6-0.8-0.8l-0.9-0.2c-1-0.2-1.5-0.7-1.5-1.5c0-0.9,0.9-1.6,2-1.6c1.1,0,1.7,0.5,1.9,1.3L381.7,168z"/>
		<path class="st23" d="M383.4,169.3c0-1.7,1-2.8,2.5-2.8c1.5,0,2.5,1.1,2.5,2.8c0,1.7-1,2.8-2.5,2.8
			C384.4,172.1,383.4,171,383.4,169.3z M387.5,169.3c0-1.1-0.5-2.1-1.6-2.1c-1.1,0-1.6,1-1.6,2.1s0.5,2.1,1.6,2.1
			C387,171.4,387.5,170.4,387.5,169.3z"/>
		<path class="st23" d="M389.4,166.5h0.8v0.8h0.1c0.2-0.5,0.8-0.9,1.4-0.9c0.1,0,0.3,0,0.4,0v0.9c-0.1,0-0.3-0.1-0.5-0.1
			c-0.8,0-1.4,0.5-1.4,1.3v3.5h-0.8V166.5z"/>
		<path class="st23" d="M395.3,164.7h5.5v0.8h-2.3v6.5h-0.9v-6.5h-2.3V164.7z"/>
		<path class="st23" d="M400.7,169.3c0-1.7,1-2.8,2.5-2.8c1.1,0,2.3,0.7,2.3,2.7v0.4h-4c0,1.2,0.7,1.8,1.7,1.8
			c0.7,0,1.2-0.3,1.4-0.9l0.8,0.2c-0.3,0.8-1.1,1.4-2.2,1.4C401.7,172.1,400.7,171,400.7,169.3z M404.7,168.8c0-0.9-0.6-1.6-1.5-1.6
			c-1,0-1.6,0.8-1.6,1.6H404.7z"/>
		<path class="st23" d="M406.4,169.3c0-1.7,1-2.8,2.3-2.8c1.1,0,1.4,0.7,1.6,0.9h0.1v-2.7h0.8v7.3h-0.8v-0.8h-0.1
			c-0.2,0.3-0.5,1-1.6,1C407.3,172.1,406.4,171,406.4,169.3z M410.4,169.3c0-1.2-0.5-2-1.6-2c-1.1,0-1.6,0.9-1.6,2
			c0,1.2,0.5,2.1,1.6,2.1C409.8,171.4,410.4,170.5,410.4,169.3z"/>
		<path class="st23" d="M416.4,164.7l2.5,6h0.1l2.5-6h1.1v7.3h-0.8v-5.5h-0.1l-2.3,5.5h-0.8l-2.3-5.5h-0.1v5.5h-0.8v-7.3H416.4z"/>
		<path class="st23" d="M423.7,169.3c0-1.7,1-2.8,2.5-2.8c1.5,0,2.5,1.1,2.5,2.8c0,1.7-1,2.8-2.5,2.8
			C424.7,172.1,423.7,171,423.7,169.3z M427.8,169.3c0-1.1-0.5-2.1-1.6-2.1c-1.1,0-1.6,1-1.6,2.1s0.5,2.1,1.6,2.1
			C427.3,171.4,427.8,170.4,427.8,169.3z"/>
		<path class="st23" d="M432.9,168c-0.1-0.4-0.4-0.8-1.2-0.8c-0.7,0-1.2,0.3-1.2,0.8c0,0.4,0.3,0.6,0.9,0.8l0.8,0.2
			c1,0.2,1.5,0.7,1.5,1.5c0,0.9-0.9,1.6-2.1,1.6c-1.1,0-1.9-0.5-2.1-1.4l0.8-0.2c0.1,0.6,0.6,0.9,1.3,0.9c0.8,0,1.3-0.4,1.3-0.9
			c0-0.4-0.3-0.6-0.8-0.8l-0.9-0.2c-1-0.2-1.5-0.7-1.5-1.5c0-0.9,0.9-1.6,2-1.6c1.1,0,1.7,0.5,1.9,1.3L432.9,168z"/>
		<path class="st23" d="M434.9,164.7h0.8v2.7h0.1c0.2-0.3,0.5-0.9,1.6-0.9c1.4,0,2.3,1.1,2.3,2.8c0,1.7-1,2.8-2.3,2.8
			c-1.1,0-1.4-0.7-1.6-1h-0.1v0.8h-0.8V164.7z M437.3,171.4c1.1,0,1.6-0.9,1.6-2.1c0-1.2-0.5-2-1.6-2c-1,0-1.6,0.8-1.6,2
			C435.7,170.5,436.3,171.4,437.3,171.4z"/>
		<path class="st23" d="M440.5,173.9l0.2-0.7c0.6,0.2,1,0.1,1.3-0.8l0.2-0.4l-2-5.5h0.9l1.5,4.4h0.1l1.5-4.4h0.9l-2.3,6.3
			c-0.3,0.8-0.9,1.3-1.6,1.3C440.9,174,440.6,174,440.5,173.9z"/>
	</g>
	<g class="st9">
		<path class="st8" d="M488.1,30.1c-0.1-0.8-0.8-1.2-1.5-1.2c-1,0-1.8,0.8-1.8,2.2c0,1.4,0.8,2.2,1.7,2.2c0.7,0,1.4-0.4,1.5-1.2
			l0.9,0c-0.2,1.1-1.1,1.9-2.4,1.9c-1.5,0-2.6-1.1-2.6-3s1.1-3,2.6-3c1.2,0,2.2,0.7,2.4,2H488.1z"/>
		<path class="st8" d="M489.6,31.8c0-1.4,0.8-2.3,2-2.3c1.2,0,2,0.9,2,2.3c0,1.3-0.8,2.2-2,2.2C490.4,34.1,489.6,33.2,489.6,31.8z
			 M492.8,31.8c0-0.8-0.4-1.5-1.2-1.5c-0.8,0-1.2,0.7-1.2,1.5c0,0.8,0.4,1.5,1.2,1.5C492.4,33.4,492.8,32.7,492.8,31.8z"/>
		<path class="st8" d="M495.3,34h-0.8v-4.4h0.8v0.7h0.1c0.2-0.5,0.6-0.8,1.3-0.8c0.9,0,1.5,0.6,1.5,1.6V34h-0.8v-2.7
			c0-0.6-0.3-1-0.9-1c-0.6,0-1,0.4-1,1.1V34z"/>
		<path class="st8" d="M501.1,30.3h-0.9v2.4c0,0.5,0.2,0.6,0.5,0.6c0.1,0,0.2,0,0.3,0l0.2,0.7c-0.1,0-0.3,0.1-0.6,0.1
			c-0.7,0-1.3-0.4-1.3-1.2v-2.6h-0.6v-0.7h0.6v-1h0.8v1h0.9V30.3z"/>
		<path class="st8" d="M501.7,32.8c0-1,0.8-1.2,1.7-1.3c0.8-0.1,1.1-0.1,1.1-0.4v0c0-0.5-0.3-0.8-0.8-0.8c-0.6,0-0.9,0.3-1,0.6
			l-0.8-0.2c0.3-0.8,1-1.1,1.8-1.1c0.7,0,1.7,0.3,1.7,1.5V34h-0.8v-0.6h0c-0.2,0.3-0.6,0.7-1.3,0.7
			C502.3,34.1,501.7,33.6,501.7,32.8z M504.5,32.4v-0.6c-0.1,0.1-0.8,0.2-1,0.2c-0.5,0.1-0.9,0.2-0.9,0.7c0,0.4,0.3,0.6,0.8,0.6
			C504,33.4,504.5,32.9,504.5,32.4z"/>
		<path class="st8" d="M506.1,31.8c0-1.3,0.8-2.3,2-2.3c1,0,1.7,0.6,1.8,1.5h-0.8c-0.1-0.4-0.4-0.8-1-0.8c-0.7,0-1.2,0.6-1.2,1.5
			c0,1,0.5,1.5,1.2,1.5c0.5,0,0.9-0.3,1-0.7h0.8c-0.1,0.8-0.8,1.5-1.8,1.5C506.8,34.1,506.1,33.2,506.1,31.8z"/>
		<path class="st8" d="M512.7,30.3h-0.9v2.4c0,0.5,0.2,0.6,0.5,0.6c0.1,0,0.2,0,0.3,0l0.2,0.7c-0.1,0-0.3,0.1-0.6,0.1
			c-0.7,0-1.3-0.4-1.3-1.2v-2.6h-0.6v-0.7h0.6v-1h0.8v1h0.9V30.3z"/>
		<path class="st8" d="M515.9,30.8c-0.1-0.3-0.3-0.6-0.9-0.6c-0.5,0-0.8,0.2-0.8,0.6c0,0.3,0.2,0.5,0.7,0.6l0.7,0.2
			c0.8,0.2,1.2,0.6,1.2,1.2c0,0.8-0.7,1.3-1.8,1.3c-1,0-1.6-0.4-1.8-1.2l0.8-0.1c0.1,0.4,0.4,0.6,0.9,0.6c0.6,0,0.9-0.3,0.9-0.6
			c0-0.3-0.2-0.5-0.6-0.6l-0.7-0.2c-0.8-0.2-1.2-0.6-1.2-1.2c0-0.8,0.7-1.3,1.7-1.3c0.9,0,1.5,0.4,1.6,1.1L515.9,30.8z"/>
	</g>
	<path id="Rectangle_1519" class="st25" d="M20,126h259c3.3,0,6,2.7,6,6v42c0,3.3-2.7,6-6,6H20c-3.3,0-6-2.7-6-6v-42
		C14,128.7,16.7,126,20,126z"/>
	<path id="Icon_awesome-address-book" class="st26" d="M505.6,16.2c0.1,0,0.2-0.1,0.2-0.2v-0.8c0-0.1-0.1-0.2-0.2-0.2h-0.4v-1
		c0-0.5-0.4-1-1-1h-6.6c-0.5,0-1,0.4-1,1v8.5c0,0.5,0.4,1,1,1h6.6c0.5,0,1-0.4,1-1v-1h0.4c0.1,0,0.2-0.1,0.2-0.2c0,0,0,0,0,0v-0.8
		c0-0.1-0.1-0.2-0.2-0.2h-0.4v-1.3h0.4c0.1,0,0.2-0.1,0.2-0.2v-0.8c0-0.1-0.1-0.2-0.2-0.2c0,0,0,0,0,0h-0.4v-1.3H505.6z M500.9,15.5
		c0.7,0,1.3,0.6,1.3,1.3c0,0.7-0.6,1.3-1.3,1.3c-0.7,0-1.3-0.6-1.3-1.3C499.6,16.1,500.2,15.5,500.9,15.5z M503.2,20.4
		c0,0.2-0.2,0.4-0.5,0.4h-3.7c-0.2,0-0.4-0.2-0.5-0.4V20c0.1-0.7,0.7-1.2,1.4-1.2h0.1c0.5,0.2,1.1,0.2,1.6,0h0.1
		c0.7-0.1,1.3,0.5,1.4,1.2V20.4z"/>
	<g class="st9">
		<path class="st0" d="M24.9,146v-8.7h3c2.6,0,4.2,1.6,4.2,4.4c0,2.7-1.6,4.4-4.2,4.4H24.9z M27.7,144.6c1.8,0,2.7-1,2.7-3
			c0-2-0.9-3-2.7-3h-1.3v6H27.7z"/>
		<path class="st0" d="M33,142.8c0-2,1.2-3.4,3.1-3.4c1.6,0,3,1,3,3.3v0.5h-4.6c0,1.1,0.7,1.8,1.7,1.8c0.7,0,1.2-0.3,1.4-0.8
			l1.4,0.2c-0.3,1.1-1.3,1.9-2.8,1.9C34.2,146.1,33,144.8,33,142.8z M37.6,142.1c0-0.9-0.6-1.5-1.5-1.5c-0.9,0-1.5,0.7-1.6,1.5H37.6
			z"/>
		<path class="st0" d="M43.9,141.3c-0.1-0.4-0.5-0.8-1.2-0.8c-0.6,0-1.1,0.3-1.1,0.7c0,0.4,0.3,0.6,0.9,0.8l1.1,0.2
			c1.2,0.3,1.8,0.8,1.8,1.8c0,1.2-1.2,2.1-2.8,2.1c-1.6,0-2.6-0.7-2.8-1.9l1.5-0.1c0.1,0.6,0.6,0.9,1.3,0.9c0.7,0,1.2-0.3,1.2-0.8
			c0-0.4-0.3-0.6-0.9-0.7l-1.1-0.2c-1.3-0.3-1.8-0.9-1.8-1.8c0-1.2,1.1-2,2.6-2c1.5,0,2.4,0.7,2.6,1.8L43.9,141.3z"/>
		<path class="st0" d="M46.3,137.7c0-0.5,0.4-0.8,0.9-0.8c0.5,0,0.9,0.4,0.9,0.8c0,0.5-0.4,0.8-0.9,0.8
			C46.7,138.5,46.3,138.2,46.3,137.7z M46.5,139.5H48v6.5h-1.5V139.5z"/>
		<path class="st0" d="M49.3,146.9l1.4-0.3c0.2,0.4,0.6,0.8,1.5,0.8c0.9,0,1.5-0.4,1.5-1.4v-1.2h-0.1c-0.2,0.5-0.8,1.1-1.9,1.1
			c-1.5,0-2.7-1.1-2.7-3.2c0-2.1,1.2-3.3,2.7-3.3c1.2,0,1.6,0.7,1.9,1.2h0.1v-1.1h1.5v6.6c0,1.7-1.3,2.5-3.1,2.5
			C50.5,148.6,49.6,147.9,49.3,146.9z M53.7,142.7c0-1.2-0.5-2.1-1.5-2.1c-1,0-1.6,0.9-1.6,2.1c0,1.2,0.5,2,1.6,2
			C53.2,144.7,53.7,143.9,53.7,142.7z"/>
		<path class="st0" d="M58.2,146h-1.5v-6.5h1.5v1.1h0.1c0.3-0.7,1-1.2,2-1.2c1.3,0,2.2,0.9,2.2,2.5v4.2h-1.5v-3.9
			c0-0.9-0.5-1.4-1.3-1.4c-0.8,0-1.4,0.5-1.4,1.5V146z"/>
		<path class="st0" d="M66.5,137.3h5.6v1.3h-4v2.4h3.6v1.3h-3.6v3.7h-1.6V137.3z"/>
		<path class="st0" d="M77,139.5h1.5v6.5H77v-1.2H77c-0.3,0.7-1,1.2-2,1.2c-1.3,0-2.2-0.9-2.2-2.5v-4.2h1.5v3.9
			c0,0.8,0.5,1.4,1.2,1.4c0.7,0,1.4-0.5,1.4-1.5V139.5z"/>
		<path class="st0" d="M81.4,146h-1.5v-6.5h1.5v1.1h0.1c0.3-0.7,1-1.2,2-1.2c1.3,0,2.2,0.9,2.2,2.5v4.2h-1.5v-3.9
			c0-0.9-0.5-1.4-1.3-1.4c-0.8,0-1.4,0.5-1.4,1.5V146z"/>
		<path class="st0" d="M86.7,142.7c0-2.2,1.2-3.4,2.7-3.4c1.2,0,1.6,0.7,1.9,1.2h0.1v-3.3h1.5v8.7h-1.5v-1h-0.1
			c-0.2,0.5-0.7,1.1-1.9,1.1C87.8,146.1,86.7,144.9,86.7,142.7z M91.3,142.7c0-1.3-0.5-2.1-1.5-2.1c-1,0-1.6,0.9-1.6,2.1
			c0,1.2,0.5,2.1,1.6,2.1C90.8,144.9,91.3,144,91.3,142.7z"/>
		<path class="st0" d="M94,144.2c0-1.5,1.2-1.9,2.5-2c1.2-0.1,1.6-0.1,1.6-0.6v0c0-0.6-0.4-1-1.1-1c-0.8,0-1.2,0.4-1.3,0.8l-1.4-0.2
			c0.3-1.2,1.4-1.8,2.8-1.8c1.2,0,2.7,0.5,2.7,2.2v4.4h-1.5v-0.9h-0.1c-0.3,0.5-0.9,1-1.9,1C94.9,146.1,94,145.5,94,144.2z
			 M98.1,143.7v-0.8c-0.2,0.2-1,0.3-1.4,0.3c-0.7,0.1-1.2,0.3-1.2,0.9c0,0.6,0.5,0.9,1.1,0.9C97.5,145,98.1,144.4,98.1,143.7z"/>
		<path class="st0" d="M100.9,139.5h1.5v1.1h0.1c0.3-0.7,0.9-1.2,1.8-1.2c0.9,0,1.5,0.5,1.8,1.2h0.1c0.3-0.7,1-1.2,2-1.2
			c1.2,0,2,0.8,2,2.2v4.4h-1.5v-4.2c0-0.8-0.5-1.2-1.1-1.2c-0.7,0-1.2,0.5-1.2,1.2v4.1h-1.5v-4.2c0-0.7-0.4-1.1-1.1-1.1
			c-0.7,0-1.2,0.5-1.2,1.3v4h-1.5V139.5z"/>
		<path class="st0" d="M111.2,142.8c0-2,1.2-3.4,3.1-3.4c1.6,0,3,1,3,3.3v0.5h-4.6c0,1.1,0.7,1.8,1.7,1.8c0.7,0,1.2-0.3,1.4-0.8
			l1.4,0.2c-0.3,1.1-1.3,1.9-2.8,1.9C112.4,146.1,111.2,144.8,111.2,142.8z M115.8,142.1c0-0.9-0.6-1.5-1.5-1.5
			c-0.9,0-1.5,0.7-1.6,1.5H115.8z"/>
		<path class="st0" d="M119.9,146h-1.5v-6.5h1.5v1.1h0.1c0.3-0.7,1-1.2,1.9-1.2c1.3,0,2.2,0.9,2.2,2.5v4.2h-1.5v-3.9
			c0-0.9-0.5-1.4-1.3-1.4c-0.8,0-1.4,0.5-1.4,1.5V146z"/>
		<path class="st0" d="M128.7,140.7h-1.3v3.4c0,0.6,0.3,0.8,0.7,0.8c0.2,0,0.4,0,0.5-0.1l0.3,1.2c-0.2,0.1-0.5,0.1-0.9,0.2
			c-1.2,0-2.1-0.6-2-1.8v-3.6h-0.9v-1.2h0.9v-1.6h1.5v1.6h1.3V140.7z"/>
		<path class="st0" d="M129.4,144.2c0-1.5,1.2-1.9,2.5-2c1.2-0.1,1.6-0.1,1.6-0.6v0c0-0.6-0.4-1-1.1-1c-0.8,0-1.2,0.4-1.3,0.8
			l-1.4-0.2c0.3-1.2,1.4-1.8,2.8-1.8c1.2,0,2.7,0.5,2.7,2.2v4.4h-1.5v-0.9h-0.1c-0.3,0.5-0.9,1-1.9,1
			C130.4,146.1,129.4,145.5,129.4,144.2z M133.5,143.7v-0.8c-0.2,0.2-1,0.3-1.4,0.3c-0.7,0.1-1.2,0.3-1.2,0.9c0,0.6,0.5,0.9,1.1,0.9
			C132.9,145,133.5,144.4,133.5,143.7z"/>
		<path class="st0" d="M137.9,146h-1.5v-8.7h1.5V146z"/>
		<path class="st0" d="M143,141.3c-0.1-0.4-0.5-0.8-1.2-0.8c-0.6,0-1.1,0.3-1.1,0.7c0,0.4,0.3,0.6,0.9,0.8l1.1,0.2
			c1.2,0.3,1.8,0.8,1.8,1.8c0,1.2-1.2,2.1-2.8,2.1c-1.6,0-2.6-0.7-2.8-1.9l1.5-0.1c0.1,0.6,0.6,0.9,1.3,0.9c0.7,0,1.2-0.3,1.2-0.8
			c0-0.4-0.3-0.6-0.9-0.7l-1.1-0.2c-1.3-0.3-1.8-0.9-1.8-1.8c0-1.2,1.1-2,2.6-2c1.5,0,2.4,0.7,2.6,1.8L143,141.3z"/>
	</g>
	<g class="st9">
		<path class="st0" d="M24.3,168l2.7-7.3h0.9l2.7,7.3h-0.9l-0.7-2.1h-2.9l-0.7,2.1H24.3z M28.6,165.2l-1.2-3.3h-0.1l-1.2,3.3H28.6z"
			/>
		<path class="st0" d="M31.3,162.5h0.8v0.9h0.1c0.2-0.3,0.5-0.9,1.6-0.9c1.4,0,2.3,1.1,2.3,2.8c0,1.7-1,2.8-2.3,2.8
			c-1.1,0-1.4-0.7-1.6-1h-0.1v2.9h-0.8V162.5z M33.7,167.4c1.1,0,1.6-0.9,1.6-2.1c0-1.2-0.5-2-1.6-2c-1,0-1.6,0.8-1.6,2
			C32.2,166.5,32.7,167.4,33.7,167.4z"/>
		<path class="st0" d="M37.2,162.5h0.8v0.8h0.1c0.2-0.5,0.8-0.9,1.4-0.9c0.1,0,0.3,0,0.4,0v0.9c-0.1,0-0.3-0.1-0.5-0.1
			c-0.8,0-1.4,0.5-1.4,1.3v3.5h-0.8V162.5z"/>
		<path class="st0" d="M43.4,167.4l2.4-2.6c0.8-0.9,1.2-1.4,1.2-2.1c0-0.8-0.6-1.3-1.4-1.3c-0.8,0-1.4,0.6-1.4,1.4h-0.8
			c0-1.3,1-2.1,2.2-2.1c1.3,0,2.2,0.9,2.2,2c0,0.8-0.4,1.4-1.6,2.8l-1.6,1.7v0.1H48v0.8h-4.6V167.4z"/>
		<path class="st0" d="M51.8,168h-0.9v-6.4h0l-1.8,1.2v-0.9l1.8-1.2h0.9V168z"/>
		<path class="st0" d="M54.5,167.4c-0.1,0.8-0.5,1.9-0.7,2.4h-0.6c0.1-0.5,0.3-1.4,0.4-2.4l0-0.4h0.9L54.5,167.4z"/>
		<path class="st0" d="M61.1,168h-0.9v-6.4h0l-1.8,1.2v-0.9l1.8-1.2h0.9V168z"/>
		<path class="st0" d="M62.9,163.4c0-0.4,0.3-0.6,0.6-0.6s0.6,0.3,0.6,0.6c0,0.4-0.3,0.6-0.6,0.6S62.9,163.7,62.9,163.4z
			 M62.9,167.4c0-0.4,0.3-0.6,0.6-0.6s0.6,0.3,0.6,0.6s-0.3,0.6-0.6,0.6S62.9,167.8,62.9,167.4z"/>
		<path class="st0" d="M65.4,164.4c0-2.4,0.9-3.7,2.5-3.7s2.5,1.4,2.5,3.7c0,2.4-0.9,3.7-2.5,3.7C66.3,168.1,65.4,166.7,65.4,164.4z
			 M69.6,164.4c0-1.9-0.6-3-1.7-3c-1.1,0-1.7,1.1-1.7,3c0,1.9,0.6,3,1.7,3C69,167.3,69.6,166.3,69.6,164.4z"/>
		<path class="st0" d="M71.4,164.4c0-2.4,0.9-3.7,2.5-3.7s2.5,1.4,2.5,3.7c0,2.4-0.9,3.7-2.5,3.7C72.4,168.1,71.4,166.7,71.4,164.4z
			 M75.6,164.4c0-1.9-0.6-3-1.7-3c-1.1,0-1.7,1.1-1.7,3c0,1.9,0.6,3,1.7,3C75,167.3,75.6,166.3,75.6,164.4z"/>
		<path class="st0" d="M80.4,160.7h2.5c1.7,0,2.5,1,2.5,2.3s-0.8,2.3-2.5,2.3h-1.6v2.7h-0.9V160.7z M82.8,164.6
			c1.2,0,1.6-0.7,1.6-1.5c0-0.9-0.5-1.5-1.6-1.5h-1.6v3.1H82.8z"/>
		<path class="st0" d="M87.6,160.7l2.5,6h0.1l2.5-6h1.1v7.3h-0.8v-5.5h-0.1l-2.3,5.5h-0.8l-2.3-5.5h-0.1v5.5h-0.8v-7.3H87.6z"/>
		<path class="st0" d="M100.9,165.3h-3.2v-0.8h3.2V165.3z"/>
		<path class="st0" d="M104.8,167.4l2.4-2.6c0.8-0.9,1.2-1.4,1.2-2.1c0-0.8-0.6-1.3-1.4-1.3c-0.8,0-1.4,0.6-1.4,1.4h-0.8
			c0-1.3,1-2.1,2.2-2.1c1.3,0,2.2,0.9,2.2,2c0,0.8-0.4,1.4-1.6,2.8l-1.6,1.7v0.1h3.4v0.8h-4.6V167.4z"/>
		<path class="st0" d="M110.6,163.4c0-0.4,0.3-0.6,0.6-0.6s0.6,0.3,0.6,0.6c0,0.4-0.3,0.6-0.6,0.6S110.6,163.7,110.6,163.4z
			 M110.6,167.4c0-0.4,0.3-0.6,0.6-0.6s0.6,0.3,0.6,0.6s-0.3,0.6-0.6,0.6S110.6,167.8,110.6,167.4z"/>
		<path class="st0" d="M113.2,166.2h0.9c0.1,0.7,0.7,1.1,1.6,1.1c0.9,0,1.6-0.5,1.6-1.3c0-0.8-0.6-1.4-1.7-1.4H115v-0.8h0.6
			c0.9,0,1.5-0.5,1.5-1.3c0-0.7-0.5-1.2-1.3-1.2c-0.8,0-1.4,0.4-1.5,1.2h-0.9c0-1.1,1.1-1.9,2.3-1.9c1.3,0,2.2,0.9,2.2,1.9
			c0,0.8-0.5,1.4-1.2,1.6v0.1c0.9,0.2,1.5,0.8,1.5,1.7c0,1.2-1,2.1-2.5,2.1C114.3,168.1,113.3,167.3,113.2,166.2z"/>
		<path class="st0" d="M119.2,164.4c0-2.4,0.9-3.7,2.5-3.7s2.5,1.4,2.5,3.7c0,2.4-0.9,3.7-2.5,3.7
			C120.2,168.1,119.2,166.7,119.2,164.4z M123.4,164.4c0-1.9-0.6-3-1.7-3c-1.1,0-1.7,1.1-1.7,3c0,1.9,0.6,3,1.7,3
			C122.8,167.3,123.4,166.3,123.4,164.4z"/>
		<path class="st0" d="M128.2,160.7h2.5c1.7,0,2.5,1,2.5,2.3s-0.8,2.3-2.5,2.3h-1.6v2.7h-0.9V160.7z M130.6,164.6
			c1.2,0,1.6-0.7,1.6-1.5c0-0.9-0.5-1.5-1.6-1.5h-1.6v3.1H130.6z"/>
		<path class="st0" d="M135.4,160.7l2.5,6h0.1l2.5-6h1.1v7.3h-0.8v-5.5h-0.1l-2.3,5.5h-0.8l-2.3-5.5h-0.1v5.5h-0.8v-7.3H135.4z"/>
	</g>
	<path id="Rectangle_1520" class="st25" d="M327,191h38c2.8,0,5,2.2,5,5v10c0,2.8-2.2,5-5,5h-38c-2.8,0-5-2.2-5-5v-10
		C322,193.2,324.2,191,327,191z"/>
	<g class="st9">
		<path class="st0" d="M340.9,197.7v5.1c0,1.4-0.9,2.3-2.3,2.3c-1.3,0-2.3-0.7-2.3-2h1.3c0,0.6,0.4,0.9,1,0.9c0.6,0,1-0.4,1-1.2
			v-5.1H340.9z"/>
		<path class="st0" d="M341.8,202.3c0-1.7,1-2.8,2.6-2.8s2.6,1.1,2.6,2.8c0,1.7-1,2.8-2.6,2.8S341.8,204,341.8,202.3z M345.8,202.3
			c0-1-0.4-1.8-1.3-1.8c-0.9,0-1.3,0.8-1.3,1.8s0.4,1.8,1.3,1.8C345.3,204.1,345.8,203.3,345.8,202.3z"/>
		<path class="st0" d="M347.9,198.1c0-0.4,0.3-0.7,0.7-0.7c0.4,0,0.7,0.3,0.7,0.7c0,0.4-0.3,0.7-0.7,0.7
			C348.2,198.8,347.9,198.5,347.9,198.1z M348,199.5h1.3v5.5H348V199.5z"/>
		<path class="st0" d="M351.7,205h-1.3v-5.5h1.2v0.9h0.1c0.2-0.6,0.8-1,1.6-1c1.1,0,1.9,0.7,1.9,2.1v3.5h-1.3v-3.3
			c0-0.7-0.4-1.2-1.1-1.2c-0.7,0-1.2,0.5-1.2,1.2V205z"/>
	</g>
	<g id="Rectangle_1521" transform="translate(960 1598)">
		<path class="st27" d="M-576-1407h89c2.8,0,5,2.2,5,5v10c0,2.8-2.2,5-5,5h-89c-2.8,0-5-2.2-5-5v-10
			C-581-1404.8-578.8-1407-576-1407z"/>
		<path class="st28" d="M-576-1406.7h89c2.6,0,4.6,2.1,4.6,4.7v10c0,2.6-2.1,4.7-4.6,4.7h-89c-2.6,0-4.7-2.1-4.7-4.7v-10
			C-580.7-1404.6-578.6-1406.7-576-1406.7z"/>
	</g>
	<g class="st9">
		<path class="st22" d="M26.4,203h-1.6v-8.7h1.6V203z"/>
		<path class="st22" d="M29.4,203h-1.5v-6.5h1.5v1.1h0.1c0.3-0.7,1-1.2,2-1.2c1.3,0,2.2,0.9,2.2,2.5v4.2H32v-3.9
			c0-0.9-0.5-1.4-1.3-1.4c-0.8,0-1.4,0.5-1.4,1.5V203z"/>
		<path class="st22" d="M38.2,197.7h-1.3v3.4c0,0.6,0.3,0.8,0.7,0.8c0.2,0,0.4,0,0.5-0.1l0.3,1.2c-0.2,0.1-0.5,0.1-0.9,0.2
			c-1.2,0-2.1-0.6-2-1.8v-3.6h-0.9v-1.2h0.9v-1.6h1.5v1.6h1.3V197.7z"/>
		<path class="st22" d="M39.2,196.5h1.5v1.1h0.1c0.2-0.8,0.9-1.2,1.6-1.2c0.2,0,0.4,0,0.6,0v1.4c-0.1,0-0.5-0.1-0.7-0.1
			c-0.8,0-1.5,0.6-1.5,1.4v3.8h-1.5V196.5z"/>
		<path class="st22" d="M43.2,199.8c0-2,1.2-3.4,3.1-3.4c1.9,0,3.1,1.4,3.1,3.4c0,2-1.2,3.4-3.1,3.4
			C44.4,203.1,43.2,201.8,43.2,199.8z M47.9,199.8c0-1.2-0.5-2.2-1.6-2.2c-1.1,0-1.6,1-1.6,2.2s0.5,2.1,1.6,2.1
			C47.4,201.9,47.9,200.9,47.9,199.8z"/>
		<path class="st22" d="M50.3,199.7c0-2.2,1.2-3.4,2.7-3.4c1.2,0,1.6,0.7,1.9,1.2h0.1v-3.3h1.5v8.7h-1.5v-1h-0.1
			c-0.2,0.5-0.7,1.1-1.9,1.1C51.4,203.1,50.3,201.9,50.3,199.7z M54.9,199.7c0-1.3-0.5-2.1-1.5-2.1c-1,0-1.6,0.9-1.6,2.1
			c0,1.2,0.5,2.1,1.6,2.1C54.4,201.9,54.9,201,54.9,199.7z"/>
		<path class="st22" d="M62,196.5h1.5v6.5h-1.5v-1.2H62c-0.3,0.7-1,1.2-2,1.2c-1.3,0-2.2-0.9-2.2-2.5v-4.2h1.5v3.9
			c0,0.8,0.5,1.4,1.2,1.4c0.7,0,1.4-0.5,1.4-1.5V196.5z"/>
		<path class="st22" d="M64.7,199.8c0-2,1.2-3.4,3.1-3.4c1.6,0,2.7,0.9,2.8,2.3h-1.5c-0.1-0.6-0.6-1.1-1.3-1.1
			c-0.9,0-1.6,0.8-1.6,2.1c0,1.3,0.6,2.1,1.6,2.1c0.7,0,1.2-0.4,1.3-1.1h1.5c-0.1,1.4-1.2,2.4-2.8,2.4
			C65.8,203.1,64.7,201.7,64.7,199.8z"/>
		<path class="st22" d="M74.9,197.7h-1.3v3.4c0,0.6,0.3,0.8,0.7,0.8c0.2,0,0.4,0,0.5-0.1l0.3,1.2c-0.2,0.1-0.5,0.1-0.9,0.2
			c-1.2,0-2.1-0.6-2-1.8v-3.6h-0.9v-1.2h0.9v-1.6h1.5v1.6h1.3V197.7z"/>
		<path class="st22" d="M75.8,194.7c0-0.5,0.4-0.8,0.9-0.8c0.5,0,0.9,0.4,0.9,0.8c0,0.5-0.4,0.8-0.9,0.8
			C76.2,195.5,75.8,195.2,75.8,194.7z M75.9,196.5h1.5v6.5h-1.5V196.5z"/>
		<path class="st22" d="M78.5,199.8c0-2,1.2-3.4,3.1-3.4c1.9,0,3.1,1.4,3.1,3.4c0,2-1.2,3.4-3.1,3.4
			C79.8,203.1,78.5,201.8,78.5,199.8z M83.3,199.8c0-1.2-0.5-2.2-1.6-2.2c-1.1,0-1.6,1-1.6,2.2s0.5,2.1,1.6,2.1
			C82.7,201.9,83.3,200.9,83.3,199.8z"/>
		<path class="st22" d="M87.4,203h-1.5v-6.5h1.5v1.1h0.1c0.3-0.7,1-1.2,1.9-1.2c1.3,0,2.2,0.9,2.2,2.5v4.2h-1.5v-3.9
			c0-0.9-0.5-1.4-1.3-1.4c-0.8,0-1.4,0.5-1.4,1.5V203z"/>
		<path class="st22" d="M99,197.7h-1.3v3.4c0,0.6,0.3,0.8,0.7,0.8c0.2,0,0.4,0,0.5-0.1l0.3,1.2c-0.2,0.1-0.5,0.1-0.9,0.2
			c-1.2,0-2.1-0.6-2-1.8v-3.6h-0.9v-1.2h0.9v-1.6h1.5v1.6H99V197.7z"/>
		<path class="st22" d="M99.7,199.8c0-2,1.2-3.4,3.1-3.4c1.9,0,3.1,1.4,3.1,3.4c0,2-1.2,3.4-3.1,3.4
			C100.9,203.1,99.7,201.8,99.7,199.8z M104.4,199.8c0-1.2-0.5-2.2-1.6-2.2c-1.1,0-1.6,1-1.6,2.2s0.5,2.1,1.6,2.1
			C103.9,201.9,104.4,200.9,104.4,199.8z"/>
		<path class="st22" d="M111.4,203h-1.6v-8.7h1.6V203z"/>
		<path class="st22" d="M114.3,203h-1.5v-6.5h1.5v1.1h0.1c0.3-0.7,1-1.2,2-1.2c1.3,0,2.2,0.9,2.2,2.5v4.2H117v-3.9
			c0-0.9-0.5-1.4-1.3-1.4c-0.8,0-1.4,0.5-1.4,1.5V203z"/>
		<path class="st22" d="M123.1,197.7h-1.3v3.4c0,0.6,0.3,0.8,0.7,0.8c0.2,0,0.4,0,0.5-0.1l0.3,1.2c-0.2,0.1-0.5,0.1-0.9,0.2
			c-1.2,0-2.1-0.6-2-1.8v-3.6h-0.9v-1.2h0.9v-1.6h1.5v1.6h1.3V197.7z"/>
		<path class="st22" d="M123.9,199.8c0-2,1.2-3.4,3.1-3.4c1.6,0,3,1,3,3.3v0.5h-4.6c0,1.1,0.7,1.8,1.7,1.8c0.7,0,1.2-0.3,1.4-0.8
			l1.4,0.2c-0.3,1.1-1.3,1.9-2.8,1.9C125.1,203.1,123.9,201.8,123.9,199.8z M128.5,199.1c0-0.9-0.6-1.5-1.5-1.5
			c-0.9,0-1.5,0.7-1.6,1.5H128.5z"/>
		<path class="st22" d="M131,196.5h1.5v1.1h0.1c0.2-0.8,0.9-1.2,1.6-1.2c0.2,0,0.4,0,0.6,0v1.4c-0.1,0-0.5-0.1-0.7-0.1
			c-0.8,0-1.5,0.6-1.5,1.4v3.8H131V196.5z"/>
		<path class="st22" d="M137.1,203h-1.5v-6.5h1.5v1.1h0.1c0.3-0.7,1-1.2,1.9-1.2c1.3,0,2.2,0.9,2.2,2.5v4.2h-1.5v-3.9
			c0-0.9-0.5-1.4-1.3-1.4c-0.8,0-1.4,0.5-1.4,1.5V203z"/>
		<path class="st22" d="M142.3,201.2c0-1.5,1.2-1.9,2.5-2c1.2-0.1,1.6-0.1,1.6-0.6v0c0-0.6-0.4-1-1.1-1c-0.8,0-1.2,0.4-1.3,0.8
			l-1.4-0.2c0.3-1.2,1.4-1.8,2.8-1.8c1.2,0,2.7,0.5,2.7,2.2v4.4h-1.5v-0.9h-0.1c-0.3,0.5-0.9,1-1.9,1
			C143.2,203.1,142.3,202.5,142.3,201.2z M146.4,200.7v-0.8c-0.2,0.2-1,0.3-1.4,0.3c-0.7,0.1-1.2,0.3-1.2,0.9c0,0.6,0.5,0.9,1.1,0.9
			C145.8,202,146.4,201.4,146.4,200.7z"/>
		<path class="st22" d="M152.5,197.7h-1.3v3.4c0,0.6,0.3,0.8,0.7,0.8c0.2,0,0.4,0,0.5-0.1l0.3,1.2c-0.2,0.1-0.5,0.1-0.9,0.2
			c-1.2,0-2.1-0.6-2-1.8v-3.6h-0.9v-1.2h0.9v-1.6h1.5v1.6h1.3V197.7z"/>
		<path class="st22" d="M153.5,194.7c0-0.5,0.4-0.8,0.9-0.8c0.5,0,0.9,0.4,0.9,0.8c0,0.5-0.4,0.8-0.9,0.8
			C153.9,195.5,153.5,195.2,153.5,194.7z M153.6,196.5h1.5v6.5h-1.5V196.5z"/>
		<path class="st22" d="M156.2,199.8c0-2,1.2-3.4,3.1-3.4c1.9,0,3.1,1.4,3.1,3.4c0,2-1.2,3.4-3.1,3.4
			C157.4,203.1,156.2,201.8,156.2,199.8z M160.9,199.8c0-1.2-0.5-2.2-1.6-2.2c-1.1,0-1.6,1-1.6,2.2s0.5,2.1,1.6,2.1
			C160.4,201.9,160.9,200.9,160.9,199.8z"/>
		<path class="st22" d="M165.1,203h-1.5v-6.5h1.5v1.1h0.1c0.3-0.7,1-1.2,1.9-1.2c1.3,0,2.2,0.9,2.2,2.5v4.2h-1.5v-3.9
			c0-0.9-0.5-1.4-1.3-1.4c-0.8,0-1.4,0.5-1.4,1.5V203z"/>
		<path class="st22" d="M170.3,201.2c0-1.5,1.2-1.9,2.5-2c1.2-0.1,1.6-0.1,1.6-0.6v0c0-0.6-0.4-1-1.1-1c-0.8,0-1.2,0.4-1.3,0.8
			l-1.4-0.2c0.3-1.2,1.4-1.8,2.8-1.8c1.2,0,2.7,0.5,2.7,2.2v4.4h-1.5v-0.9h-0.1c-0.3,0.5-0.9,1-1.9,1
			C171.2,203.1,170.3,202.5,170.3,201.2z M174.4,200.7v-0.8c-0.2,0.2-1,0.3-1.4,0.3c-0.7,0.1-1.2,0.3-1.2,0.9c0,0.6,0.5,0.9,1.1,0.9
			C173.8,202,174.4,201.4,174.4,200.7z"/>
		<path class="st22" d="M178.8,203h-1.5v-8.7h1.5V203z"/>
		<path class="st22" d="M182.9,194.3h3.3c2,0,3.1,1.1,3.1,2.8c0,1.2-0.5,2.1-1.6,2.5l1.9,3.5h-1.8l-1.7-3.2h-1.6v3.2h-1.6V194.3z
			 M186,198.5c1.2,0,1.7-0.5,1.7-1.4c0-0.9-0.5-1.5-1.7-1.5h-1.4v2.9H186z"/>
		<path class="st22" d="M190.1,199.8c0-2,1.2-3.4,3.1-3.4c1.6,0,3,1,3,3.3v0.5h-4.6c0,1.1,0.7,1.8,1.7,1.8c0.7,0,1.2-0.3,1.4-0.8
			l1.4,0.2c-0.3,1.1-1.3,1.9-2.8,1.9C191.3,203.1,190.1,201.8,190.1,199.8z M194.7,199.1c0-0.9-0.6-1.5-1.5-1.5
			c-0.9,0-1.5,0.7-1.6,1.5H194.7z"/>
		<path class="st22" d="M198.8,203h-1.5v-8.7h1.5V203z"/>
		<path class="st22" d="M199.8,201.2c0-1.5,1.2-1.9,2.5-2c1.2-0.1,1.6-0.1,1.6-0.6v0c0-0.6-0.4-1-1.1-1c-0.8,0-1.2,0.4-1.3,0.8
			l-1.4-0.2c0.3-1.2,1.4-1.8,2.8-1.8c1.2,0,2.7,0.5,2.7,2.2v4.4H204v-0.9h-0.1c-0.3,0.5-0.9,1-1.9,1
			C200.7,203.1,199.8,202.5,199.8,201.2z M203.9,200.7v-0.8c-0.2,0.2-1,0.3-1.4,0.3c-0.7,0.1-1.2,0.3-1.2,0.9c0,0.6,0.5,0.9,1.1,0.9
			C203.3,202,203.9,201.4,203.9,200.7z"/>
		<path class="st22" d="M210,197.7h-1.3v3.4c0,0.6,0.3,0.8,0.7,0.8c0.2,0,0.4,0,0.5-0.1l0.3,1.2c-0.2,0.1-0.5,0.1-0.9,0.2
			c-1.2,0-2.1-0.6-2-1.8v-3.6h-0.9v-1.2h0.9v-1.6h1.5v1.6h1.3V197.7z"/>
		<path class="st22" d="M211,194.7c0-0.5,0.4-0.8,0.9-0.8c0.5,0,0.9,0.4,0.9,0.8c0,0.5-0.4,0.8-0.9,0.8
			C211.4,195.5,211,195.2,211,194.7z M211.1,196.5h1.5v6.5h-1.5V196.5z"/>
		<path class="st22" d="M213.7,199.8c0-2,1.2-3.4,3.1-3.4c1.9,0,3.1,1.4,3.1,3.4c0,2-1.2,3.4-3.1,3.4
			C214.9,203.1,213.7,201.8,213.7,199.8z M218.4,199.8c0-1.2-0.5-2.2-1.6-2.2c-1.1,0-1.6,1-1.6,2.2s0.5,2.1,1.6,2.1
			C217.9,201.9,218.4,200.9,218.4,199.8z"/>
		<path class="st22" d="M222.6,203H221v-6.5h1.5v1.1h0.1c0.3-0.7,1-1.2,2-1.2c1.3,0,2.2,0.9,2.2,2.5v4.2h-1.5v-3.9
			c0-0.9-0.5-1.4-1.3-1.4c-0.8,0-1.4,0.5-1.4,1.5V203z"/>
		<path class="st22" d="M231.9,198.3c-0.1-0.4-0.5-0.8-1.2-0.8c-0.6,0-1.1,0.3-1.1,0.7c0,0.4,0.3,0.6,0.9,0.8l1.1,0.2
			c1.2,0.3,1.8,0.8,1.8,1.8c0,1.2-1.2,2.1-2.8,2.1c-1.6,0-2.6-0.7-2.8-1.9l1.5-0.1c0.1,0.6,0.6,0.9,1.3,0.9c0.7,0,1.2-0.3,1.2-0.8
			c0-0.4-0.3-0.6-0.9-0.7l-1.1-0.2c-1.3-0.3-1.8-0.9-1.8-1.8c0-1.2,1.1-2,2.6-2c1.5,0,2.4,0.7,2.6,1.8L231.9,198.3z"/>
	</g>
	<g class="st9">
		<path class="st22" d="M24.3,225l2.7-7.3h0.9l2.7,7.3h-0.9l-0.7-2.1h-2.9l-0.7,2.1H24.3z M28.6,222.2l-1.2-3.3h-0.1l-1.2,3.3H28.6z
			"/>
		<path class="st22" d="M31.3,219.5h0.8v0.9h0.1c0.2-0.3,0.5-0.9,1.6-0.9c1.4,0,2.3,1.1,2.3,2.8c0,1.7-1,2.8-2.3,2.8
			c-1.1,0-1.4-0.7-1.6-1h-0.1v2.9h-0.8V219.5z M33.7,224.4c1.1,0,1.6-0.9,1.6-2.1c0-1.2-0.5-2-1.6-2c-1,0-1.6,0.8-1.6,2
			C32.2,223.5,32.7,224.4,33.7,224.4z"/>
		<path class="st22" d="M37.2,219.5h0.8v0.8h0.1c0.2-0.5,0.8-0.9,1.4-0.9c0.1,0,0.3,0,0.4,0v0.9c-0.1,0-0.3-0.1-0.5-0.1
			c-0.8,0-1.4,0.5-1.4,1.3v3.5h-0.8V219.5z"/>
		<path class="st22" d="M43.4,224.4l2.4-2.6c0.8-0.9,1.2-1.4,1.2-2.1c0-0.8-0.6-1.3-1.4-1.3c-0.8,0-1.4,0.6-1.4,1.4h-0.8
			c0-1.3,1-2.1,2.2-2.1c1.3,0,2.2,0.9,2.2,2c0,0.8-0.4,1.4-1.6,2.8l-1.6,1.7v0.1H48v0.8h-4.6V224.4z"/>
		<path class="st22" d="M51.8,225h-0.9v-6.4h0l-1.8,1.2v-0.9l1.8-1.2h0.9V225z"/>
		<path class="st22" d="M54.5,224.4c-0.1,0.8-0.5,1.9-0.7,2.4h-0.6c0.1-0.5,0.3-1.4,0.4-2.4l0-0.4h0.9L54.5,224.4z"/>
		<path class="st22" d="M61.1,225h-0.9v-6.4h0l-1.8,1.2v-0.9l1.8-1.2h0.9V225z"/>
		<path class="st22" d="M63,224.4l2.4-2.6c0.8-0.9,1.2-1.4,1.2-2.1c0-0.8-0.6-1.3-1.4-1.3c-0.8,0-1.4,0.6-1.4,1.4H63
			c0-1.3,1-2.1,2.2-2.1c1.3,0,2.2,0.9,2.2,2c0,0.8-0.4,1.4-1.6,2.8l-1.6,1.7v0.1h3.4v0.8H63V224.4z"/>
		<path class="st22" d="M68.8,220.4c0-0.4,0.3-0.6,0.6-0.6s0.6,0.3,0.6,0.6c0,0.4-0.3,0.6-0.6,0.6S68.8,220.7,68.8,220.4z
			 M68.8,224.4c0-0.4,0.3-0.6,0.6-0.6s0.6,0.3,0.6,0.6s-0.3,0.6-0.6,0.6S68.8,224.8,68.8,224.4z"/>
		<path class="st22" d="M71.2,221.4c0-2.4,0.9-3.7,2.5-3.7s2.5,1.4,2.5,3.7c0,2.4-0.9,3.7-2.5,3.7C72.2,225.1,71.2,223.7,71.2,221.4
			z M75.4,221.4c0-1.9-0.6-3-1.7-3c-1.1,0-1.7,1.1-1.7,3c0,1.9,0.6,3,1.7,3C74.8,224.3,75.4,223.3,75.4,221.4z"/>
		<path class="st22" d="M77.3,221.4c0-2.4,0.9-3.7,2.5-3.7s2.5,1.4,2.5,3.7c0,2.4-0.9,3.7-2.5,3.7C78.2,225.1,77.3,223.7,77.3,221.4
			z M81.5,221.4c0-1.9-0.6-3-1.7-3c-1.1,0-1.7,1.1-1.7,3c0,1.9,0.6,3,1.7,3C80.9,224.3,81.5,223.3,81.5,221.4z"/>
		<path class="st22" d="M85.6,225l2.7-7.3h0.9l2.7,7.3H91l-0.7-2.1h-2.9l-0.7,2.1H85.6z M90,222.2l-1.2-3.3h-0.1l-1.2,3.3H90z"/>
		<path class="st22" d="M93.9,217.7l2.5,6h0.1l2.5-6h1.1v7.3h-0.8v-5.5h-0.1l-2.3,5.5H96l-2.3-5.5h-0.1v5.5h-0.8v-7.3H93.9z"/>
		<path class="st22" d="M107.2,222.3H104v-0.8h3.2V222.3z"/>
		<path class="st22" d="M113.6,225h-0.9v-6.4h0l-1.8,1.2v-0.9l1.8-1.2h0.9V225z"/>
		<path class="st22" d="M115.5,224.4l2.4-2.6c0.8-0.9,1.2-1.4,1.2-2.1c0-0.8-0.6-1.3-1.4-1.3c-0.8,0-1.4,0.6-1.4,1.4h-0.8
			c0-1.3,1-2.1,2.2-2.1c1.3,0,2.2,0.9,2.2,2c0,0.8-0.4,1.4-1.6,2.8l-1.6,1.7v0.1h3.4v0.8h-4.6V224.4z"/>
		<path class="st22" d="M121.4,220.4c0-0.4,0.3-0.6,0.6-0.6s0.6,0.3,0.6,0.6c0,0.4-0.3,0.6-0.6,0.6S121.4,220.7,121.4,220.4z
			 M121.4,224.4c0-0.4,0.3-0.6,0.6-0.6s0.6,0.3,0.6,0.6s-0.3,0.6-0.6,0.6S121.4,224.8,121.4,224.4z"/>
		<path class="st22" d="M124,223.2h0.9c0.1,0.7,0.7,1.1,1.4,1.1c0.9,0,1.5-0.7,1.5-1.6c0-1-0.7-1.7-1.6-1.7c-0.4,0-1,0.2-1.3,0.4
			l-0.8-0.1l0.4-3.6h3.8v0.8h-3l-0.3,2.1h0c0.3-0.2,0.8-0.4,1.3-0.4c1.3,0,2.3,1,2.3,2.4c0,1.4-1,2.4-2.4,2.4
			C125,225.1,124,224.3,124,223.2z"/>
		<path class="st22" d="M129.7,221.4c0-2.4,0.9-3.7,2.5-3.7s2.5,1.4,2.5,3.7c0,2.4-0.9,3.7-2.5,3.7
			C130.6,225.1,129.7,223.7,129.7,221.4z M133.9,221.4c0-1.9-0.6-3-1.7-3c-1.1,0-1.7,1.1-1.7,3c0,1.9,0.6,3,1.7,3
			C133.3,224.3,133.9,223.3,133.9,221.4z"/>
		<path class="st22" d="M138,225l2.7-7.3h0.9l2.7,7.3h-0.9l-0.7-2.1h-2.9l-0.7,2.1H138z M142.3,222.2l-1.2-3.3h-0.1l-1.2,3.3H142.3z
			"/>
		<path class="st22" d="M146.3,217.7l2.5,6h0.1l2.5-6h1.1v7.3h-0.8v-5.5h-0.1l-2.3,5.5h-0.8l-2.3-5.5H146v5.5h-0.8v-7.3H146.3z"/>
	</g>
	<g class="st9">
		<path class="st17" d="M20.4,105.7h5.8v1.1H24v6.2h-1.3v-6.2h-2.3V105.7z"/>
		<path class="st17" d="M26,110.3c0-1.7,1-2.8,2.6-2.8c1.6,0,2.6,1.1,2.6,2.8c0,1.7-1,2.8-2.6,2.8C27.1,113.1,26,112,26,110.3z
			 M30,110.3c0-1-0.4-1.8-1.3-1.8c-0.9,0-1.3,0.8-1.3,1.8s0.4,1.8,1.3,1.8C29.5,112.1,30,111.3,30,110.3z"/>
		<path class="st17" d="M31.9,110.3c0-1.8,1-2.8,2.3-2.8c1,0,1.4,0.6,1.6,1h0.1v-2.7h1.3v7.3h-1.3v-0.9h-0.1c-0.2,0.4-0.6,1-1.6,1
			C32.9,113.1,31.9,112.1,31.9,110.3z M35.8,110.3c0-1.1-0.5-1.7-1.3-1.7c-0.9,0-1.3,0.7-1.3,1.7c0,1,0.4,1.8,1.3,1.8
			C35.4,112,35.8,111.3,35.8,110.3z"/>
		<path class="st17" d="M38,111.5c0-1.2,1-1.5,2.1-1.7c1-0.1,1.4-0.1,1.4-0.5v0c0-0.5-0.3-0.8-0.9-0.8c-0.6,0-1,0.3-1.1,0.7
			l-1.2-0.2c0.3-1,1.2-1.5,2.3-1.5c1,0,2.2,0.4,2.2,1.9v3.7h-1.2v-0.8h0c-0.2,0.5-0.7,0.9-1.6,0.9C38.8,113.1,38,112.5,38,111.5z
			 M41.4,111v-0.6c-0.2,0.1-0.8,0.2-1.2,0.3c-0.6,0.1-1,0.3-1,0.8c0,0.5,0.4,0.7,0.9,0.7C41,112.2,41.4,111.6,41.4,111z"/>
		<path class="st17" d="M43.6,114.9l0.3-1c0.6,0.2,0.9,0.1,1.2-0.5l0.1-0.3l-2-5.6h1.4l1.3,4.1h0.1l1.3-4.1h1.4l-2.2,6.1
			c-0.3,0.9-0.9,1.4-1.9,1.4C44.1,115,43.8,115,43.6,114.9z"/>
	</g>
	<path id="Rectangle_1522" class="st22" d="M395,197h3c1.1,0,2,0.9,2,2v3c0,1.1-0.9,2-2,2h-3c-1.1,0-2-0.9-2-2v-3
		C393,197.9,393.9,197,395,197z"/>
	<g id="Rectangle_1523" transform="translate(976 1606)">
		<path class="st22" d="M-579-1407h3c1.1,0,2,0.9,2,2v3c0,1.1-0.9,2-2,2h-3c-1.1,0-2-0.9-2-2v-3C-581-1406.1-580.1-1407-579-1407z"
			/>
		<path class="st29" d="M-579-1406.7h3c0.9,0,1.7,0.8,1.7,1.7v3c0,0.9-0.8,1.7-1.7,1.7h-3c-0.9,0-1.7-0.8-1.7-1.7v-3
			C-580.7-1405.9-579.9-1406.7-579-1406.7z"/>
	</g>
	<g class="st9">
		<path class="st22" d="M410.5,200.1c-0.1-0.7-0.7-1.1-1.4-1.1c-1,0-1.6,0.7-1.6,2c0,1.3,0.7,2,1.6,2c0.7,0,1.3-0.4,1.4-1.1l1.1,0
			c-0.2,1.1-1.1,2-2.5,2c-1.5,0-2.7-1.1-2.7-3c0-1.9,1.1-3,2.7-3c1.3,0,2.3,0.7,2.5,2H410.5z"/>
		<path class="st22" d="M412.1,201.8c0-1.4,0.8-2.3,2.1-2.3s2.1,0.9,2.1,2.3c0,1.3-0.8,2.2-2.1,2.2S412.1,203.2,412.1,201.8z
			 M415.3,201.8c0-0.8-0.3-1.4-1-1.4c-0.7,0-1.1,0.6-1.1,1.4c0,0.8,0.3,1.4,1.1,1.4C414.9,203.3,415.3,202.6,415.3,201.8z"/>
		<path class="st22" d="M417,199.6h1v0.7h0.1c0.2-0.3,0.5-0.8,1.2-0.8c1,0,1.8,0.8,1.8,2.2c0,1.4-0.8,2.2-1.8,2.2
			c-0.8,0-1.1-0.4-1.2-0.8h0v2.3h-1V199.6z M419.1,203.2c0.7,0,1-0.6,1-1.4c0-0.8-0.4-1.4-1-1.4c-0.7,0-1,0.5-1,1.4
			S418.4,203.2,419.1,203.2z"/>
		<path class="st22" d="M421.7,205.5l0.2-0.8c0.4,0.1,0.8,0.1,0.9-0.4l0.1-0.2l-1.6-4.5h1.1l1,3.3h0l1-3.3h1.1l-1.7,4.9
			c-0.2,0.7-0.7,1.1-1.5,1.1C422.1,205.6,421.8,205.6,421.7,205.5z"/>
		<path class="st22" d="M429.1,204H428v-5.8h1.1V204z"/>
		<path class="st22" d="M431,204h-1v-4.4h1v0.7h0.1c0.2-0.5,0.6-0.8,1.3-0.8c0.9,0,1.5,0.6,1.5,1.6v2.8h-1v-2.6
			c0-0.6-0.3-0.9-0.8-0.9c-0.5,0-0.9,0.4-0.9,1V204z"/>
		<path class="st22" d="M436.9,204h-1.1l-1.6-4.4h1.1l1,3.2h0l1-3.2h1.1L436.9,204z"/>
		<path class="st22" d="M438.9,198.5c0-0.3,0.3-0.6,0.6-0.6c0.3,0,0.6,0.2,0.6,0.6c0,0.3-0.3,0.6-0.6,0.6
			C439.2,199,438.9,198.8,438.9,198.5z M439,199.6h1v4.4h-1V199.6z"/>
		<path class="st22" d="M443.1,200.4h-0.9v2.3c0,0.4,0.2,0.5,0.5,0.5c0.1,0,0.2,0,0.3,0l0.2,0.8c-0.1,0-0.3,0.1-0.6,0.1
			c-0.8,0-1.4-0.4-1.4-1.2v-2.4h-0.6v-0.8h0.6v-1h1v1h0.9V200.4z"/>
		<path class="st22" d="M443.8,198.5c0-0.3,0.3-0.6,0.6-0.6c0.3,0,0.6,0.2,0.6,0.6c0,0.3-0.3,0.6-0.6,0.6
			C444,199,443.8,198.8,443.8,198.5z M443.8,199.6h1v4.4h-1V199.6z"/>
		<path class="st22" d="M445.6,202.8c0-1,0.8-1.2,1.7-1.3c0.8-0.1,1.1-0.1,1.1-0.4v0c0-0.4-0.3-0.7-0.7-0.7c-0.5,0-0.8,0.3-0.9,0.6
			l-1-0.1c0.2-0.8,0.9-1.2,1.8-1.2c0.8,0,1.8,0.3,1.8,1.5v2.9h-1v-0.6h0c-0.2,0.4-0.6,0.7-1.3,0.7
			C446.2,204.1,445.6,203.6,445.6,202.8z M448.3,202.4v-0.5c-0.1,0.1-0.7,0.2-0.9,0.2c-0.5,0.1-0.8,0.2-0.8,0.6
			c0,0.4,0.3,0.6,0.7,0.6C447.9,203.3,448.3,202.9,448.3,202.4z"/>
		<path class="st22" d="M452.4,200.4h-0.9v2.3c0,0.4,0.2,0.5,0.5,0.5c0.1,0,0.2,0,0.3,0l0.2,0.8c-0.1,0-0.3,0.1-0.6,0.1
			c-0.8,0-1.4-0.4-1.4-1.2v-2.4h-0.6v-0.8h0.6v-1h1v1h0.9V200.4z"/>
		<path class="st22" d="M453,198.5c0-0.3,0.3-0.6,0.6-0.6c0.3,0,0.6,0.2,0.6,0.6c0,0.3-0.3,0.6-0.6,0.6
			C453.3,199,453,198.8,453,198.5z M453.1,199.6h1v4.4h-1V199.6z"/>
		<path class="st22" d="M454.8,201.8c0-1.4,0.8-2.3,2.1-2.3c1.3,0,2.1,0.9,2.1,2.3c0,1.3-0.8,2.2-2.1,2.2
			C455.6,204.1,454.8,203.2,454.8,201.8z M457.9,201.8c0-0.8-0.3-1.4-1-1.4c-0.7,0-1.1,0.6-1.1,1.4c0,0.8,0.3,1.4,1.1,1.4
			C457.6,203.3,457.9,202.6,457.9,201.8z"/>
		<path class="st22" d="M460.7,204h-1v-4.4h1v0.7h0.1c0.2-0.5,0.6-0.8,1.3-0.8c0.9,0,1.5,0.6,1.5,1.6v2.8h-1v-2.6
			c0-0.6-0.3-0.9-0.8-0.9c-0.5,0-0.9,0.4-0.9,1V204z"/>
	</g>
</g>
</svg>
